/* XPM */
static char *Egg21650738375[] = {
/* columns rows colors chars-per-pixel */
"34 31 8 1 ",
"  c None",
". c black",
"X c #60B050",
"o c #75B357",
"O c #CEDDAD",
"+ c #D8E8B5",
"@ c #E0E0C0",
"# c gray99",
/* pixels */
"                                  ",
"                                  ",
"                                  ",
"              ..                  ",
"            ..@.                  ",
"           .@@@.                  ",
"            ..@.                  ",
"              .                   ",
"         .                ..      ",
"        .@.              .@.      ",
"        .O...   ....    .@@@.     ",
"        .X@@@. ...... ..@@@@.     ",
"        .XXXX. .#..#...+@XXX.     ",
"         ..... ........XXXXX.     ",
"               ..##.....oXX.      ",
"           .. ...##...  ...       ",
"           ..............         ",
"          .@@@@......@.@X.        ",
"          .@@@@X.XX@@@.XX.        ",
"          ..@X.XX@@@@@..@.        ",
"          .X..X@@.@@@X.@@.        ",
"          .XXX.@@.@@X.X@@.        ",
"          .X@@.@@..XX.@@@.        ",
"          .@@@@@X.XX@@@@@.        ",
"           .@@@XXXX@@@@X.         ",
"           .@XXXX@@@@@XX.         ",
"           .XXX@@@@@@XXX.         ",
"            ..@@@@@@XX..          ",
"              .@@@@XX.            ",
"               ......             ",
"                                  "
};
