/* XPM */
static char *liv1652187604[] = {
/* columns rows colors chars-per-pixel */
"34 31 4 1 ",
"  c None",
". c black",
"X c #ED1C24",
"o c gray99",
/* pixels */
"                                  ",
"                                  ",
"                                  ",
"                                  ",
"                                  ",
"                                  ",
"                                  ",
"                                  ",
"                                  ",
"                                  ",
"            ....   ....           ",
"           .XXXX. .XXXX.          ",
"          .XXXXXX.XXooXX.         ",
"          .XXXXXXXXXXXXX.         ",
"          .XXXXXXXXXXXXX.         ",
"          .XXXXXXXXXXXXX.         ",
"           .XXXXXXXXXXX.          ",
"            .XXXXXXXXX.           ",
"             .XXXXXXX.            ",
"              .XXXXX.             ",
"               .XXX.              ",
"                .X.               ",
"                 .                ",
"                                  ",
"                                  ",
"                                  ",
"                                  ",
"                                  ",
"                                  ",
"                                  ",
"                                  "
};
