/* XPM */
static char *p01652357464[] = {
/* columns rows colors chars-per-pixel */
"68 62 6 1 ",
"  c #2E6E62",
". c white",
"X c #A3EDFF",
"o c #8CFADE",
"O c #CEF3FF",
"+ c #E1FFFA",
/* pixels */
"                                                                    ",
"                                                                    ",
"                                                                    ",
"                                                                    ",
"                                                                    ",
"                                                                    ",
"                            ..............                          ",
"                            ..............                          ",
"                          ....XXXXXXXXXX....                        ",
"                          ....XXXXXXXXXX....                        ",
"                        ....XXXXXXXXXXXXXX....              oo      ",
"                        ....XXXXXXXXXXXXXX....              oo      ",
"                      ....XXXXXXXXXXXXXXXXXX....          oo        ",
"                      ....XXXXXXXXXXXXXXXXXX....          oo        ",
"      oooo          ....XXXXXXXXXXXXXXXXXXXXXX....                  ",
"      oooo          ....XXXXXXXXXXXXXXXXXXXXXX....                  ",
"                    ..XXXXXXXXXXXXXXXXXXXXXXXXXX..                  ",
"                    ..XXXXXXXXXXXXXXXXXXXXXXXXXX..                  ",
"                  ....XXXXXXXXXXOOOOOOXXXXXXXXXX....                ",
"                  ....XXXXXXXXXXOOOOOOXXXXXXXXXX....                ",
"                  ..XXXXXXXXXXOOOOOOOOOOXXXXooooXX..                ",
"                  ..XXXXXXXXXXOOOOOOOOOOXXXXooooXX..                ",
"                ....XXXXXXXXOOOOOOOOOOOOOOXXXXXXXX....              ",
"                ....XXXXXXXXOOOOOOOOOOOOOOXXXXXXXX....              ",
"          oo    ..XXXXXXXXXXOOOOOOOOOOOOOOXXXXXXXX....              ",
"          oo    ..XXXXXXXXXXOOOOOOOOOOOOOOXXXXXXXX....              ",
"                ..XXXXXXXXOOOOOOOO++OOOOOOOOXXXXXXXX..              ",
"                ..XXXXXXXXOOOOOOOO++OOOOOOOOXXXXXXXX..              ",
"                ..XXXXXXXXOOOOOO++++++OOOOOOXXXXXXXX..              ",
"                ..XXXXXXXXOOOOOO++++++OOOOOOXXXXXXXX..              ",
"                ..XXXXXXooooOOOO++++++OOOOOOXXXXXXXX..              ",
"                ..XXXXXXooooOOOO++++++OOOOOOXXXXXXXX..              ",
"    oooo        ..XXXXXXXXOOOOOO++++++OOOOOOXXXXXXXX..oooo          ",
"    oooo        ..XXXXXXXXOOOOOO++++++OOOOOOXXXXXXXX..oooo          ",
"                ..XXXXXXXXOOOOOO++++++OOOOOOooooXXXX..              ",
"                ..XXXXXXXXOOOOOO++++++OOOOOOooooXXXX..              ",
"                ..XXXXXXXXOOOOOOOO++OOOOOOOOXXXXXXXX..              ",
"                ..XXXXXXXXOOOOOOOO++OOOOOOOOXXXXXXXX..              ",
"                ..XXXXXXXXXXOOOOOOOOOOOOOOXXXXXXXXXX..              ",
"                ..XXXXXXXXXXOOOOOOOOOOOOOOXXXXXXXXXX..              ",
"                ....XXXXXXXXOOOOOOooooOOOOXXXXXXXX....              ",
"                ....XXXXXXXXOOOOOOooooOOOOXXXXXXXX....              ",
"                  ..XXXXXXXXXXOOOOOOOOOOXXXXXXXXXX..                ",
"                  ..XXXXXXXXXXOOOOOOOOOOXXXXXXXXXX..                ",
"                  ..XXXXXXXXXXXXOOOOOOXXXXXXXXXXXX..                ",
"                  ..XXXXXXXXXXXXOOOOOOXXXXXXXXXXXX..                ",
"                  ....XXXXXXXXXXXXXXXXXXXXXXXXXX....                ",
"                  ....XXXXXXXXXXXXXXXXXXXXXXXXXX....                ",
"                    ..XXXXXXXXXXXXXXXXXXXXXXXXXX..                  ",
"                    ..XXXXXXXXXXXXXXXXXXXXXXXXXX..                  ",
"            oooo    ....XXXXXXXXXXXXXXXXXXXXXX....                  ",
"            oooo    ....XXXXXXXXXXXXXXXXXXXXXX....                  ",
"                      ....XXXXXXXXXXXXXXXXXX....          oooo      ",
"                      ....XXXXXXXXXXXXXXXXXX....          oooo      ",
"                        ....XXXXXXXXXXXXXX....          oooo        ",
"                        ....XXXXXXXXXXXXXX....          oooo        ",
"      oooo                ....XXXXXXXXXX....                        ",
"      oooo                ....XXXXXXXXXX....                        ",
"                            ..............                          ",
"                            ..............                          ",
"                                                                    ",
"                                                                    "
};
