/* XPM */
static char *p01650738268[] = {
/* columns rows colors chars-per-pixel */
"34 31 7 1 ",
"  c #2E6E62",
". c white",
"X c #A3EDFF",
"o c #8CFADE",
"O c #CEF3FF",
"+ c #E1FFFA",
"@ c white",
/* pixels */
"                                  ",
"                                  ",
"                                  ",
"              .......             ",
"             ..XXXXX..            ",
"            ..XXXXXXX..       o   ",
"           ..XXXXXXXXX..     o    ",
"   oo     ..XXXXXXXXXXX..         ",
"          .XXXXXXXXXXXXX.         ",
"         ..XXXXXOOOXXXXX..        ",
"         .XXXXXOOOOOXXooX.        ",
"        ..XXXXOOOOOOOXXXX..       ",
"     o  .XXXXXOOOOOOOXXXX..       ",
"        .XXXXOOOO+OOOOXXXX.       ",
"        .XXXXOOO+++OOOXXXX.       ",
"        .XXXooOO+++OOOXXXX.       ",
"  oo    .XXXXOOO+++OOOXXXX.oo     ",
"        .XXXXOOO+++OOOooXX.       ",
"        .XXXXOOOO+OOOOXXXX.       ",
"        .XXXXXOOOOOOOXXXXX.       ",
"        ..XXXXOOOooOOXXXX..       ",
"         .XXXXXOOOOOXXXXX.        ",
"         .XXXXXXOOOXXXXXX.        ",
"         ..XXXXXXXXXXXXX..        ",
"          .XXXXXXXXXXXXX.         ",
"      oo  ..XXXXXXXXXXX..         ",
"           ..XXXXXXXXX..     oo   ",
"            ..XXXXXXX..     oo    ",
"   oo        ..XXXXX..            ",
"              .......             ",
"                                  "
};
