/* XPM */
static char *_1652357746[] = {
/* columns rows colors chars-per-pixel */
"62 68 11 1 ",
"  c None",
". c #402040",
"X c #802000",
"o c #E02000",
"O c #E06000",
"+ c #E0A040",
"@ c #E0E040",
"# c #404080",
"$ c #4080C0",
"% c #808080",
"& c #C0C0C0",
/* pixels */
"                                                  ..          ",
"                                                  ..          ",
"                                                    ..        ",
"                                                    ..        ",
"                                  ..                          ",
"                                  ..                          ",
"      ....                      ..                            ",
"      ....                      ..                            ",
"    ..                          ..                            ",
"    ..                          ..                            ",
"                              ....  ..                        ",
"                              ....  ..                        ",
"                        ..    ..XX....      ..                ",
"                        ..    ..XX....      ..                ",
"                      ..XX..  ..XXXX..      ..                ",
"                      ..XX..  ..XXXX..      ..                ",
"              ..      ..oo..    ..ooXX..    XX..              ",
"              ..      ..oo..    ..ooXX..    XX..              ",
"              ....  ..XXooXX..  ..XXooXX..  XXXX..            ",
"              ....  ..XXooXX..  ..XXooXX..  XXXX..            ",
"              ....  ..ooooooXX......XXoo..    XXXX            ",
"              ....  ..ooooooXX......XXoo..    XXXX            ",
"            ......  ..ooooooXX....XXoooo..  XXooXX            ",
"            ......  ..ooooooXX....XXoooo..  XXooXX            ",
"            ......  ..XXooooXX..XXooOOooXX..XXooXX            ",
"            ......  ..XXooooXX..XXooOOooXX..XXooXX            ",
"            ....XX..  XXOOXX..XXOOOO++OOooXXOOoo..            ",
"            ....XX..  XXOOXX..XXOOOO++OOooXXOOoo..            ",
"              ..ooXX..XXOOooXXooOO++++OOOOOOooXX..            ",
"              ..ooXX..XXOOooXXooOO++++OOOOOOooXX..            ",
"              ..XXooXXooOOooooOO++@@++++OOooXX..    XX        ",
"              ..XXooXXooOOooooOO++@@++++OOooXX..    XX        ",
"              ..XXooooOO++OOOO++++@@++++OOooXX..  XX          ",
"              ..XXooooOO++OOOO++++@@++++OOooXX..  XX          ",
"              ..XXooOO++++++++@@@@++++@@++OOooXXXXXX          ",
"              ..XXooOO++++++++@@@@++++@@++OOooXXXXXX          ",
"            ..XXooOO++++@@++@@@@@@++@@++++++OOooXX            ",
"            ..XXooOO++++@@++@@@@@@++@@++++++OOooXX            ",
"            ..XXXX........OO++@@++++OO........XXXX..          ",
"            ..XXXX........OO++@@++++OO........XXXX..          ",
"            ..oooo..$$&&$$..++@@@@++..$$&&$$..ooXX..          ",
"            ..oooo..$$&&$$..++@@@@++..$$&&$$..ooXX..          ",
"            ..oooo..##$$....++@@@@++....$$##..ooXX..          ",
"            ..oooo..##$$....++@@@@++....$$##..ooXX..          ",
"            ..XXooOO######..++@@@@++..######OOooXX..          ",
"            ..XXooOO######..++@@@@++..######OOooXX..          ",
"              ..oo..OOOO++++++++++++++++OOOO..oo..            ",
"              ..oo..OOOO++++++++++++++++OOOO..oo..            ",
"              ..XX....%%OOOOOO++++OOOOOO%%....XX..            ",
"              ..XX....%%OOOOOO++++OOOOOO%%....XX..            ",
"                ..XX&&....&&........&&....&&XX..              ",
"                ..XX&&....&&........&&....&&XX..              ",
"                XXXXXXXXoo%%oooooooo%%ooXXXXXX..              ",
"                XXXXXXXXoo%%oooooooo%%ooXXXXXX..              ",
"            XXXXooooXX....................XXooXXXX            ",
"            XXXXooooXX....................XXooXXXX            ",
"        ....XXooOOOOXX..                ..XXOOOOooXX          ",
"        ....XXooOOOOXX..                ..XXOOOOooXX          ",
"            ..ooOOoo..                    ..ooOOOOooXX        ",
"            ..ooOOoo..                    ..ooOOOOooXX        ",
"          ..XXOOooXX..                    ..XXXX........      ",
"          ..XXOOooXX..                    ..XXXX........      ",
"        ......XXXX..                        ....              ",
"        ......XXXX..                        ....              ",
"              ....                              ..            ",
"              ....                              ..            ",
"            ..                                                ",
"            ..                                                "
};
