/* XPM */
static char *_1650738436[] = {
/* columns rows colors chars-per-pixel */
"31 34 11 1 ",
"  c None",
". c #402040",
"X c #802000",
"o c #E02000",
"O c #E06000",
"+ c #E0A040",
"@ c #E0E040",
"# c #404080",
"$ c #4080C0",
"% c #808080",
"& c #C0C0C0",
/* pixels */
"                               ",
"               ..              ",
"               .               ",
"                               ",
"               ...             ",
"           ...  ....  ...      ",
"          ..X    .X....        ",
"          .XX.   .XX..X.       ",
"      .  .XoX.. ..XoX.X.       ",
"      .. .XooX..XXoXX.XX.      ",
"      .X..XooX.XooOX.XoX.      ",
"      .XX..XOoXoOOooXXoX.      ",
"       .X. XoOoO+OoX XoX.      ",
"       .o. XoOO+++OoXoOX    .  ",
"       .oX.Xo+O+@o+OO+OX    .  ",
"       .ooXoO+++@@+++OoX.  .   ",
"      .XoOoO+++@@@+++OooX.     ",
"      .XoOO++++@@++@+OooX.     ",
"      .XoO++@+@@@+@+++OooX.    ",
"      .XX....O+@++O....XoX.    ",
"      .oo.$&$.+@@+.$&$.ooX.    ",
"      .oo.#$..+@@+..$#.oX.     ",
"      .XoO###.+@@+.###OoX.     ",
"       .o.OO++++++++OO.o.      ",
"       .X..%OOO++OOO%..X.      ",
"        .X&..&....&..&X.       ",
"        XXXXo%oooo%oXXX.       ",
"    .....XoX........XXoXX..    ",
"     XoOOOX.        .XOOoX     ",
"    ..XoOo.          .XoOoX.   ",
"    . XoXX.           .XX..    ",
"     .XX..             ..      ",
"      ..                 .     ",
"                               "
};
