/* XPM */
static char *_1652357746[] = {
/* columns rows colors chars-per-pixel */
"62 68 11 1 ",
"  c None",
". c #402040",
"X c #802000",
"o c #E02000",
"O c #E06000",
"+ c #E0A040",
"@ c #E0E040",
"# c #404080",
"$ c #4080C0",
"% c #808080",
"& c #C0C0C0",
/* pixels */
"                                ..                            ",
"                                ..                            ",
"                                                              ",
"                                                              ",
"                                                              ",
"                                                              ",
"                                ..                            ",
"                                ..                            ",
"                              ........      ......            ",
"                              ........      ......            ",
"                      ....      ..XX....  ..XXXX....          ",
"                      ....      ..XX....  ..XXXX....          ",
"                      ......      ..XX..  ..XX..              ",
"                      ......      ..XX..  ..XX..              ",
"        ........    ....XXXX..      ..XX......                ",
"        ........    ....XXXX..      ..XX......                ",
"            ..XX..  ....XXXX..  ....XX..........              ",
"            ..XX..  ....XXXX..  ....XX..........              ",
"            ..XXXX..  ....XXXX....XXXX..    ....              ",
"            ..XXXX..  ....XXXX....XXXX..    ....              ",
"            ..XXXX..      XXXX..XXXX..        XX..            ",
"            ..XXXX..      XXXX..XXXX..        XX..            ",
"              ..XX....    ..XXXXXXoo..        XX..            ",
"              ..XX....    ..XXXXXXoo..        XX..            ",
"              ..XX..      ..XXooooooXXXX    ..XX..            ",
"              ..XX..      ..XXooooooXXXX    ..XX..            ",
"              ......    ..XXooOOOOOOooooXXXXXXXX          ..  ",
"              ......    ..XXooOOOOOOooooXXXXXXXX          ..  ",
"                ..XXXXXXXXooOO++++++OOOOooooooXX        ..    ",
"                ..XXXXXXXXooOO++++++OOOOooooooXX        ..    ",
"                ..XXooooooOO++++@@++++++OOOOooXX..            ",
"                ..XXooooooOO++++@@++++++OOOOooXX..            ",
"              ..XXooOOOOOO++++@@@@@@@@++++++OOooXX..          ",
"              ..XXooOOOOOO++++@@@@@@@@++++++OOooXX..          ",
"              ..XXooOO++++++@@@@@@@@@@++@@++++OOooXX..        ",
"              ..XXooOO++++++@@@@@@@@@@++@@++++OOooXX..        ",
"              ..XXooOO++@@++++@@@@++++@@@@@@++OOooXX..        ",
"              ..XXooOO++@@++++@@@@++++@@@@@@++OOooXX..        ",
"            ..XXooooOO++@@++@@@@@@++@@@@@@@@++OOooXX..        ",
"            ..XXooooOO++@@++@@@@@@++@@@@@@@@++OOooXX..        ",
"            ..XXXX........OO++@@++++OO........XXXX..          ",
"            ..XXXX........OO++@@++++OO........XXXX..          ",
"            ..XXoo..$$&&$$..++@@@@++..$$&&$$..ooXX..          ",
"            ..XXoo..$$&&$$..++@@@@++..$$&&$$..ooXX..          ",
"            ..oooo..##$$....++@@@@++....$$##..ooXX..          ",
"            ..oooo..##$$....++@@@@++....$$##..ooXX..          ",
"            ..XXooOO######..++@@@@++..######OOooXX..          ",
"            ..XXooOO######..++@@@@++..######OOooXX..          ",
"              ..oo..OOOO++++++++++++++++OOOO..oo..            ",
"              ..oo..OOOO++++++++++++++++OOOO..oo..            ",
"              ..XX....%%OOOOOO++++OOOOOO%%....XX..            ",
"              ..XX....%%OOOOOO++++OOOOOO%%....XX..            ",
"                ..XX&&....&&........&&....&&XX..              ",
"                ..XX&&....&&........&&....&&XX..              ",
"                XXXXXXXXoo%%oooooooo%%ooXXXXXX..              ",
"                XXXXXXXXoo%%oooooooo%%ooXXXXXX..              ",
"        ..........XXooXX................XXooooXX....          ",
"        ..........XXooXX................XXooooXX....          ",
"            ..XXooOOXX..                XXOOOOooXX  ..        ",
"            ..XXooOOXX..                XXOOOOooXX  ..        ",
"            XXooOOooXX..                ..XXooOOooXX..        ",
"            XXooOOooXX..                ..XXooOOooXX..        ",
"        ..XXooOOooXX..                    ....XXXX..          ",
"        ..XXooOOooXX..                    ....XXXX..          ",
"          ..........                          ......          ",
"          ..........                          ......          ",
"                                                              ",
"                                                              "
};
