/* XPM */
static char *_1650738437[] = {
/* columns rows colors chars-per-pixel */
"31 34 11 1 ",
"  c None",
". c #402040",
"X c #802000",
"o c #E02000",
"O c #E06000",
"+ c #E0A040",
"@ c #E0E040",
"# c #404080",
"$ c #4080C0",
"% c #808080",
"& c #C0C0C0",
/* pixels */
"                               ",
"                               ",
"                ...    ..      ",
"                  .   ....     ",
"          ...   ....     ..    ",
"           ...  .    .         ",
"    ...    ..X.   ..  .        ",
"   .....    .X.  ...   .       ",
"   .  ...   .X  .XX.   ..      ",
"        .  ..X  .XoX. .X.      ",
"          .XX.   XooX.XX.      ",
"         .Xoo.  .XOoX.XX       ",
"        ..XooX..Xo+OoX...      ",
"       .  XoOoX.Xo++OoXXX.     ",
"       .  XoOOoXoO+@+OooX.     ",
"       ..XoO+OOoO+@@++OOoX     ",
"       .XoO++++O+@@@@++OX      ",
"       .XO++@++++@@@@+OoX      ",
"       .XO++@@+@@@+@++OoX.     ",
"      .XoO++@+@@@++++OooX.     ",
"      .XX....O+@++O....XX.     ",
"      .Xo.$&$.+@@+.$&$.oX.     ",
"      .Xo.#$..+@@+..$#.oX.     ",
"      .XoO###.+@@+.###OoX.     ",
"       .o.OO++++++++OO.o.      ",
"       .X..%OOO++OOO%..X.      ",
"        .X&..&....&..&X.       ",
"        XXXXo%oooo%oXXXX       ",
"      XXoOoX........XoOoX .    ",
"     XoOOoX.        .XoOoX.    ",
"     XOXoX.         .XooOo.    ",
"    .XX.X.          .XXX...    ",
"     .. .            .. .      ",
"                               "
};
