/* XPM */
static char *K1652298357[] = {
/* columns rows colors chars-per-pixel */
"31 34 7 1 ",
"  c None",
". c #402040",
"X c #802000",
"o c #E02000",
"O c #E06000",
"+ c #E0A040",
"@ c #E0E040",
/* pixels */
"       .                       ",
"       .                  ..   ",
"                           ..  ",
"                 XX        X.  ",
"                XoOX.     .X.  ",
"               .XO+oX.    .X.  ",
"          ..   Xo+@OoX.    .   ",
"         .X. ..XO@@+oX.        ",
"        .XoX.XXoO@@@Oo.        ",
"        .XoX.XXoO@@@+oX.       ",
"        .XOoXXXoO+@@+oo.       ",
"       .XX+OXXXXoO+++oOX.      ",
"       .oO@OoXXXXoOO+oOoXX.    ",
"      .XO+@+OoX..XoO+oOooXX.   ",
"      .XO@@++o.  .oo+O+oOoX..  ",
"      .o+@@O+o.  .Xo++@O+OoX.  ",
"      .oO+@oOX.  .XO++@O@+OX.  ",
"      .XoO+oOX. .XoO+@@+@@+oX. ",
"       .XoOooo. .oO+@@@@@@@oX. ",
"       .XoOoOoX.XoO+@@@@+@+oX. ",
"       .oOoo+OoXoOO++@@@O+Oo.  ",
"      .XoOoO++OoO+++O+@@+OoX   ",
"      .XoOoO+++O+@@+oO++OoX..  ",
"     .X.XoXo+++O@@@+ooOOoo. .  ",
"    .Xo..XXXO++++@+@oooooo. .  ",
"   ..Oo...XXoO++++O+OooooO..X. ",
"   .X+o.  .XXo+OO++@@oooo+.XoX.",
"   .X@OX.  .Xo+ooO@@OoXXoO.oOo.",
"   .X@+X.  .ooOoooOOoX..XoXO+o.",
"    Xo@X.  .XoOoXXooX.. .X.oOX.",
"    .XX.    .XoX....X..  ..Xo. ",
"     ..      ...   .XX.   ...  ",
"                    .X.        ",
"                     .         "
};
