/* XPM */
static char *A11652357852[] = {
/* columns rows colors chars-per-pixel */
"68 62 4 1 ",
"  c None",
". c #300000",
"X c #EA3680",
"o c #FFAEC9",
/* pixels */
"                                                                    ",
"                                                                    ",
"                                                                    ",
"                                                                    ",
"                                                                    ",
"                                                                    ",
"                    ....    ................                        ",
"                    ....    ................                        ",
"                  ..ooXX....oooooooooooooooo..                      ",
"                  ..ooXX....oooooooooooooooo..                      ",
"                  ..XXooooXXoooooooooooooooooo..                    ",
"                  ..XXooooXXoooooooooooooooooo..                    ",
"                    ..XXoooooooooooooooooooooooo..                  ",
"                    ..XXoooooooooooooooooooooooo..                  ",
"                    ..oooooooooooooooooooooooooo..                  ",
"                    ..oooooooooooooooooooooooooo..                  ",
"                    ..oooooooooo..oooooooooo..oooo..                ",
"                    ..oooooooooo..oooooooooo..oooo..                ",
"                  ..oooooooooooo..oooooooooooo..oo..                ",
"                  ..oooooooooooo..oooooooooooo..oo..                ",
"                  ..oooooooooooo..oooooooooooo..oo..                ",
"                  ..oooooooooooo..oooooooooooo..oo..                ",
"                  ..oooooooooooo..oooooooooooo..oo..                ",
"                  ..oooooooooooo..oooooooooooo..oo..                ",
"                  ..oooo....oooo..oooooooooooo..oo..                ",
"                  ..oooo....oooo..oooooooooooo..oo..                ",
"                ....oo..oo....oo..oooooooooooo..oo..                ",
"                ....oo..oo....oo..oooooooooooo..oo..                ",
"                ..oooooooooooooo..oooooooooooo....                  ",
"                ..oooooooooooooo..oooooooooooo....                  ",
"                ..oooooooooooo..oooooooooooooo....                  ",
"                ..oooooooooooo..oooooooooooooo....                  ",
"                  ..oooooooooo..oooooooooooooo..                    ",
"                  ..oooooooooo..oooooooooooooo..                    ",
"                    ..XXoooooo..ooXXXXXXoooooooo..                  ",
"                    ..XXoooooo..ooXXXXXXoooooooo..                  ",
"                      ..XXXXXX..XXXXXXXXXXXXXXXX..                  ",
"                      ..XXXXXX..XXXXXXXXXXXXXXXX..                  ",
"                      ..........XXXXXXXXXXXXXXoo..                  ",
"                      ..........XXXXXXXXXXXXXXoo..                  ",
"                      ..XXXXXX..oooooooooooooooooo..                ",
"                      ..XXXXXX..oooooooooooooooooo..                ",
"                      ..XX......ooooooooooooXXXXXX..                ",
"                      ..XX......ooooooooooooXXXXXX..                ",
"                    ..XX..oooo..XXXXXXXXXXXXXXXXXX....              ",
"                    ..XX..oooo..XXXXXXXXXXXXXXXXXX....              ",
"                    ....oooo..XXXXXXXXXXXXXXXXXXXXXX....            ",
"                    ....oooo..XXXXXXXXXXXXXXXXXXXXXX....            ",
"                    ..XXoooo..oooooo..oooooooooo..oooooo......      ",
"                    ..XXoooo..oooooo..oooooooooo..oooooo......      ",
"                      ..oooo..ooooXXXX..ooooooXXXX..ooooooXXXX..    ",
"                      ..oooo..ooooXXXX..ooooooXXXX..ooooooXXXX..    ",
"                      ..XXoo..ooXXXXXXXX..ooXXXXXXXX..ooXXXXXXXX..  ",
"                      ..XXoo..ooXXXXXXXX..ooXXXXXXXX..ooXXXXXXXX..  ",
"                        ..XX..ooXXXXXXXX..XXXXXXXXXXXX..XXXXXXXX..  ",
"                        ..XX..ooXXXXXXXX..XXXXXXXXXXXX..XXXXXXXX..  ",
"                        ..XXXX..XXXXXXXX..XXXXXXXXXXXX..XXXXXXXX..  ",
"                        ..XXXX..XXXXXXXX..XXXXXXXXXXXX..XXXXXXXX..  ",
"                        ........................................    ",
"                        ........................................    ",
"                                                                    ",
"                                                                    "
};
