/* XPM */
static char *A21652357852[] = {
/* columns rows colors chars-per-pixel */
"68 62 7 1 ",
"  c None",
". c black",
"X c #300000",
"o c #3F48CC",
"O c #EA3680",
"+ c #FFAEC9",
"@ c #99D9EA",
/* pixels */
"                                                                    ",
"                                                                    ",
"                                                                    ",
"                                                                    ",
"                  XXXX    XXXXXXXXXXXXXXXX                          ",
"                  XXXX    XXXXXXXXXXXXXXXX                          ",
"                XX++OOXXXX++++++++++++++++XX                        ",
"                XX++OOXXXX++++++++++++++++XX                        ",
"                XXOO++++OO++++++++++++++++++XX                      ",
"                XXOO++++OO++++++++++++++++++XX                      ",
"                  XXOO++++++++++++++++++++++++XX                    ",
"                  XXOO++++++++++++++++++++++++XX                    ",
"                  XX++++++++++++++++++++++++++XX                    ",
"                  XX++++++++++++++++++++++++++XX                    ",
"                  XX++++++++++XX++++++++++XX++++XX                  ",
"                  XX++++++++++XX++++++++++XX++++XX                  ",
"                XX++++++++++++XX++++++++++++XX++XX                  ",
"                XX++++++++++++XX++++++++++++XX++XX                  ",
"                XX++++++++++++XX++++++++++++XX++XX                  ",
"                XX++++++++++++XX++++++++++++XX++XX                  ",
"                XX++++XXXX++++XX++++++++++++XX++XX                  ",
"                XX++++XXXX++++XX++++++++++++XX++XX                  ",
"                XX++XX@@XXXX++XX++++++++++++XX++XX                  ",
"                XX++XX@@XXXX++XX++++++++++++XX++XX                  ",
"              XXXX++XXXXooXX++XX++++++++++++XX++XX                  ",
"              XXXX++XXXXooXX++XX++++++++++++XX++XX                  ",
"              XX++++++XXXX++++XX++++++++++++XXXX                    ",
"              XX++++++XXXX++++XX++++++++++++XXXX                    ",
"              XX++++++++++++XX++++++++++++++XXXX                    ",
"              XX++++++++++++XX++++++++++++++XXXX                    ",
"                XX++++++++++XX++++++++++++++XX                      ",
"                XX++++++++++XX++++++++++++++XX                      ",
"                  XXOO++++++XX++OOOOOO++++++++XX                    ",
"                  XXOO++++++XX++OOOOOO++++++++XX                    ",
"                    XXOOOOOOXXOOOOOOOOOOOOOOOOXX                    ",
"                    XXOOOOOOXXOOOOOOOOOOOOOOOOXX                    ",
"                    XXXXXXXXXXOOOOOOOOOOOOOO++XX                    ",
"                    XXXXXXXXXXOOOOOOOOOOOOOO++XX                    ",
"                      XXOOOO..++++++++++++++++++..                  ",
"                      XXOOOO..++++++++++++++++++..                  ",
"                      XXOOXX..++++++++++++++OOOOOOXX                ",
"                      XXOOXX..++++++++++++++OOOOOOXX                ",
"                    XXOOXX++..OOOOOOOOOOOOOOOOOOOOXX                ",
"                    XXOOXX++..OOOOOOOOOOOOOOOOOOOOXX                ",
"                    XXXX++++XXOOOOOOOOOOOOOOOOOOOOOOXX              ",
"                    XXXX++++XXOOOOOOOOOOOOOOOOOOOOOOXX              ",
"                    XX++++++XXOOOOOOOOOOOOOOOO++++++++XX            ",
"                    XX++++++XXOOOOOOOOOOOOOOOO++++++++XX            ",
"                    XX++++++XX++++++XX++++++++++XX++++++XXXXXX      ",
"                    XX++++++XX++++++XX++++++++++XX++++++XXXXXX      ",
"                    ..OO++++XX++++OOOOXX++++++OOOOXX++++++OOOOXX    ",
"                    ..OO++++XX++++OOOOXX++++++OOOOXX++++++OOOOXX    ",
"                    ..OOOO..XX++OOOOOOOOXX++OOOOOOOOXX++OOOOOOOOXX  ",
"                    ..OOOO..XX++OOOOOOOOXX++OOOOOOOOXX++OOOOOOOOXX  ",
"                  ..OOOO....XX++OOOOOOOOXXOOOOOOOOOOOOXXOOOOOOOOXX  ",
"                  ..OOOO....XX++OOOOOOOOXXOOOOOOOOOOOOXXOOOOOOOOXX  ",
"                ..OOOO....OO..XXOOOOOOOOXXOOOOOOOOOOOOXXOOOOOOOOXX  ",
"                ..OOOO....OO..XXOOOOOOOOXXOOOOOOOOOOOOXXOOOOOOOOXX  ",
"                ......  XXXXXXXXXXXXXXXXXXXXXXXXXXXXXXXXXXXXXXXX    ",
"                ......  XXXXXXXXXXXXXXXXXXXXXXXXXXXXXXXXXXXXXXXX    ",
"                                                                    ",
"                                                                    "
};
