/* XPM */
static char *A31652357852[] = {
/* columns rows colors chars-per-pixel */
"68 62 7 1 ",
"  c None",
". c black",
"X c #300000",
"o c #3F48CC",
"O c #EA3680",
"+ c #FFAEC9",
"@ c #99D9EA",
/* pixels */
"                                                                    ",
"                                                                    ",
"                                                                    ",
"                                                                    ",
"                                                                    ",
"                                                                    ",
"                  XXXX    XXXXXXXXXXXXXXXX                          ",
"                  XXXX    XXXXXXXXXXXXXXXX                          ",
"                XX++OOXXXX++++++++++++++++XX                        ",
"                XX++OOXXXX++++++++++++++++XX                        ",
"                XXOO++++OO++++++++++++++++++XX                      ",
"                XXOO++++OO++++++++++++++++++XX                      ",
"                  XXOO++++++++++++++++++++++++XX                    ",
"                  XXOO++++++++++++++++++++++++XX                    ",
"                  XX++++++++++++++++++++++++++XX                    ",
"                  XX++++++++++++++++++++++++++XX                    ",
"                  XX++++++++++XX++++++++++XX++++XX                  ",
"                  XX++++++++++XX++++++++++XX++++XX                  ",
"                XX++++++++++++XX++++++++++++XX++XX                  ",
"                XX++++++++++++XX++++++++++++XX++XX                  ",
"                XX++++++++++++XX++++++++++++XX++XX                  ",
"                XX++++++++++++XX++++++++++++XX++XX                  ",
"                XX++++XXXX++++XX++++++++++++XX++XX                  ",
"                XX++++XXXX++++XX++++++++++++XX++XX                  ",
"                XX++XX@@XXXX++XX++++++++++++XX++XX                  ",
"                XX++XX@@XXXX++XX++++++++++++XX++XX                  ",
"              XXXX++XXXXooXX++XX++++++++++++XX++XX                  ",
"              XXXX++XXXXooXX++XX++++++++++++XX++XX                  ",
"              XX++++++XXXX++++XX++++++++++++XXXX                    ",
"              XX++++++XXXX++++XX++++++++++++XXXX                    ",
"              XX++++++++++++XX++++++++++++++XXXX                    ",
"              XX++++++++++++XX++++++++++++++XXXX                    ",
"                XX++++++++++XX++++++++++++++XX                      ",
"                XX++++++++++XX++++++++++++++XX                      ",
"                  XXOO++++++XX++OOOOOO++++++++XX                    ",
"                  XXOO++++++XX++OOOOOO++++++++XX                    ",
"                    XXOOOOOOXXOOOOOOOOOOOOOOOOXX                    ",
"                    XXOOOOOOXXOOOOOOOOOOOOOOOOXX                    ",
"                    XXXXXXXXXXOOOOOOOOOOOOOO++XX                    ",
"                    XXXXXXXXXXOOOOOOOOOOOOOO++XX                    ",
"                      XXOOOO..++++++++++++++++++..                  ",
"                      XXOOOO..++++++++++++++++++..                  ",
"                    XXXXOOXXXX++++++++++++++OOOOOOXX                ",
"                    XXXXOOXXXX++++++++++++++OOOOOOXX                ",
"                    XXOOXX++XXOOOOOOOOOOOOOOOOOOOOOOXX              ",
"                    XXOOXX++XXOOOOOOOOOOOOOOOOOOOOOOXX              ",
"                    XX..++++XXOOOOOOOOOOOOOOOO++++++++XX            ",
"                    XX..++++XXOOOOOOOOOOOOOOOO++++++++XX            ",
"                    XX++++++XX++++++XX++++++++++XX++++++XXXXXX      ",
"                    XX++++++XX++++++XX++++++++++XX++++++XXXXXX      ",
"                    ..OO++++XX++++OOOOXX++++++OOOOXX++++++OOOOXX    ",
"                    ..OO++++XX++++OOOOXX++++++OOOOXX++++++OOOOXX    ",
"                    ..XXOO++XX++OOOOOOOOXX++OOOOOOOOXX++OOOOOOOOXX  ",
"                    ..XXOO++XX++OOOOOOOOXX++OOOOOOOOXX++OOOOOOOOXX  ",
"                  ..OOOOXXOOXX++OOOOOOOOXXOOOOOOOOOOOOXXOOOOOOOOXX  ",
"                  ..OOOOXXOOXX++OOOOOOOOXXOOOOOOOOOOOOXXOOOOOOOOXX  ",
"                ..OOOO..XXOOOOXXOOOOOOOOXXOOOOOOOOOOOOXXOOOOOOOOXX  ",
"                ..OOOO..XXOOOOXXOOOOOOOOXXOOOOOOOOOOOOXXOOOOOOOOXX  ",
"                ......  XXXXXXXXXXXXXXXXXXXXXXXXXXXXXXXXXXXXXXXX    ",
"                ......  XXXXXXXXXXXXXXXXXXXXXXXXXXXXXXXXXXXXXXXX    ",
"                                                                    ",
"                                                                    "
};
