/* XPM */
static char *eg01652358161[] = {
/* columns rows colors chars-per-pixel */
"68 62 4 1 ",
"  c None",
". c black",
"X c #EA3680",
"o c #FFAEC9",
/* pixels */
"                                                                    ",
"                                                                    ",
"                                                                    ",
"                                                                    ",
"                                                                    ",
"                                                                    ",
"                                                                    ",
"                                                                    ",
"                                                                    ",
"                                                                    ",
"                                                                    ",
"                                                                    ",
"                                                                    ",
"                                                                    ",
"                                                                    ",
"                                                                    ",
"                                                                    ",
"                                                                    ",
"                                                                    ",
"                                                                    ",
"                                                                    ",
"                                                                    ",
"                                                                    ",
"                                                                    ",
"                              ........                              ",
"                              ........                              ",
"                          ....XXXXoooo....                          ",
"                          ....XXXXoooo....                          ",
"                        ..XXXXooooooooooXX..                        ",
"                        ..XXXXooooooooooXX..                        ",
"                      ..XXXXooooooooooooXX....                      ",
"                      ..XXXXooooooooooooXX....                      ",
"                      ..ooooooooooooXXXXXXoooo..                    ",
"                      ..ooooooooooooXXXXXXoooo..                    ",
"                    ..ooooooooooooXXXXXXoooooo..                    ",
"                    ..ooooooooooooXXXXXXoooooo..                    ",
"                    ..ooooooooXXXXXXXXooooooooXX..                  ",
"                    ..ooooooooXXXXXXXXooooooooXX..                  ",
"                    ..ooooXXXXXXXXooooooooooXXXX..                  ",
"                    ..ooooXXXXXXXXooooooooooXXXX..                  ",
"                    ..XXXXXXXXooooooooooooXXXXoo..                  ",
"                    ..XXXXXXXXooooooooooooXXXXoo..                  ",
"                    ..XXXXXXooooooooooooXXXXXXoo..                  ",
"                    ..XXXXXXooooooooooooXXXXXXoo..                  ",
"                    ..XXooooooooooooooXXXXoooooo..                  ",
"                    ..XXooooooooooooooXXXXoooooo..                  ",
"                    ..ooooooooooXXXXXXXXoooooooo..                  ",
"                    ..ooooooooooXXXXXXXXoooooooo..                  ",
"                    ..ooooooooXXXXXXXXooooooooXX..                  ",
"                    ..ooooooooXXXXXXXXooooooooXX..                  ",
"                      ..ooXXXXXXXXooooooooooXXXX..                  ",
"                      ..ooXXXXXXXXooooooooooXXXX..                  ",
"                      ..XXXXXXooooooooooooXXXX..                    ",
"                      ..XXXXXXooooooooooooXXXX..                    ",
"                        ..XXooooooooooooXXXXXX..                    ",
"                        ..XXooooooooooooXXXXXX..                    ",
"                        ....ooooooooooXXXX....                      ",
"                        ....ooooooooooXXXX....                      ",
"                            ..............                          ",
"                            ..............                          ",
"                                                                    ",
"                                                                    "
};
