/* XPM */
static char *S21652357851[] = {
/* columns rows colors chars-per-pixel */
"68 62 7 1 ",
"  c None",
". c black",
"X c #300000",
"o c #3F48CC",
"O c #EA3680",
"+ c #FFAEC9",
"@ c #99D9EA",
/* pixels */
"                                                                    ",
"                                                                    ",
"                                                                    ",
"                                                                    ",
"                                XXXX                                ",
"                                XXXX                                ",
"                            XXXXOOOOXXXX                            ",
"                            XXXXOOOOXXXX                            ",
"                        XXXXOOXX++++XXOOXXXX                        ",
"                        XXXXOOXX++++XXOOXXXX                        ",
"                    XXXX++++OOOO++++OOOO++++XXXX                    ",
"                    XXXX++++OOOO++++OOOO++++XXXX                    ",
"                  XXOO++++++OO++++++++OO++++++OOXX                  ",
"                  XXOO++++++OO++++++++OO++++++OOXX                  ",
"                XX++++++++++++++++++++++++++++++++XX                ",
"                XX++++++++++++++++++++++++++++++++XX                ",
"                XX++OO++++++++++++++++++++++++OO++XX                ",
"                XX++OO++++++++++++++++++++++++OO++XX                ",
"              XX++OOOO++++++++++++++++++++++++OOOO++XX              ",
"              XX++OOOO++++++++++++++++++++++++OOOO++XX              ",
"              XX++XX++++++++++++++++++++++++++++XX++XX              ",
"              XX++XX++++++++++++++++++++++++++++XX++XX              ",
"              XX++XX++++XXXX++++++++++++XXXX++++XX++XX              ",
"              XX++XX++++XXXX++++++++++++XXXX++++XX++XX              ",
"              XX++XX++XXXX@@XX++++++++XX@@XXXX++XX++XX              ",
"              XX++XX++XXXX@@XX++++++++XX@@XXXX++XX++XX              ",
"              XX++XX++XXooXXXX++++++++XXXXooXX++XX++XX              ",
"              XX++XX++XXooXXXX++++++++XXXXooXX++XX++XX              ",
"            XX++++XX++++XXXX++++++++++++XXXX++++XX++++XX            ",
"            XX++++XX++++XXXX++++++++++++XXXX++++XX++++XX            ",
"            XX++++XX++++++++++++XXXX++++++++++++XX++++XX            ",
"            XX++++XX++++++++++++XXXX++++++++++++XX++++XX            ",
"            XX++++XXOO++++++++++++++++++++++++OOXX++++XX            ",
"            XX++++XXOO++++++++++++++++++++++++OOXX++++XX            ",
"            XX++++++XXOO++++++++++++++++++++OOXX++++++XX            ",
"            XX++++++XXOO++++++++++++++++++++OOXX++++++XX            ",
"            XXOO++++XXXXOOOO++++++++++++OOOOXXXX++++OOXX            ",
"            XXOO++++XXXXOOOO++++++++++++OOOOXXXX++++OOXX            ",
"            XXOOOO++XXXXXXXXXXXXXXXXXXXXXXXXXXXX++OOOOXX            ",
"            XXOOOO++XXXXXXXXXXXXXXXXXXXXXXXXXXXX++OOOOXX            ",
"          XX++OOOOOOXXXXOO++OOOOOOOOOOOO++OOXXXXOOOOOO++XX          ",
"          XX++OOOOOOXXXXOO++OOOOOOOOOOOO++OOXXXXOOOOOO++XX          ",
"          XX++++++++XXOO++++++OOOOOOOO++++++OOXX++++++++XX          ",
"          XX++++++++XXOO++++++OOOOOOOO++++++OOXX++++++++XX          ",
"          XXOOOO++++XX++++++++++OOOO++++++++++XX++++OOOOXX          ",
"          XXOOOO++++XX++++++++++OOOO++++++++++XX++++OOOOXX          ",
"        XXOOOOOOOOOOXX++OO++++++++++++++++OO++XXOOOOOOOOOOXX        ",
"        XXOOOOOOOOOOXX++OO++++++++++++++++OO++XXOOOOOOOOOOXX        ",
"        XX++++++++++XXOOXX++++++++++++++++XXOOXX++++++++++XX        ",
"        XX++++++++++XXOOXX++++++++++++++++XXOOXX++++++++++XX        ",
"      XXOOOOXXOOOO++XXXX++++++++++++......  XXXX++OOOOXXOOOOXX      ",
"      XXOOOOXXOOOO++XXXX++++++++++++......  XXXX++OOOOXXOOOOXX      ",
"    XXOOOOOOXXOOOOOOXXXXOO++++OO++..OOOOOO..  XXOOOOOOXXOOOOOOXX    ",
"    XXOOOOOOXXOOOOOOXXXXOO++++OO++..OOOOOO..  XXOOOOOOXXOOOOOOXX    ",
"  XXOOOOOOXXOOOOOOXXXXXXXXOOOOOOXXXXOOOOOOXX  XXXXOOOOOOXXOOOOOOXX  ",
"  XXOOOOOOXXOOOOOOXXXXXXXXOOOOOOXXXXOOOOOOXX  XXXXOOOOOOXXOOOOOOXX  ",
"  XXOOOOXXOOOOOOOOXX  XXXXOOOOXXXX  XX....XX    XXOOOOOOOOXXOOOOXX  ",
"  XXOOOOXXOOOOOOOOXX  XXXXOOOOXXXX  XX....XX    XXOOOOOOOOXXOOOOXX  ",
"    XXXXXXXXXXXXXX      XXXXXXXX                  XXXXXXXXXXXXXX    ",
"    XXXXXXXXXXXXXX      XXXXXXXX                  XXXXXXXXXXXXXX    ",
"                                                                    ",
"                                                                    "
};
