/* XPM */
static char *A21650738518[] = {
/* columns rows colors chars-per-pixel */
"34 31 5 1 ",
"  c None",
". c black",
"X c #300000",
"o c #60B050",
"O c #E0E0C0",
/* pixels */
"                                  ",
"                                  ",
"         XX  XXXXXXXX             ",
"        XOoXXOOOOOOOOX            ",
"        XoOOoOOOOOOOOOX           ",
"         XoOOOOOOOOOOOOX          ",
"         XOOOOOOOOOOOOOX          ",
"         XOOOOOXOOOOOXOOX         ",
"        XOOOOOOXOOOOOOXOX         ",
"        XOOOOOOXOOOOOOXOX         ",
"        XOOXXOOXOOOOOOXOX         ",
"        XOXOXXOXOOOOOOXOX         ",
"       XXOXXoXOXOOOOOOXOX         ",
"       XOOOXXOOXOOOOOOXX          ",
"       XOOOOOOXOOOOOOOXX          ",
"        XOOOOOXOOOOOOOX           ",
"         XoOOOXOoooOOOOX          ",
"          XoooXooooooooX          ",
"          XXXXXoooooooOX          ",
"           Xoo.OOOOOOOOO.         ",
"           XoX.OOOOOOOoooX        ",
"          XoXO.ooooooooooX        ",
"          XXOOXoooooooooooX       ",
"          XOOOXooooooooOOOOX      ",
"          XOOOXOOOXOOOOOXOOOXXX   ",
"          .oOOXOOooXOOOooXOOOooX  ",
"          .oo.XOooooXOooooXOooooX ",
"         .oo..XOooooXooooooXooooX ",
"        .oo..o.XooooXooooooXooooX ",
"        ... XXXXXXXXXXXXXXXXXXXX  ",
"                                  "
};
