/* XPM */
static char *D21650738516[] = {
/* columns rows colors chars-per-pixel */
"34 31 5 1 ",
"  c None",
". c black",
"X c #300000",
"o c #60B050",
"O c #E0E0C0",
/* pixels */
"                                  ",
"                                  ",
"             XXXXXXXX  XX         ",
"            XOOOOOOOOXXoOX        ",
"           XOOOOOOOOOoOOoX        ",
"          XOOOOOOOOOOOOoX         ",
"          XOOOOOOOOOOOOOX         ",
"         XOOXOOOOOXOOOOOX         ",
"         XOXOOOOOOXOOOOOOX        ",
"         XOXOOOOOOXOOOOOOX        ",
"         XOXOOOOOOXOOXXOOX        ",
"         XOXOOOOOOXOXXOXOX        ",
"         XOXOOOOOOXOXoXXOXX       ",
"          XXOOOOOOXOOXXOOOX       ",
"          XXOOOOOOOXOOOOOOX       ",
"           XOOOOOOOXOOOOOX        ",
"          XOOOOoooOXOOOoX         ",
"          XooooooooXoooX          ",
"          XOoooooooXXXXX          ",
"         .OOOOOOOOO.ooX           ",
"        XoooOOOOOOO.XoX           ",
"        Xoooooooooo.OXoX          ",
"       XoooooooooooXOOXX          ",
"      XOOOOooooooooXOOOX          ",
"   XXXOOOXOOOOOXOOOXOOOX          ",
"  XooOOOXooOOOXooOOXOOo.          ",
" XooooOXooooOXooooOX.oo.          ",
" XooooXooooooXooooOX..oo.         ",
" XooooXooooooXooooX.o..oo.        ",
"  XXXXXXXXXXXXXXXXXXXX ...        ",
"                                  "
};
