/* XPM */
static char *S01650738517[] = {
/* columns rows colors chars-per-pixel */
"34 31 4 1 ",
"  c None",
". c #300000",
"X c #60B050",
"o c #E0E0C0",
/* pixels */
"                                  ",
"                ..                ",
"              ..XX..              ",
"            ..X.oo.X..            ",
"          ..ooXXooXXoo..          ",
"         .XoooXooooXoooX.         ",
"        .oooooooooooooooo.        ",
"        .oXooooooooooooXo.        ",
"       .oXXooooooooooooXXo.       ",
"       .o.oooooooooooooo.o.       ",
"       .o.oo..oooooo..oo.o.       ",
"       .o.o..o.oooo.o..o.o.       ",
"       .o.o.X..oooo..X.o.o.       ",
"      .oo.oo..oooooo..oo.oo.      ",
"      .oo.oooooo..oooooo.oo.      ",
"      .oo.XooooooooooooX.oo.      ",
"      .ooo.XooooooooooX.ooo.      ",
"      .Xoo..XXooooooXX..ooX.      ",
"      .XXo..............oXX.      ",
"     .oXXX..XoXXXXXXoX..XXXo.     ",
"     .oooo.XoooXXXXoooX.oooo.     ",
"     .XXoo.oooooXXooooo.ooXX.     ",
"     .XXXo.oXoooXXoooXo.oXXX.     ",
"    .XXXXX.oXooooooooXo.XXXXX.    ",
"    .ooooo.X.oooooooo.X.ooooo.    ",
"   .XX.XXo..oooooooooo..oXX.XX.   ",
"  .XXX.XXX..XooXooXooX..XXX.XXX.  ",
" .XXX.XXX....XXX..XXX....XXX.XXX. ",
" .XX.XXXX. ..XX....XX.. .XXXX.XX. ",
"  .......   ....  ....   .......  ",
"                                  "
};
