/* XPM */
static char *_1650738436[] = {
/* columns rows colors chars-per-pixel */
"31 34 11 1 ",
"  c None",
". c #402040",
"X c #802000",
"o c #E02000",
"O c #E06000",
"+ c #E0A040",
"@ c #E0E040",
"# c #404080",
"$ c #4080C0",
"% c #808080",
"& c #C0C0C0",
/* pixels */
"                         .     ",
"                          .    ",
"                 .             ",
"   ..           .              ",
"  .             .              ",
"               .. .            ",
"            .  .X..   .        ",
"           .X. .XX.   .        ",
"       .   .o.  .oX.  X.       ",
"       .. .XoX. .XoX. XX.      ",
"       .. .oooX...Xo.  XX      ",
"      ... .oooX..Xoo. XoX      ",
"      ... .XooX.XoOoX.XoX      ",
"      ..X. XOX.XOO+OoXOo.      ",
"       .oX.XOoXoO++OOOoX.      ",
"       .XoXoOooO+@++OoX.  X    ",
"       .XooO+OO++@++OoX. X     ",
"       .XoO++++@@++@+OoXXX     ",
"      .XoO++@+@@@+@+++OoX      ",
"      .XX....O+@++O....XX.     ",
"      .oo.$&$.+@@+.$&$.oX.     ",
"      .oo.#$..+@@+..$#.oX.     ",
"      .XoO###.+@@+.###OoX.     ",
"       .o.OO++++++++OO.o.      ",
"       .X..%OOO++OOO%..X.      ",
"        .X&..&....&..&X.       ",
"        XXXXo%oooo%oXXX.       ",
"      XXooX..........XoXX      ",
"    ..XoOOX.        .XOOoX     ",
"      .oOo.          .oOOoX    ",
"     .XOoX.          .XX....   ",
"    ...XX.            ..       ",
"       ..               .      ",
"      .                        "
};
