/* XPM */
static char *_1650738437[] = {
/* columns rows colors chars-per-pixel */
"31 34 11 1 ",
"  c None",
". c #402040",
"X c #802000",
"o c #E02000",
"O c #E06000",
"+ c #E0A040",
"@ c #E0E040",
"# c #404080",
"$ c #4080C0",
"% c #808080",
"& c #C0C0C0",
/* pixels */
"                .              ",
"                               ",
"                               ",
"                .              ",
"               ....   ...      ",
"           ..   .X.. .XX..     ",
"           ...   .X. .X.       ",
"    ....  ..XX.   .X...        ",
"      .X. ..XX. ..X.....       ",
"      .XX. ..XX..XX.  ..       ",
"      .XX.   XX.XX.    X.      ",
"       .X..  .XXXo.    X.      ",
"       .X.   .XoooXX  .X.      ",
"       ...  .XoOOOooXXXX     . ",
"        .XXXXoO+++OOoooX    .  ",
"        .XoooO++@+++OOoX.      ",
"       .XoOOO++@@@@+++OoX.     ",
"       .XoO+++@@@@@+@++OoX.    ",
"       .XoO+@++@@++@@@+OoX.    ",
"      .XooO+@+@@@+@@@@+OoX.    ",
"      .XX....O+@++O....XX.     ",
"      .Xo.$&$.+@@+.$&$.oX.     ",
"      .oo.#$..+@@+..$#.oX.     ",
"      .XoO###.+@@+.###OoX.     ",
"       .o.OO++++++++OO.o.      ",
"       .X..%OOO++OOO%..X.      ",
"        .X&..&....&..&X.       ",
"        XXXXo%oooo%oXXX.       ",
"    .....XoX........XooX..     ",
"      .XoOX.        XOOoX .    ",
"      XoOoX.        .XoOoX.    ",
"    .XoOoX.          ..XX.     ",
"     .....             ...     ",
"                               "
};
