/* XPM */
static char *Wall31650738130[] = {
/* columns rows colors chars-per-pixel */
"34 31 4 1 ",
"  c #2E6E62",
". c #8CFADE",
"X c #7CDEC5",
"o c white",
/* pixels */
"   . .      .       . .      .    ",
"   ...      .       ...      .    ",
"                                  ",
"                                  ",
"                                  ",
"           XXX              XXX   ",
"    X      X X       X      X X   ",
"    X      . .       X      . .   ",
"    .      . .       .      . .   ",
"    .      ...       .      ...   ",
"                                  ",
"                                  ",
"                                  ",
"   XXX              XXX           ",
"   X X      X       X X      X    ",
"   . .      X       . .      X    ",
"   . .      .       . .      .    ",
"   ...      .       ...      .    ",
"                                  ",
"                                  ",
"                                  ",
"           XXX              XXX   ",
"    X      X X       X      X X   ",
"    X      . .       X      . .   ",
"    .      . .       .      . .   ",
"    .      ...       .      ...   ",
"                                  ",
"                                  ",
"                                  ",
"   XXX              XXX           ",
"   X X      X       X X      X    "
};
