/* XPM */
static char *Wall11650738130[] = {
/* columns rows colors chars-per-pixel */
"34 31 4 1 ",
"  c #2E6E62",
". c #7CDEC5",
"X c #8CFADE",
"o c white",
/* pixels */
"    .      . .       .      . .   ",
"    .      X X       .      X X   ",
"    X      X X       X      X X   ",
"    X      XXX       X      XXX   ",
"                                  ",
"                                  ",
"   ...              ...           ",
"   . .      .       . .      .    ",
"   X X      .       X X      .    ",
"   X X      X       X X      X    ",
"   XXX      X       XXX      X    ",
"                                  ",
"                                  ",
"                                  ",
"           ...              ...   ",
"    .      . .       .      . .   ",
"    .      X X       .      X X   ",
"    X      X X       X      X X   ",
"    X      XXX       X      XXX   ",
"                                  ",
"                                  ",
"   ...              ...           ",
"   . .      .       . .      .    ",
"   X X      .       X X      .    ",
"   X X      X       X X      X    ",
"   XXX      X       XXX      X    ",
"                                  ",
"                                  ",
"                                  ",
"           ...              ...   ",
"    .      . .       .      . .   "
};
