/* XPM */
static char *w11652357636[] = {
/* columns rows colors chars-per-pixel */
"68 62 4 1 ",
"  c #2E6E62",
". c #7CDEC5",
"X c #8CFADE",
"o c white",
/* pixels */
"        ..            ..  ..              ..            ..  ..      ",
"        ..            ..  ..              ..            ..  ..      ",
"        ..            XX  XX              ..            XX  XX      ",
"        ..            XX  XX              ..            XX  XX      ",
"        XX            XX  XX              XX            XX  XX      ",
"        XX            XX  XX              XX            XX  XX      ",
"        XX            XXXXXX              XX            XXXXXX      ",
"        XX            XXXXXX              XX            XXXXXX      ",
"                                                                    ",
"                                                                    ",
"                                                                    ",
"                                                                    ",
"      ......                            ......                      ",
"      ......                            ......                      ",
"      ..  ..            ..              ..  ..            ..        ",
"      ..  ..            ..              ..  ..            ..        ",
"      XX  XX            ..              XX  XX            ..        ",
"      XX  XX            ..              XX  XX            ..        ",
"      XX  XX            XX              XX  XX            XX        ",
"      XX  XX            XX              XX  XX            XX        ",
"      XXXXXX            XX              XXXXXX            XX        ",
"      XXXXXX            XX              XXXXXX            XX        ",
"                                                                    ",
"                                                                    ",
"                                                                    ",
"                                                                    ",
"                                                                    ",
"                                                                    ",
"                      ......                            ......      ",
"                      ......                            ......      ",
"        ..            ..  ..              ..            ..  ..      ",
"        ..            ..  ..              ..            ..  ..      ",
"        ..            XX  XX              ..            XX  XX      ",
"        ..            XX  XX              ..            XX  XX      ",
"        XX            XX  XX              XX            XX  XX      ",
"        XX            XX  XX              XX            XX  XX      ",
"        XX            XXXXXX              XX            XXXXXX      ",
"        XX            XXXXXX              XX            XXXXXX      ",
"                                                                    ",
"                                                                    ",
"                                                                    ",
"                                                                    ",
"      ......                            ......                      ",
"      ......                            ......                      ",
"      ..  ..            ..              ..  ..            ..        ",
"      ..  ..            ..              ..  ..            ..        ",
"      XX  XX            ..              XX  XX            ..        ",
"      XX  XX            ..              XX  XX            ..        ",
"      XX  XX            XX              XX  XX            XX        ",
"      XX  XX            XX              XX  XX            XX        ",
"      XXXXXX            XX              XXXXXX            XX        ",
"      XXXXXX            XX              XXXXXX            XX        ",
"                                                                    ",
"                                                                    ",
"                                                                    ",
"                                                                    ",
"                                                                    ",
"                                                                    ",
"                      ......                            ......      ",
"                      ......                            ......      ",
"        ..            ..  ..              ..            ..  ..      ",
"        ..            ..  ..              ..            ..  ..      "
};
