/* XPM */
static char *w31652357637[] = {
/* columns rows colors chars-per-pixel */
"68 62 4 1 ",
"  c #2E6E62",
". c #8CFADE",
"X c #7CDEC5",
"o c white",
/* pixels */
"      ..  ..            ..              ..  ..            ..        ",
"      ..  ..            ..              ..  ..            ..        ",
"      ......            ..              ......            ..        ",
"      ......            ..              ......            ..        ",
"                                                                    ",
"                                                                    ",
"                                                                    ",
"                                                                    ",
"                                                                    ",
"                                                                    ",
"                      XXXXXX                            XXXXXX      ",
"                      XXXXXX                            XXXXXX      ",
"        XX            XX  XX              XX            XX  XX      ",
"        XX            XX  XX              XX            XX  XX      ",
"        XX            ..  ..              XX            ..  ..      ",
"        XX            ..  ..              XX            ..  ..      ",
"        ..            ..  ..              ..            ..  ..      ",
"        ..            ..  ..              ..            ..  ..      ",
"        ..            ......              ..            ......      ",
"        ..            ......              ..            ......      ",
"                                                                    ",
"                                                                    ",
"                                                                    ",
"                                                                    ",
"                                                                    ",
"                                                                    ",
"      XXXXXX                            XXXXXX                      ",
"      XXXXXX                            XXXXXX                      ",
"      XX  XX            XX              XX  XX            XX        ",
"      XX  XX            XX              XX  XX            XX        ",
"      ..  ..            XX              ..  ..            XX        ",
"      ..  ..            XX              ..  ..            XX        ",
"      ..  ..            ..              ..  ..            ..        ",
"      ..  ..            ..              ..  ..            ..        ",
"      ......            ..              ......            ..        ",
"      ......            ..              ......            ..        ",
"                                                                    ",
"                                                                    ",
"                                                                    ",
"                                                                    ",
"                                                                    ",
"                                                                    ",
"                      XXXXXX                            XXXXXX      ",
"                      XXXXXX                            XXXXXX      ",
"        XX            XX  XX              XX            XX  XX      ",
"        XX            XX  XX              XX            XX  XX      ",
"        XX            ..  ..              XX            ..  ..      ",
"        XX            ..  ..              XX            ..  ..      ",
"        ..            ..  ..              ..            ..  ..      ",
"        ..            ..  ..              ..            ..  ..      ",
"        ..            ......              ..            ......      ",
"        ..            ......              ..            ......      ",
"                                                                    ",
"                                                                    ",
"                                                                    ",
"                                                                    ",
"                                                                    ",
"                                                                    ",
"      XXXXXX                            XXXXXX                      ",
"      XXXXXX                            XXXXXX                      ",
"      XX  XX            XX              XX  XX            XX        ",
"      XX  XX            XX              XX  XX            XX        "
};
