/* XPM */
static char *_1652357746[] = {
/* columns rows colors chars-per-pixel */
"62 68 11 1 ",
"  c None",
". c #402040",
"X c #802000",
"o c #E02000",
"O c #E06000",
"+ c #E0A040",
"@ c #E0E040",
"# c #404080",
"$ c #4080C0",
"% c #808080",
"& c #C0C0C0",
/* pixels */
"                                                              ",
"                                                              ",
"                              ....                            ",
"                              ....                            ",
"                              ..                              ",
"                              ..                              ",
"                                                              ",
"                                                              ",
"                              ......                          ",
"                              ......                          ",
"                      ......    ........    ......            ",
"                      ......    ........    ......            ",
"                    ....XX        ..XX........                ",
"                    ....XX        ..XX........                ",
"                    ..XXXX..      ..XXXX....XX..              ",
"                    ..XXXX..      ..XXXX....XX..              ",
"            ..    ..XXooXX....  ....XXooXX..XX..              ",
"            ..    ..XXooXX....  ....XXooXX..XX..              ",
"            ....  ..XXooooXX....XXXXooXXXX..XXXX..            ",
"            ....  ..XXooooXX....XXXXooXXXX..XXXX..            ",
"            ..XX....XXooooXX..XXooooOOXX..XXooXX..            ",
"            ..XX....XXooooXX..XXooooOOXX..XXooXX..            ",
"            ..XXXX....XXOOooXXooOOOOooooXXXXooXX..            ",
"            ..XXXX....XXOOooXXooOOOOooooXXXXooXX..            ",
"              ..XX..  XXooOOooOO++OOooXX  XXooXX..            ",
"              ..XX..  XXooOOooOO++OOooXX  XXooXX..            ",
"              ..oo..  XXooOOOO++++++OOooXXooOOXX        ..    ",
"              ..oo..  XXooOOOO++++++OOooXXooOOXX        ..    ",
"              ..ooXX..XXoo++OO++@@oo++OOOO++OOXX        ..    ",
"              ..ooXX..XXoo++OO++@@oo++OOOO++OOXX        ..    ",
"              ..ooooXXooOO++++++@@@@++++++OOooXX..    ..      ",
"              ..ooooXXooOO++++++@@@@++++++OOooXX..    ..      ",
"            ..XXooOOooOO++++++@@@@@@++++++OOooooXX..          ",
"            ..XXooOOooOO++++++@@@@@@++++++OOooooXX..          ",
"            ..XXooOOOO++++++++@@@@++++@@++OOooooXX..          ",
"            ..XXooOOOO++++++++@@@@++++@@++OOooooXX..          ",
"            ..XXooOO++++@@++@@@@@@++@@++++++OOooooXX..        ",
"            ..XXooOO++++@@++@@@@@@++@@++++++OOooooXX..        ",
"            ..XXXX........OO++@@++++OO........XXooXX..        ",
"            ..XXXX........OO++@@++++OO........XXooXX..        ",
"            ..oooo..$$&&$$..++@@@@++..$$&&$$..ooooXX..        ",
"            ..oooo..$$&&$$..++@@@@++..$$&&$$..ooooXX..        ",
"            ..oooo..##$$....++@@@@++....$$##..ooXX..          ",
"            ..oooo..##$$....++@@@@++....$$##..ooXX..          ",
"            ..XXooOO######..++@@@@++..######OOooXX..          ",
"            ..XXooOO######..++@@@@++..######OOooXX..          ",
"              ..oo..OOOO++++++++++++++++OOOO..oo..            ",
"              ..oo..OOOO++++++++++++++++OOOO..oo..            ",
"              ..XX....%%OOOOOO++++OOOOOO%%....XX..            ",
"              ..XX....%%OOOOOO++++OOOOOO%%....XX..            ",
"                ..XX&&....&&........&&....&&XX..              ",
"                ..XX&&....&&........&&....&&XX..              ",
"                XXXXXXXXoo%%oooooooo%%ooXXXXXX..              ",
"                XXXXXXXXoo%%oooooooo%%ooXXXXXX..              ",
"        ..........XXooXX................XXXXooXXXX....        ",
"        ..........XXooXX................XXXXooXXXX....        ",
"          XXooOOOOOOXX..                ..XXOOOOooXX          ",
"          XXooOOOOOOXX..                ..XXOOOOooXX          ",
"        ....XXooOOoo..                    ..XXooOOooXX..      ",
"        ....XXooOOoo..                    ..XXooOOooXX..      ",
"        ..  XXooXXXX..                      ..XXXX....        ",
"        ..  XXooXXXX..                      ..XXXX....        ",
"          ..XXXX....                          ....            ",
"          ..XXXX....                          ....            ",
"            ....                                  ..          ",
"            ....                                  ..          ",
"                                                              ",
"                                                              "
};
