/* XPM */
static char *_1652357746[] = {
/* columns rows colors chars-per-pixel */
"62 68 11 1 ",
"  c None",
". c #402040",
"X c #802000",
"o c #E02000",
"O c #E06000",
"+ c #E0A040",
"@ c #E0E040",
"# c #404080",
"$ c #4080C0",
"% c #808080",
"& c #C0C0C0",
/* pixels */
"                                                              ",
"                                                              ",
"                                                              ",
"                                                              ",
"                                ......        ....            ",
"                                ......        ....            ",
"                                    ..      ........          ",
"                                    ..      ........          ",
"                    ......      ........          ....        ",
"                    ......      ........          ....        ",
"                      ......    ..        ..                  ",
"                      ......    ..        ..                  ",
"        ......        ....XX..      ....    ..                ",
"        ......        ....XX..      ....    ..                ",
"      ..........        ..XX..    ......      ..              ",
"      ..........        ..XX..    ......      ..              ",
"      ..    ......      ..XX    ..XXXX..      ....            ",
"      ..    ......      ..XX    ..XXXX..      ....            ",
"                ..    ....XX    ..XXooXX..  ..XX..            ",
"                ..    ....XX    ..XXooXX..  ..XX..            ",
"                    ..XXXX..      XXooooXX..XXXX..            ",
"                    ..XXXX..      XXooooXX..XXXX..            ",
"                  ..XXoooo..    ..XXOOooXX..XXXX              ",
"                  ..XXoooo..    ..XXOOooXX..XXXX              ",
"                ....XXooooXX....XXoo++OOooXX......            ",
"                ....XXooooXX....XXoo++OOooXX......            ",
"              ..    XXooOOooXX..XXoo++++OOooXXXXXX..          ",
"              ..    XXooOOooXX..XXoo++++OOooXXXXXX..          ",
"              ..    XXooOOOOooXXooOO++@@++OOooooXX..          ",
"              ..    XXooOOOOooXXooOO++@@++OOooooXX..          ",
"              ....XXooOO++OOOOooOO++@@@@++++OOOOooXX          ",
"              ....XXooOO++OOOOooOO++@@@@++++OOOOooXX          ",
"              ..XXooOO++++++++OO++@@@@@@@@++++OOXX            ",
"              ..XXooOO++++++++OO++@@@@@@@@++++OOXX            ",
"              ..XXOO++++@@++++++++@@@@@@@@++OOooXX            ",
"              ..XXOO++++@@++++++++@@@@@@@@++OOooXX            ",
"              ..XXOO++++@@@@++@@@@@@++@@++++OOooXX..          ",
"              ..XXOO++++@@@@++@@@@@@++@@++++OOooXX..          ",
"            ..XXooOO++++@@++@@@@@@++++++++OOooooXX..          ",
"            ..XXooOO++++@@++@@@@@@++++++++OOooooXX..          ",
"            ..XXXX........OO++@@++++OO........XXXX..          ",
"            ..XXXX........OO++@@++++OO........XXXX..          ",
"            ..XXoo..$$&&$$..++@@@@++..$$&&$$..ooXX..          ",
"            ..XXoo..$$&&$$..++@@@@++..$$&&$$..ooXX..          ",
"            ..XXoo..##$$....++@@@@++....$$##..ooXX..          ",
"            ..XXoo..##$$....++@@@@++....$$##..ooXX..          ",
"            ..XXooOO######..++@@@@++..######OOooXX..          ",
"            ..XXooOO######..++@@@@++..######OOooXX..          ",
"              ..oo..OOOO++++++++++++++++OOOO..oo..            ",
"              ..oo..OOOO++++++++++++++++OOOO..oo..            ",
"              ..XX....%%OOOOOO++++OOOOOO%%....XX..            ",
"              ..XX....%%OOOOOO++++OOOOOO%%....XX..            ",
"                ..XX&&....&&........&&....&&XX..              ",
"                ..XX&&....&&........&&....&&XX..              ",
"                XXXXXXXXoo%%oooooooo%%ooXXXXXXXX              ",
"                XXXXXXXXoo%%oooooooo%%ooXXXXXXXX              ",
"            XXXXooOOooXX................XXooOOooXX  ..        ",
"            XXXXooOOooXX................XXooOOooXX  ..        ",
"          XXooOOOOooXX..                ..XXooOOooXX..        ",
"          XXooOOOOooXX..                ..XXooOOooXX..        ",
"          XXOOXXooXX..                  ..XXooooOOoo..        ",
"          XXOOXXooXX..                  ..XXooooOOoo..        ",
"        ..XXXX..XX..                    ..XXXXXX......        ",
"        ..XXXX..XX..                    ..XXXXXX......        ",
"          ....  ..                        ....  ..            ",
"          ....  ..                        ....  ..            ",
"                                                              ",
"                                                              "
};
