/* XPM */
static char *k1652357746[] = {
/* columns rows colors chars-per-pixel */
"62 68 7 1 ",
"  c None",
". c #402040",
"X c #802000",
"o c #E02000",
"O c #E06000",
"+ c #E0A040",
"@ c #E0E040",
/* pixels */
"              ..                                              ",
"              ..                                              ",
"              ..                                    ....      ",
"              ..                                    ....      ",
"                                                      ....    ",
"                                                      ....    ",
"                                  XXXX                XX..    ",
"                                  XXXX                XX..    ",
"                                XXooOOXX..          ..XX..    ",
"                                XXooOOXX..          ..XX..    ",
"                              ..XXOO++ooXX..        ..XX..    ",
"                              ..XXOO++ooXX..        ..XX..    ",
"                    ....      XXoo++@@OOooXX..        ..      ",
"                    ....      XXoo++@@OOooXX..        ..      ",
"                  ..XX..  ....XXOO@@@@++ooXX..                ",
"                  ..XX..  ....XXOO@@@@++ooXX..                ",
"                ..XXooXX..XXXXooOO@@@@@@OOoo..                ",
"                ..XXooXX..XXXXooOO@@@@@@OOoo..                ",
"                ..XXooXX..XXXXooOO@@@@@@++ooXX..              ",
"                ..XXooXX..XXXXooOO@@@@@@++ooXX..              ",
"                ..XXOOooXXXXXXooOO++@@@@++oooo..              ",
"                ..XXOOooXXXXXXooOO++@@@@++oooo..              ",
"              ..XXXX++OOXXXXXXXXooOO++++++ooOOXX..            ",
"              ..XXXX++OOXXXXXXXXooOO++++++ooOOXX..            ",
"              ..ooOO@@OOooXXXXXXXXooOOOO++ooOOooXXXX..        ",
"              ..ooOO@@OOooXXXXXXXXooOOOO++ooOOooXXXX..        ",
"            ..XXOO++@@++OOooXX....XXooOO++ooOOooooXXXX..      ",
"            ..XXOO++@@++OOooXX....XXooOO++ooOOooooXXXX..      ",
"            ..XXOO@@@@++++oo..    ..oooo++OO++ooOOooXX....    ",
"            ..XXOO@@@@++++oo..    ..oooo++OO++ooOOooXX....    ",
"            ..oo++@@@@OO++oo..    ..XXoo++++@@OO++OOooXX..    ",
"            ..oo++@@@@OO++oo..    ..XXoo++++@@OO++OOooXX..    ",
"            ..ooOO++@@ooOOXX..    ..XXOO++++@@OO@@++OOXX..    ",
"            ..ooOO++@@ooOOXX..    ..XXOO++++@@OO@@++OOXX..    ",
"            ..XXooOO++ooOOXX..  ..XXooOO++@@@@++@@@@++ooXX..  ",
"            ..XXooOO++ooOOXX..  ..XXooOO++@@@@++@@@@++ooXX..  ",
"              ..XXooOOoooooo..  ..ooOO++@@@@@@@@@@@@@@ooXX..  ",
"              ..XXooOOoooooo..  ..ooOO++@@@@@@@@@@@@@@ooXX..  ",
"              ..XXooOOooOOooXX..XXooOO++@@@@@@@@++@@++ooXX..  ",
"              ..XXooOOooOOooXX..XXooOO++@@@@@@@@++@@++ooXX..  ",
"              ..ooOOoooo++OOooXXooOOOO++++@@@@@@OO++OOoo..    ",
"              ..ooOOoooo++OOooXXooOOOO++++@@@@@@OO++OOoo..    ",
"            ..XXooOOooOO++++OOooOO++++++OO++@@@@++OOooXX      ",
"            ..XXooOOooOO++++OOooOO++++++OO++@@@@++OOooXX      ",
"            ..XXooOOooOO++++++OO++@@@@++ooOO++++OOooXX....    ",
"            ..XXooOOooOO++++++OO++@@@@++ooOO++++OOooXX....    ",
"          ..XX..XXooXXoo++++++OO@@@@@@++ooooOOOOoooo..  ..    ",
"          ..XX..XXooXXoo++++++OO@@@@@@++ooooOOOOoooo..  ..    ",
"        ..XXoo....XXXXXXOO++++++++@@++@@oooooooooooo..  ..    ",
"        ..XXoo....XXXXXXOO++++++++@@++@@oooooooooooo..  ..    ",
"      ....OOoo......XXXXooOO++++++++OO++OOooooooooOO....XX..  ",
"      ....OOoo......XXXXooOO++++++++OO++OOooooooooOO....XX..  ",
"      ..XX++oo..    ..XXXXoo++OOOO++++@@@@oooooooo++..XXooXX..",
"      ..XX++oo..    ..XXXXoo++OOOO++++@@@@oooooooo++..XXooXX..",
"      ..XX@@OOXX..    ..XXoo++ooooOO@@@@OOooXXXXooOO..ooOOoo..",
"      ..XX@@OOXX..    ..XXoo++ooooOO@@@@OOooXXXXooOO..ooOOoo..",
"      ..XX@@++XX..    ..ooooOOooooooOOOOooXX....XXooXXOO++oo..",
"      ..XX@@++XX..    ..ooooOOooooooOOOOooXX....XXooXXOO++oo..",
"        XXoo@@XX..    ..XXooOOooXXXXooooXX....  ..XX..ooOOXX..",
"        XXoo@@XX..    ..XXooOOooXXXXooooXX....  ..XX..ooOOXX..",
"        ..XXXX..        ..XXooXX........XX....    ....XXoo..  ",
"        ..XXXX..        ..XXooXX........XX....    ....XXoo..  ",
"          ....            ......      ..XXXX..      ......    ",
"          ....            ......      ..XXXX..      ......    ",
"                                        ..XX..                ",
"                                        ..XX..                ",
"                                          ..                  ",
"                                          ..                  "
};
