/* XPM */
static char *Flamemon1650735428[] = {
/* columns rows colors chars-per-pixel */
"155 34 11 1 ",
"  c None",
". c #402040",
"X c #802000",
"o c #E02000",
"O c #E06000",
"+ c #E0A040",
"@ c #E0E040",
"# c #404080",
"$ c #4080C0",
"% c #808080",
"& c #C0C0C0",
/* pixels */
"                         .                                                    .                                                                            ",
"                          .                   ..                                                                                                           ",
"                 .                            .                                                              ...    ..                                     ",
"   ..           .                                                             .                                .   ....                     .              ",
"  .             .                             ...                            ....   ...                ...   ....     ..               ...   .             ",
"               .. .                       ...  ....  ...                 ..   .X.. .XX..                ...  .    .                    ..X.. ...           ",
"            .  .X..   .                  ..X    .X....                   ...   .X. .X.           ...    ..X.   ..  .                    .XoX..XX.          ",
"           .X. .XX.   .                  .XX.   .XX..X.           ....  ..XX.   .X...           .....    .X.  ...   .           .....X  ..XoX..oXX         ",
"       .   .o.  .oX.  X.             .  .XoX.. ..XoX.X.             .X. ..XX. ..X.....          .  ...   .X  .XX.   ..        ...XXX...XX.XoooXooX         ",
"       .. .XoX. .XoX. XX.            .. .XooX..XXoXX.XX.            .XX. ..XX..XX.  ..               .  ..X  .XoX. .X.           ...XooooXXoOooXooX        ",
"       .. .oooX...Xo.  XX            .X..XooX.XooOX.XoX.            .XX.   XX.XX.    X.                .XX.   XooX.XX.             ..XXoOOXXoOoXoOoX       ",
"      ... .oooX..Xoo. XoX            .XX..XOoXoOOooXXoX.             .X..  .XXXo.    X.               .Xoo.  .XOoX.XX             XXX.XXoOOooO+OXOoX       ",
"      ... .XooX.XoOoX.XoX             .X. XoOoO+OoX XoX.             .X.   .XoooXX  .X.              ..XooX..Xo+OoX...          XXooXXooOoOOOO+OoOOoX      ",
"      ..X. XOX.XOO+OoXOo.             .o. XoOO+++OoXoOX    .         ...  .XoOOOooXXXX     .        .  XoOoX.Xo++OoXXX.        ....XooOOOoO+OO++oOOoX      ",
"       .oX.XOoXoO++OOOoX.             .oX.Xo+O+@o+OO+OX    .          .XXXXoO+++OOoooX    .         .  XoOOoXoO+@+OooX.            .XXoO+OO++O++O++OoX     ",
"       .XoXoOooO+@++OoX.  X           .ooXoO+++@@+++OoX.  .           .XoooO++@+++OOoX.             ..XoO+OOoO+@@++OOoX             .XXoO+O++O++O++OoX     ",
"       .XooO+OO++@++OoX. X           .XoOoO+++@@@+++OooX.            .XoOOO++@@@@+++OoX.            .XoO++++O+@@@@++OX              .XXoO+O+++++++++oX     ",
"       .XoO++++@@++@+OoXXX           .XoOO++++@@++@+OooX.            .XoO+++@@@@@+@++OoX.           .XO++@++++@@@@+OoX              .XXoO+++++++++++oXX    ",
"      .XoO++@+@@@+@+++OoX            .XoO++@+@@@+@+++OooX.           .XoO+@++@@++@@@+OoX.           .XO++@@+@@@+@++OoX.             .XoO++++@@+++++oooX    ",
"      .XX....O+@++O....XX.           .XX....O+@++O....XoX.          .XooO+@+@@@+@@@@+OoX.          .XoO++@+@@@++++OooX.            .XoO++++@@@+@+++OooX    ",
"      .oo.$&$.+@@+.$&$.oX.           .oo.$&$.+@@+.$&$.ooX.          .XX....O+@++O....XX.           .XX....O+@++O....XX.            .XX....O+@@@O....XoX    ",
"      .oo.#$..+@@+..$#.oX.           .oo.#$..+@@+..$#.oX.           .Xo.$&$.+@@+.$&$.oX.           .Xo.$&$.+@@+.$&$.oX.            .oo.$&$.@@@@.$&$.oo.    ",
"      .XoO###.+@@+.###OoX.           .XoO###.+@@+.###OoX.           .oo.#$..+@@+..$#.oX.           .Xo.#$..+@@+..$#.oX.            .oo.#$..@@@+..$#.oX.    ",
"       .o.OO++++++++OO.o.             .o.OO++++++++OO.o.            .XoO###.+@@+.###OoX.           .XoO###.+@@+.###OoX.            .XoO###.@@@+.###OoX.    ",
"       .X..%OOO++OOO%..X.             .X..%OOO++OOO%..X.             .o.OO++++++++OO.o.             .o.OO++++++++OO.o.              .o.OO++++++++OO.o.     ",
"        .X&..&....&..&X.               .X&..&....&..&X.              .X..%OOO++OOO%..X.             .X..%OOO++OOO%..X.              .X..%OOO++OOO%..X.     ",
"        XXXXo%oooo%oXXX.               XXXXo%oooo%oXXX.               .X&..&....&..&X.               .X&..&....&..&X.                .X&..&....&..&X.      ",
"      XXooX..........XoXX          .....XoX........XXoXX..            XXXXo%oooo%oXXX.               XXXXo%oooo%oXXXX                XXXXo%oooo%oXXX.   .  ",
"    ..XoOOX.        .XOOoX          XoOOOX.        .XOOoX         .....XoX........XooX..           XXoOoX........XoOoX .            XooX..........XoXX  .  ",
"      .oOo.          .oOOoX        ..XoOo.          .XoOoX.         .XoOX.        XOOoX .         XoOOoX.        .XoOoX.        .  XoOOX.        .XOOoX..  ",
"     .XOoX.          .XX....       . XoXX.           .XX..          XoOoX.        .XoOoX.         XOXoX.         .XooOo.        . X.oOo.          .oOoX.   ",
"    ...XX.            ..            .XX..             ..          .XoOoX.          ..XX.         .XX.X.          .XXX...         ..XOoX.          .XX..    ",
"       ..               .            ..                 .          .....             ...          .. .            .. .            .....            ..      ",
"      .                                                                                                                                                    "
};
