/* XPM */
static char *A11652358282[] = {
/* columns rows colors chars-per-pixel */
"68 62 5 1 ",
"  c None",
". c black",
"X c #300000",
"o c #60B050",
"O c #E0E0C0",
/* pixels */
"                                                                    ",
"                                                                    ",
"                                                                    ",
"                                                                    ",
"                                                                    ",
"                                                                    ",
"                    XXXX    XXXXXXXXXXXXXXXX                        ",
"                    XXXX    XXXXXXXXXXXXXXXX                        ",
"                  XXOOooXXXXOOOOOOOOOOOOOOOOXX                      ",
"                  XXOOooXXXXOOOOOOOOOOOOOOOOXX                      ",
"                  XXooOOOOooOOOOOOOOOOOOOOOOOOXX                    ",
"                  XXooOOOOooOOOOOOOOOOOOOOOOOOXX                    ",
"                    XXooOOOOOOOOOOOOOOOOOOOOOOOOXX                  ",
"                    XXooOOOOOOOOOOOOOOOOOOOOOOOOXX                  ",
"                    XXOOOOOOOOOOOOOOOOOOOOOOOOOOXX                  ",
"                    XXOOOOOOOOOOOOOOOOOOOOOOOOOOXX                  ",
"                    XXOOOOOOOOOOXXOOOOOOOOOOXXOOOOXX                ",
"                    XXOOOOOOOOOOXXOOOOOOOOOOXXOOOOXX                ",
"                  XXOOOOOOOOOOOOXXOOOOOOOOOOOOXXOOXX                ",
"                  XXOOOOOOOOOOOOXXOOOOOOOOOOOOXXOOXX                ",
"                  XXOOOOOOOOOOOOXXOOOOOOOOOOOOXXOOXX                ",
"                  XXOOOOOOOOOOOOXXOOOOOOOOOOOOXXOOXX                ",
"                  XXOOOOOOOOOOOOXXOOOOOOOOOOOOXXOOXX                ",
"                  XXOOOOOOOOOOOOXXOOOOOOOOOOOOXXOOXX                ",
"                  XXOOOOXXXXOOOOXXOOOOOOOOOOOOXXOOXX                ",
"                  XXOOOOXXXXOOOOXXOOOOOOOOOOOOXXOOXX                ",
"                XXXXOOXXOOXXXXOOXXOOOOOOOOOOOOXXOOXX                ",
"                XXXXOOXXOOXXXXOOXXOOOOOOOOOOOOXXOOXX                ",
"                XXOOOOOOOOOOOOOOXXOOOOOOOOOOOOXXXX                  ",
"                XXOOOOOOOOOOOOOOXXOOOOOOOOOOOOXXXX                  ",
"                XXOOOOOOOOOOOOXXOOOOOOOOOOOOOOXXXX                  ",
"                XXOOOOOOOOOOOOXXOOOOOOOOOOOOOOXXXX                  ",
"                  XXOOOOOOOOOOXXOOOOOOOOOOOOOOXX                    ",
"                  XXOOOOOOOOOOXXOOOOOOOOOOOOOOXX                    ",
"                    XXooOOOOOOXXOOooooooOOOOOOOOXX                  ",
"                    XXooOOOOOOXXOOooooooOOOOOOOOXX                  ",
"                      XXooooooXXooooooooooooooooXX                  ",
"                      XXooooooXXooooooooooooooooXX                  ",
"                      XXXXXXXXXXooooooooooooooOOXX                  ",
"                      XXXXXXXXXXooooooooooooooOOXX                  ",
"                      XXooooooXXOOOOOOOOOOOOOOOOOOXX                ",
"                      XXooooooXXOOOOOOOOOOOOOOOOOOXX                ",
"                      XXooXXXXXXOOOOOOOOOOOOooooooXX                ",
"                      XXooXXXXXXOOOOOOOOOOOOooooooXX                ",
"                    XXooXXOOOOXXooooooooooooooooooXXXX              ",
"                    XXooXXOOOOXXooooooooooooooooooXXXX              ",
"                    XX..OOOOXXooooooooooooooooOOOOOOOOXX            ",
"                    XX..OOOOXXooooooooooooooooOOOOOOOOXX            ",
"                    XXooOOOOXXOOOOOOXXOOOOOOOOOOXXOOOOOOXXXXXX      ",
"                    XXooOOOOXXOOOOOOXXOOOOOOOOOOXXOOOOOOXXXXXX      ",
"                      XXOOOOXXOOOOooooXXOOOOOOooooXXOOOOOOooooXX    ",
"                      XXOOOOXXOOOOooooXXOOOOOOooooXXOOOOOOooooXX    ",
"                      XXooOOXXOOooooooooXXOOooooooooXXOOooooooooXX  ",
"                      XXooOOXXOOooooooooXXOOooooooooXXOOooooooooXX  ",
"                        XXooXXOOooooooooXXooooooooooooXXooooooooXX  ",
"                        XXooXXOOooooooooXXooooooooooooXXooooooooXX  ",
"                        XXooooXXooooooooXXooooooooooooXXooooooooXX  ",
"                        XXooooXXooooooooXXooooooooooooXXooooooooXX  ",
"                        XXXXXXXXXXXXXXXXXXXXXXXXXXXXXXXXXXXXXXXX    ",
"                        XXXXXXXXXXXXXXXXXXXXXXXXXXXXXXXXXXXXXXXX    ",
"                                                                    ",
"                                                                    "
};
