/* XPM */
static char *A21652358282[] = {
/* columns rows colors chars-per-pixel */
"68 62 5 1 ",
"  c None",
". c black",
"X c #300000",
"o c #60B050",
"O c #E0E0C0",
/* pixels */
"                                                                    ",
"                                                                    ",
"                                                                    ",
"                                                                    ",
"                  XXXX    XXXXXXXXXXXXXXXX                          ",
"                  XXXX    XXXXXXXXXXXXXXXX                          ",
"                XXOOooXXXXOOOOOOOOOOOOOOOOXX                        ",
"                XXOOooXXXXOOOOOOOOOOOOOOOOXX                        ",
"                XXooOOOOooOOOOOOOOOOOOOOOOOOXX                      ",
"                XXooOOOOooOOOOOOOOOOOOOOOOOOXX                      ",
"                  XXooOOOOOOOOOOOOOOOOOOOOOOOOXX                    ",
"                  XXooOOOOOOOOOOOOOOOOOOOOOOOOXX                    ",
"                  XXOOOOOOOOOOOOOOOOOOOOOOOOOOXX                    ",
"                  XXOOOOOOOOOOOOOOOOOOOOOOOOOOXX                    ",
"                  XXOOOOOOOOOOXXOOOOOOOOOOXXOOOOXX                  ",
"                  XXOOOOOOOOOOXXOOOOOOOOOOXXOOOOXX                  ",
"                XXOOOOOOOOOOOOXXOOOOOOOOOOOOXXOOXX                  ",
"                XXOOOOOOOOOOOOXXOOOOOOOOOOOOXXOOXX                  ",
"                XXOOOOOOOOOOOOXXOOOOOOOOOOOOXXOOXX                  ",
"                XXOOOOOOOOOOOOXXOOOOOOOOOOOOXXOOXX                  ",
"                XXOOOOXXXXOOOOXXOOOOOOOOOOOOXXOOXX                  ",
"                XXOOOOXXXXOOOOXXOOOOOOOOOOOOXXOOXX                  ",
"                XXOOXXOOXXXXOOXXOOOOOOOOOOOOXXOOXX                  ",
"                XXOOXXOOXXXXOOXXOOOOOOOOOOOOXXOOXX                  ",
"              XXXXOOXXXXooXXOOXXOOOOOOOOOOOOXXOOXX                  ",
"              XXXXOOXXXXooXXOOXXOOOOOOOOOOOOXXOOXX                  ",
"              XXOOOOOOXXXXOOOOXXOOOOOOOOOOOOXXXX                    ",
"              XXOOOOOOXXXXOOOOXXOOOOOOOOOOOOXXXX                    ",
"              XXOOOOOOOOOOOOXXOOOOOOOOOOOOOOXXXX                    ",
"              XXOOOOOOOOOOOOXXOOOOOOOOOOOOOOXXXX                    ",
"                XXOOOOOOOOOOXXOOOOOOOOOOOOOOXX                      ",
"                XXOOOOOOOOOOXXOOOOOOOOOOOOOOXX                      ",
"                  XXooOOOOOOXXOOooooooOOOOOOOOXX                    ",
"                  XXooOOOOOOXXOOooooooOOOOOOOOXX                    ",
"                    XXooooooXXooooooooooooooooXX                    ",
"                    XXooooooXXooooooooooooooooXX                    ",
"                    XXXXXXXXXXooooooooooooooOOXX                    ",
"                    XXXXXXXXXXooooooooooooooOOXX                    ",
"                      XXoooo..OOOOOOOOOOOOOOOOOO..                  ",
"                      XXoooo..OOOOOOOOOOOOOOOOOO..                  ",
"                      XXooXX..OOOOOOOOOOOOOOooooooXX                ",
"                      XXooXX..OOOOOOOOOOOOOOooooooXX                ",
"                    XXooXXOO..ooooooooooooooooooooXX                ",
"                    XXooXXOO..ooooooooooooooooooooXX                ",
"                    XXXXOOOOXXooooooooooooooooooooooXX              ",
"                    XXXXOOOOXXooooooooooooooooooooooXX              ",
"                    XXOOOOOOXXooooooooooooooooOOOOOOOOXX            ",
"                    XXOOOOOOXXooooooooooooooooOOOOOOOOXX            ",
"                    XXOOOOOOXXOOOOOOXXOOOOOOOOOOXXOOOOOOXXXXXX      ",
"                    XXOOOOOOXXOOOOOOXXOOOOOOOOOOXXOOOOOOXXXXXX      ",
"                    ..ooOOOOXXOOOOooooXXOOOOOOooooXXOOOOOOooooXX    ",
"                    ..ooOOOOXXOOOOooooXXOOOOOOooooXXOOOOOOooooXX    ",
"                    ..oooo..XXOOooooooooXXOOooooooooXXOOooooooooXX  ",
"                    ..oooo..XXOOooooooooXXOOooooooooXXOOooooooooXX  ",
"                  ..oooo....XXOOooooooooXXooooooooooooXXooooooooXX  ",
"                  ..oooo....XXOOooooooooXXooooooooooooXXooooooooXX  ",
"                ..oooo....oo..XXooooooooXXooooooooooooXXooooooooXX  ",
"                ..oooo....oo..XXooooooooXXooooooooooooXXooooooooXX  ",
"                ......  XXXXXXXXXXXXXXXXXXXXXXXXXXXXXXXXXXXXXXXX    ",
"                ......  XXXXXXXXXXXXXXXXXXXXXXXXXXXXXXXXXXXXXXXX    ",
"                                                                    ",
"                                                                    "
};
