/* XPM */
static char *A31652358282[] = {
/* columns rows colors chars-per-pixel */
"68 62 5 1 ",
"  c None",
". c black",
"X c #300000",
"o c #60B050",
"O c #E0E0C0",
/* pixels */
"                                                                    ",
"                                                                    ",
"                                                                    ",
"                                                                    ",
"                                                                    ",
"                                                                    ",
"                  XXXX    XXXXXXXXXXXXXXXX                          ",
"                  XXXX    XXXXXXXXXXXXXXXX                          ",
"                XXOOooXXXXOOOOOOOOOOOOOOOOXX                        ",
"                XXOOooXXXXOOOOOOOOOOOOOOOOXX                        ",
"                XXooOOOOooOOOOOOOOOOOOOOOOOOXX                      ",
"                XXooOOOOooOOOOOOOOOOOOOOOOOOXX                      ",
"                  XXooOOOOOOOOOOOOOOOOOOOOOOOOXX                    ",
"                  XXooOOOOOOOOOOOOOOOOOOOOOOOOXX                    ",
"                  XXOOOOOOOOOOOOOOOOOOOOOOOOOOXX                    ",
"                  XXOOOOOOOOOOOOOOOOOOOOOOOOOOXX                    ",
"                  XXOOOOOOOOOOXXOOOOOOOOOOXXOOOOXX                  ",
"                  XXOOOOOOOOOOXXOOOOOOOOOOXXOOOOXX                  ",
"                XXOOOOOOOOOOOOXXOOOOOOOOOOOOXXOOXX                  ",
"                XXOOOOOOOOOOOOXXOOOOOOOOOOOOXXOOXX                  ",
"                XXOOOOOOOOOOOOXXOOOOOOOOOOOOXXOOXX                  ",
"                XXOOOOOOOOOOOOXXOOOOOOOOOOOOXXOOXX                  ",
"                XXOOOOXXXXOOOOXXOOOOOOOOOOOOXXOOXX                  ",
"                XXOOOOXXXXOOOOXXOOOOOOOOOOOOXXOOXX                  ",
"                XXOOXXOOXXXXOOXXOOOOOOOOOOOOXXOOXX                  ",
"                XXOOXXOOXXXXOOXXOOOOOOOOOOOOXXOOXX                  ",
"              XXXXOOXXXXooXXOOXXOOOOOOOOOOOOXXOOXX                  ",
"              XXXXOOXXXXooXXOOXXOOOOOOOOOOOOXXOOXX                  ",
"              XXOOOOOOXXXXOOOOXXOOOOOOOOOOOOXXXX                    ",
"              XXOOOOOOXXXXOOOOXXOOOOOOOOOOOOXXXX                    ",
"              XXOOOOOOOOOOOOXXOOOOOOOOOOOOOOXXXX                    ",
"              XXOOOOOOOOOOOOXXOOOOOOOOOOOOOOXXXX                    ",
"                XXOOOOOOOOOOXXOOOOOOOOOOOOOOXX                      ",
"                XXOOOOOOOOOOXXOOOOOOOOOOOOOOXX                      ",
"                  XXooOOOOOOXXOOooooooOOOOOOOOXX                    ",
"                  XXooOOOOOOXXOOooooooOOOOOOOOXX                    ",
"                    XXooooooXXooooooooooooooooXX                    ",
"                    XXooooooXXooooooooooooooooXX                    ",
"                    XXXXXXXXXXooooooooooooooOOXX                    ",
"                    XXXXXXXXXXooooooooooooooOOXX                    ",
"                      XXoooo..OOOOOOOOOOOOOOOOOO..                  ",
"                      XXoooo..OOOOOOOOOOOOOOOOOO..                  ",
"                    XXXXooXXXXOOOOOOOOOOOOOOooooooXX                ",
"                    XXXXooXXXXOOOOOOOOOOOOOOooooooXX                ",
"                    XXooXXOOXXooooooooooooooooooooooXX              ",
"                    XXooXXOOXXooooooooooooooooooooooXX              ",
"                    XX..OOOOXXooooooooooooooooOOOOOOOOXX            ",
"                    XX..OOOOXXooooooooooooooooOOOOOOOOXX            ",
"                    XXOOOOOOXXOOOOOOXXOOOOOOOOOOXXOOOOOOXXXXXX      ",
"                    XXOOOOOOXXOOOOOOXXOOOOOOOOOOXXOOOOOOXXXXXX      ",
"                    ..ooOOOOXXOOOOooooXXOOOOOOooooXXOOOOOOooooXX    ",
"                    ..ooOOOOXXOOOOooooXXOOOOOOooooXXOOOOOOooooXX    ",
"                    ..XXooOOXXOOooooooooXXOOooooooooXXOOooooooooXX  ",
"                    ..XXooOOXXOOooooooooXXOOooooooooXXOOooooooooXX  ",
"                  ..ooooXXooXXOOooooooooXXooooooooooooXXooooooooXX  ",
"                  ..ooooXXooXXOOooooooooXXooooooooooooXXooooooooXX  ",
"                ..oooo..XXooooXXooooooooXXooooooooooooXXooooooooXX  ",
"                ..oooo..XXooooXXooooooooXXooooooooooooXXooooooooXX  ",
"                ......  XXXXXXXXXXXXXXXXXXXXXXXXXXXXXXXXXXXXXXXX    ",
"                ......  XXXXXXXXXXXXXXXXXXXXXXXXXXXXXXXXXXXXXXXX    ",
"                                                                    ",
"                                                                    "
};
