/* XPM */
static char *D31652358283[] = {
/* columns rows colors chars-per-pixel */
"68 62 5 1 ",
"  c None",
". c black",
"X c #300000",
"o c #60B050",
"O c #E0E0C0",
/* pixels */
"                                                                    ",
"                                                                    ",
"                                                                    ",
"                                                                    ",
"                                                                    ",
"                                                                    ",
"                          XXXXXXXXXXXXXXXX    XXXX                  ",
"                          XXXXXXXXXXXXXXXX    XXXX                  ",
"                        XXOOOOOOOOOOOOOOOOXXXXooOOXX                ",
"                        XXOOOOOOOOOOOOOOOOXXXXooOOXX                ",
"                      XXOOOOOOOOOOOOOOOOOOooOOOOooXX                ",
"                      XXOOOOOOOOOOOOOOOOOOooOOOOooXX                ",
"                    XXOOOOOOOOOOOOOOOOOOOOOOOOooXX                  ",
"                    XXOOOOOOOOOOOOOOOOOOOOOOOOooXX                  ",
"                    XXOOOOOOOOOOOOOOOOOOOOOOOOOOXX                  ",
"                    XXOOOOOOOOOOOOOOOOOOOOOOOOOOXX                  ",
"                  XXOOOOXXOOOOOOOOOOXXOOOOOOOOOOXX                  ",
"                  XXOOOOXXOOOOOOOOOOXXOOOOOOOOOOXX                  ",
"                  XXOOXXOOOOOOOOOOOOXXOOOOOOOOOOOOXX                ",
"                  XXOOXXOOOOOOOOOOOOXXOOOOOOOOOOOOXX                ",
"                  XXOOXXOOOOOOOOOOOOXXOOOOOOOOOOOOXX                ",
"                  XXOOXXOOOOOOOOOOOOXXOOOOOOOOOOOOXX                ",
"                  XXOOXXOOOOOOOOOOOOXXOOOOXXXXOOOOXX                ",
"                  XXOOXXOOOOOOOOOOOOXXOOOOXXXXOOOOXX                ",
"                  XXOOXXOOOOOOOOOOOOXXOOXXXXOOXXOOXX                ",
"                  XXOOXXOOOOOOOOOOOOXXOOXXXXOOXXOOXX                ",
"                  XXOOXXOOOOOOOOOOOOXXOOXXooXXXXOOXXXX              ",
"                  XXOOXXOOOOOOOOOOOOXXOOXXooXXXXOOXXXX              ",
"                    XXXXOOOOOOOOOOOOXXOOOOXXXXOOOOOOXX              ",
"                    XXXXOOOOOOOOOOOOXXOOOOXXXXOOOOOOXX              ",
"                    XXXXOOOOOOOOOOOOOOXXOOOOOOOOOOOOXX              ",
"                    XXXXOOOOOOOOOOOOOOXXOOOOOOOOOOOOXX              ",
"                      XXOOOOOOOOOOOOOOXXOOOOOOOOOOXX                ",
"                      XXOOOOOOOOOOOOOOXXOOOOOOOOOOXX                ",
"                    XXOOOOOOOOooooooOOXXOOOOOOooXX                  ",
"                    XXOOOOOOOOooooooOOXXOOOOOOooXX                  ",
"                    XXooooooooooooooooXXooooooXX                    ",
"                    XXooooooooooooooooXXooooooXX                    ",
"                    XXOOooooooooooooooXXXXXXXXXX                    ",
"                    XXOOooooooooooooooXXXXXXXXXX                    ",
"                  ..OOOOOOOOOOOOOOOOOO..ooooXX                      ",
"                  ..OOOOOOOOOOOOOOOOOO..ooooXX                      ",
"                XXooooooOOOOOOOOOOOOOOXXXXooXXXX                    ",
"                XXooooooOOOOOOOOOOOOOOXXXXooXXXX                    ",
"              XXooooooooooooooooooooooXXOOXXooXX                    ",
"              XXooooooooooooooooooooooXXOOXXooXX                    ",
"            XXOOOOOOOOooooooooooooooooXXOOOO..XX                    ",
"            XXOOOOOOOOooooooooooooooooXXOOOO..XX                    ",
"      XXXXXXOOOOOOXXOOOOOOOOOOXXOOOOOOXXOOOOOOXX                    ",
"      XXXXXXOOOOOOXXOOOOOOOOOOXXOOOOOOXXOOOOOOXX                    ",
"    XXooooOOOOOOXXooooOOOOOOXXooooOOOOXXOOOOoo..                    ",
"    XXooooOOOOOOXXooooOOOOOOXXooooOOOOXXOOOOoo..                    ",
"  XXooooooooOOXXooooooooOOXXooooooooOOXXOOooXX..                    ",
"  XXooooooooOOXXooooooooOOXXooooooooOOXXOOooXX..                    ",
"  XXooooooooXXooooooooooooXXooooooooOOXXooXXoooo..                  ",
"  XXooooooooXXooooooooooooXXooooooooOOXXooXXoooo..                  ",
"  XXooooooooXXooooooooooooXXooooooooXXooooXX..oooo..                ",
"  XXooooooooXXooooooooooooXXooooooooXXooooXX..oooo..                ",
"    XXXXXXXXXXXXXXXXXXXXXXXXXXXXXXXXXXXXXXXX  ......                ",
"    XXXXXXXXXXXXXXXXXXXXXXXXXXXXXXXXXXXXXXXX  ......                ",
"                                                                    ",
"                                                                    "
};
