/* XPM */
static char *Others1650735428[] = {
/* columns rows colors chars-per-pixel */
"170 62 11 1 ",
"  c None",
". c black",
"X c #2E6E62",
"o c #FFF200",
"O c #373FB3",
"+ c #7CDEC5",
"@ c #8CFADE",
"# c #A3EDFF",
"$ c #CEF3FF",
"% c #E1FFFA",
"& c white",
/* pixels */
"XXXXXXXXXXXXXXXXXXXXXXXXXXXXXXXXXXXXXX+XXXXXX+X+XXXXXXX+XXXXXX+X+XXXXXXXXXXXXXXXXXXXXXXXXXXXXXXXXXXXXXXXX@X@XXXXXX@XXXXXXX@X@XXXXXX@XXXX                                  ",
"XXX+++XXXXXXXXXXXXXX+++XXXXXXXXXXXXXXX+XXXXXX@X@XXXXXXX+XXXXXX@X@XXXXXXXXXXXXXXXXXXXXXXXXXXXXXXXXXXXXXXXX@@@XXXXXX@XXXXXXX@@@XXXXXX@XXXX                                  ",
"XXX+X+XXXXXX+XXXXXXX+X+XXXXXX+XXXXXXXX@XXXXXX@X@XXXXXXX@XXXXXX@X@XXXXXXXXXXXXXX+++XXXXXXXXXXXXXX+++XXXXXXXXXXXXXXXXXXXXXXXXXXXXXXXXXXXXX                                  ",
"XXX@X@XXXXXX+XXXXXXX@X@XXXXXX+XXXXXXXX@XXXXXX@@@XXXXXXX@XXXXXX@@@XXXXXXX+XXXXXX+X+XXXXXXX+XXXXXX+X+XXXXXXXXXXXXXXXXXXXXXXXXXXXXXXXXXXXXX                    OOOOOOOOOOO   ",
"XXX@X@XXXXXX@XXXXXXX@X@XXXXXX@XXXXXXXXXXXXXXXXXXXXXXXXXXXXXXXXXXXXXXXXXX+XXXXXX@X@XXXXXXX+XXXXXX@X@XXXXXXXXXXXXXXXXXXXXXXXXXXXXXXXXXXXXX                 OOOOOOOOOOOOOO   ",
"XXX@@@XXXXXX@XXXXXXX@@@XXXXXX@XXXXXXXXXXXXXXXXXXXXXXXXXXXXXXXXXXXXXXXXXX@XXXXXX@X@XXXXXXX@XXXXXX@X@XXXXXXXXXXXXXX+++XXXXXXXXXXXXXX+++XXX                 OOOOOOOOOOOOOOOOO",
"XXXXXXXXXXXXXXXXXXXXXXXXXXXXXXXXXXXXX+++XXXXXXXXXXXXXX+++XXXXXXXXXXXXXXX@XXXXXX@@@XXXXXXX@XXXXXX@@@XXXXXXX+XXXXXX+X+XXXXXXX+XXXXXX+X+XXX                 OOO OOOOOOOOOOOOO",
"XXXXXXXXXXXXXXXXXXXXXXXXXXXXXXXXXXXXX+X+XXXXXX+XXXXXXX+X+XXXXXX+XXXXXXXXXXXXXXXXXXXXXXXXXXXXXXXXXXXXXXXXXX+XXXXXX@X@XXXXXXX+XXXXXX@X@XXX               OOOOO  OOOOOOOOOOOO",
"XXXXXXXXXXXXXXXXXXXXXXXXXXXXXXXXXXXXX@X@XXXXXX+XXXXXXX@X@XXXXXX+XXXXXXXXXXXXXXXXXXXXXXXXXXXXXXXXXXXXXXXXXX@XXXXXX@X@XXXXXXX@XXXXXX@X@XXX               OOOOOOOOOO OO OO OO",
"XXXXXXXXXXX+++XXXXXXXXXXXXXX+++XXXXXX@X@XXXXXX@XXXXXXX@X@XXXXXX@XXXXXXXXXXXXXXXXXXXXXXXXXXXXXXXXXXXXXXXXXX@XXXXXX@@@XXXXXXX@XXXXXX@@@XXX               OOOOOOOOOO         ",
"XXXX+XXXXXX+X+XXXXXXX+XXXXXX+X+XXXXXX@@@XXXXXX@XXXXXXX@@@XXXXXX@XXXXXXX+++XXXXXXXXXXXXXX+++XXXXXXXXXXXXXXXXXXXXXXXXXXXXXXXXXXXXXXXXXXXXX o oo ooo ooo oOOOOOOOOOO         ",
"XXXX+XXXXXX@X@XXXXXXX+XXXXXX@X@XXXXXXXXXXXXXXXXXXXXXXXXXXXXXXXXXXXXXXXX+X+XXXXXX+XXXXXXX+X+XXXXXX+XXXXXXXXXXXXXXXXXXXXXXXXXXXXXXXXXXXXXX              O OOOOOOOOO OO OO OO",
"XXXX@XXXXXX@X@XXXXXXX@XXXXXX@X@XXXXXXXXXXXXXXXXXXXXXXXXXXXXXXXXXXXXXXXX@X@XXXXXX+XXXXXXX@X@XXXXXX+XXXXXXXXXXXXXXXXXXXXXXXXXXXXXXXXXXXXXX o oo ooo ooo oOOOOOOOOOOOOOOOOOOO",
"XXXX@XXXXXX@@@XXXXXXX@XXXXXX@@@XXXXXXXXXXXXXXXXXXXXXXXXXXXXXXXXXXXXXXXX@X@XXXXXX@XXXXXXX@X@XXXXXX@XXXXXXX+++XXXXXXXXXXXXXX+++XXXXXXXXXXX              oOOOOOOOOOOOOOOOOOOO",
"XXXXXXXXXXXXXXXXXXXXXXXXXXXXXXXXXXXXXXXXXXXXX+++XXXXXXXXXXXXXX+++XXXXXX@@@XXXXXX@XXXXXXX@@@XXXXXX@XXXXXXX+X+XXXXXX+XXXXXXX+X+XXXXXX+XXXX o oo ooo ooooO OOOOOOOOOOOOOO    ",
"XXXXXXXXXXXXXXXXXXXXXXXXXXXXXXXXXXXXXX+XXXXXX+X+XXXXXXX+XXXXXX+X+XXXXXXXXXXXXXXXXXXXXXXXXXXXXXXXXXXXXXXXX@X@XXXXXX+XXXXXXX@X@XXXXXX+XXXX             O OOOOOOoooo         ",
"XXXXXXXXXXXXXXXXXXXXXXXXXXXXXXXXXXXXXX+XXXXXX@X@XXXXXXX+XXXXXX@X@XXXXXXXXXXXXXXXXXXXXXXXXXXXXXXXXXXXXXXXX@X@XXXXXX@XXXXXXX@X@XXXXXX@XXXX o oo ooo o O O OOOOOOOOOOOO      ",
"XXX+++XXXXXXXXXXXXXX+++XXXXXXXXXXXXXXX@XXXXXX@X@XXXXXXX@XXXXXX@X@XXXXXXXXXXXXXXXXXXXXXXXXXXXXXXXXXXXXXXXX@@@XXXXXX@XXXXXXX@@@XXXXXX@XXXX             O O OOOOOOOOOOOOO    ",
"XXX+X+XXXXXX+XXXXXXX+X+XXXXXX+XXXXXXXX@XXXXXX@@@XXXXXXX@XXXXXX@@@XXXXXXXXXXXXXX+++XXXXXXXXXXXXXX+++XXXXXXXXXXXXXXXXXXXXXXXXXXXXXXXXXXXXX o oo ooo o O O OOOOOoooooOOOOOO  ",
"XXX@X@XXXXXX+XXXXXXX@X@XXXXXX+XXXXXXXXXXXXXXXXXXXXXXXXXXXXXXXXXXXXXXXXXX+XXXXXX+X+XXXXXXX+XXXXXX+X+XXXXXXXXXXXXXXXXXXXXXXXXXXXXXXXXXXXXX             O OOOOOooooooOOOOOO  ",
"XXX@X@XXXXXX@XXXXXXX@X@XXXXXX@XXXXXXXXXXXXXXXXXXXXXXXXXXXXXXXXXXXXXXXXXX+XXXXXX@X@XXXXXXX+XXXXXX@X@XXXXXXXXXXXXXXXXXXXXXXXXXXXXXXXXXXXXX o oo ooo o O O O O oooooo OO OO  ",
"XXX@@@XXXXXX@XXXXXXX@@@XXXXXX@XXXXXXX+++XXXXXXXXXXXXXX+++XXXXXXXXXXXXXXX@XXXXXX@X@XXXXXXX@XXXXXX@X@XXXXXXXXXXXXXX+++XXXXXXXXXXXXXX+++XXX             O OOOO oooooo        ",
"XXXXXXXXXXXXXXXXXXXXXXXXXXXXXXXXXXXXX+X+XXXXXX+XXXXXXX+X+XXXXXX+XXXXXXXX@XXXXXX@@@XXXXXXX@XXXXXX@@@XXXXXXX+XXXXXX+X+XXXXXXX+XXXXXX+X+XXX o oo ooo o   O OO  oooooo        ",
"XXXXXXXXXXXXXXXXXXXXXXXXXXXXXXXXXXXXX@X@XXXXXX+XXXXXXX@X@XXXXXX+XXXXXXXXXXXXXXXXXXXXXXXXXXXXXXXXXXXXXXXXXX+XXXXXX@X@XXXXXXX+XXXXXX@X@XXX             O OOO ooooooo        ",
"XXXXXXXXXXXXXXXXXXXXXXXXXXXXXXXXXXXXX@X@XXXXXX@XXXXXXX@X@XXXXXX@XXXXXXXXXXXXXXXXXXXXXXXXXXXXXXXXXXXXXXXXXX@XXXXXX@X@XXXXXXX@XXXXXX@X@XXX o oo ooo o O O    ooooooo        ",
"XXXXXXXXXXX+++XXXXXXXXXXXXXX+++XXXXXX@@@XXXXXX@XXXXXXX@@@XXXXXX@XXXXXXX+++XXXXXXXXXXXXXX+++XXXXXXXXXXXXXXX@XXXXXX@@@XXXXXXX@XXXXXX@@@XXX                  ooooooo         ",
"XXXX+XXXXXX+X+XXXXXXX+XXXXXX+X+XXXXXXXXXXXXXXXXXXXXXXXXXXXXXXXXXXXXXXXX+X+XXXXXX+XXXXXXX+X+XXXXXX+XXXXXXXXXXXXXXXXXXXXXXXXXXXXXXXXXXXXXX o oo ooo ooooooooooooooo         ",
"XXXX+XXXXXX@X@XXXXXXX+XXXXXX@X@XXXXXXXXXXXXXXXXXXXXXXXXXXXXXXXXXXXXXXXX@X@XXXXXX+XXXXXXX@X@XXXXXX+XXXXXXXXXXXXXXXXXXXXXXXXXXXXXXXXXXXXXX              ooooooooooo         ",
"XXXX@XXXXXX@X@XXXXXXX@XXXXXX@X@XXXXXXXXXXXXXXXXXXXXXXXXXXXXXXXXXXXXXXXX@X@XXXXXX@XXXXXXX@X@XXXXXX@XXXXXXXXXXXXXXXXXXXXXXXXXXXXXXXXXXXXXX o oo ooo oooooooooooooo          ",
"XXXX@XXXXXX@@@XXXXXXX@XXXXXX@@@XXXXXXXXXXXXXX+++XXXXXXXXXXXXXX+++XXXXXX@@@XXXXXX@XXXXXXX@@@XXXXXX@XXXXXXX+++XXXXXXXXXXXXXX+++XXXXXXXXXXX            ooooooooooo           ",
"XXXXXXXXXXXXXXXXXXXXXXXXXXXXXXXXXXXXXX+XXXXXX+X+XXXXXXX+XXXXXX+X+XXXXXXXXXXXXXXXXXXXXXXXXXXXXXXXXXXXXXXXX+X+XXXXXX+XXXXXXX+X+XXXXXX+XXXX o oo ooo oooooooooooo            ",
"XXXXXXXXXXXXXXXXXXXXXXXXXXXXXXXXXXXXXXXXXXXXXXXXXXXXXXXXXXXXXXXXXXXXXXXXXXXXXXXXXXXXXXXXXXXXXXXXXXXXXXXXXXXXXXXXXXXXXXXXXXXXXXXXXXXXXXXX                                  ",
"XXXXXXXXXXXXXXXXXXXXXXXXXXXXXXXXXXXXXXXXXXXXXXXXXXXXXXXXXXXXXXXXXXXXXXXXXXXXXXXXXXXXXXXXXXXXXXXXXXXXXXXXXXXXXXXXXXXXXXXXXXXXXXXXXXXXXXXX                                  ",
"XXXXXXXXXXXXXXXXXXXXXXXXXXXXXXXXXXXXXXXXXXXXXXXXXXXXXXXXXXXXXXXXXXXXXXXXXXXXXXXXXXXXXXXXXXXXXXXXXXXXXXXXXXXXXXXXXXXXXXXXXXXXXXXXXXXXXXXX                                  ",
"XXXXXXXXXXXXXXXXXXXXXXXXXXXXXXXXXXXXXXXXXXXXXXXXXXXXXXXXXXXXXXXXXXXXXXXXXXXXXXXXXX&&&&&&&XXXXXXXXXXXXXXXXXXXXXXXXXXX&&&&&&&XXXXXXXXXXXXX                                  ",
"XXXXXXXXXXXXXXXXXXXXXXXXXXXXXXXXXXXXXXXXXXXXXXXXXXXXXXXXXXXXXXXXXXXXXXXXXXXXXXXXX&&#####&&XXXXXXXXXXXXXXXXXXXXXXXXX&&#####&&XXXXXXXXXXXX         .                        ",
"XXXXXXXXXXXXXXXXXXXXXXXXXXXXXXXXXXXXXXXXXXXXXXXXXXXXX@XXXXXXXXXXXXXXXXXXXXXXXXXX&&#######&&XXXXXXX@XXXXXXXXXXXXXXX&&#######&&XXXX@XXXXXX        ...                       ",
"XXXXXXXXXXXXXX@XXXXXXXXXX@@XXXXXXXXXXXXXXXXXXXXXXXXXXXXXXXXXXXXXXXXXXXXXXXXXXXX&&#########&&XXXXX@XXXXXXXXXXXXXXX&&#########&&XX@XXXXXXX   .   .....   .                  ",
"XXXXXXXXXXXXXXXXXXXXXXXXXXXXXXXXXXXXXXX@@XXXXXXXXXXXXXXXXXXXXXXXXXXXXXX@@XXXXX&&###########&&XXXXXXXXXXXXXXXX@@X&&###########&&XXXXXXXXX  ...  .....  ...                 ",
"XXXXXXXXXXXXXXXXXXXXXXXXXXXXXXXXXXXXXXXXXXXXXXXXXXXXXXXXXXXXXXXXXXXXXXXXXXXXXX&#############&XXXXXXXXXXXXXXXXXXX&#####$$$#####&XXXXXXXXX ..... ..... .....                ",
"XXXXXX@@XXXXXXXXXXXXXXXXXXXXXXXXXXXXXXXXXXXXXXXXXXXXXXXXXXXX@@XXXXXXXXXXXXXXX&&#####$$$#####&&XXXXXXXXXXXXXXXXX&&####$$$$$####&&XXXXXXXX .....  ...  .....                ",
"XXXXXXXXXXXXXXXXXXXXXXXXXXXXXXXXXXXXXXXXXXXXXXXXXXXXXXXXXXXXXXXXXXXXXXXXXXXXX&#####$$$$$##@@#&XXXXXXXXXXXXXXXXX&####$$$$$$$####&XXXXXXXX .....       .....                ",
"XXXXXXXXXXXXXXXXXXXXXXXXXXXXXXXXXXXXXXXXXXXXXXXX@XXXXXXXXXXXXXXXXXXXXXXXXXXX&&####$$$$$$$####&&XXXXXXXXXXXXXXX&&###$$$$$@@$$###&&XXXXXXX  ...  .....  ...                 ",
"XXXXXXXXXXXXXXXXXXXXXXXXXXXXX@XXXXXXXXXXXXXXXXXX@XXXXXXXXXXXXXXXXXXXXXXXX@XX&#####$$$$$$$####&&XXXXXXXXXXXXXXX&####$$$$%$$$$###&&XXXXXXX      .......                     ",
"XXXXXXXXXXXXXXXX@@XXXXXXXXXXX@XXXXXXXXXXXXXXXXXXXXXXXXXXXXXXXXXXXXXXXXXXXXXX&####$$$$%$$$$####&XXXXXXXXXX@XXXX&###$$$$%%%$$$$###&XXXXXXX     .........                    ",
"XXXXXXXXXXXXXXXXXXXXXXXXXXXXXXXXXXXXXXXXXXXXXXXXXXXXXXXXXXXXXXXXXXXXXXXXXXXX&####$$$%%%$$$####&XXXXXXXXXXXXXXX&##@@$$$%%%$$$$###&XXXXXXX     .........                    ",
"XXXXXXXXXXXXXXXXXXXXXXXXXXXXXXXXXXXXXXXXXXXXXXXXXXXXXXXXXXX@XXXXXXXXXXXXXXXX&###@@$$%%%$$$####&XXXXXXXXXXXXXXX&###$$$%%%%%$$$###&XXXXXXX     .........                    ",
"XXXXXXXXXXXXXXXXXXXXXXXXXXXXXXXXXXXXXXXXXXXXXXXXXXXXXXXXXXX@XXXXXXXXXX@@XXXX&####$$$%%%$$$####&@@XXXXXXXXXXXXX&###$$$%%%%%$$$###&XXX@@XX     .........          .         ",
"XXXXXX@XXXXXXXXXXXXXXXXXXXXXXXXXXXXXXXXXXXXXXXXXXXXXXXXXXXXXXXXXXXXXXXXXXXXX&####$$$%%%$$$@@##&XXXXXXXXXXXX@@X&###$$$$%%%$$$$###&XXXXXXX      .......          ...        ",
"XXXXXXXXXXXXXXXXXXXXXXXXXXXXXXXXXXXXXXXXXXXXXXXXXXXXXXXXXXXXXXXXXXXXXXXXXXXX&####$$$$%$$$$####&XXXXXXXXXXXXXXX&###$$$$%%%$$$$#@@&XXXXXXX                  .   .....   .   ",
"XXXXXXXXXXXXXXXXXXXXX@XXXXXXXXXXXXXXXXXXXXXXX@XXXXXXXXXXXXXXXXXXXXXXXXXXXXXX&#####$$$$$$$#####&XXXXXXXXXXXXXXX&####$$$$%$$$$####&XXXXXXX                 ...  .....  ...  ",
"XXXXXXXXXXXXXXXXXXXXXXXXXXXXXXXXXXXXXXXXXXXXXXXXXXXXXXXXXXXXXXXXXXXXXXXXXXXX&&####$$$@@$$####&&XXXXXXXXXXXXXXX&&###$$@@$$$$$###&&XXXXXXX                ..... ..... ..... ",
"XXXXXXXXXXXXXXXXXXXXXXXXXXXXXXXXXXXXXXXXXXXXXXXXXXXXXXXXXXXXXXXXXXXXXXXXXXXXX&#####$$$$$#####&XXXXXXXXXXXXXXXXX&####$$$$$$$####&XXXXXXXX                .....  ...  ..... ",
"XXXXXXXXXXXXXXXXXXXXXXXXXXXXXXXXXXXXXXXXXXXXXXXXXXXXXX@XXXXXXXXXXXXXXXXXXXXXX&######$$$######&XXXXXXXXXXXXXXXXX&#####$$$$$#####&XXXXXXXX                .....       ..... ",
"XXXXXXXXXXXXXXXXXXXXXXXXXXXXXXXXXXXXXXXXXXXXXXXXXXXXXXXXXXXXXXXXXXXXXXXXXXXXX&&#############&&XXXXXXXXXXXXXXXXX&&#####$$$#####&&XXXXXXXX                 ...  .....  ...  ",
"XXXXXXXXX@XXXXXXXXXXXXXXXXXXXXXXXXXXXXXXXXXXXXXXXXXXXXXXXXXXXXXXXXXXXXXXXXXXXX&#############&XXXXXXXXXXXXXXXXXXX&#############&XXXXXXXXX                     .......      ",
"XXXXXXXXX@@XXXXXXXXXXXXXXXX@@XXXXXXXXXXXXXXXXXXXXXXXXXXXXXXXXXXXXXXXXXXXXX@@XX&&###########&&XXXXXXXXXXXX@@XXXXX&&###########&&XXXXXXXXX                    .........     ",
"XXXXXXXXXXXXXXXXXXXXXXXXXXX@XXXXXXXXXXXXXX@XXXXXXXXXXXXXXXXXX@XXXXXXXXXXXXXXXXX&&#########&&XXXXX@@XXXXXXXXXXXXXX&&#########&&XXX@@XXXXX                    .........     ",
"XXXXXXXXXXXXXXXXXXXXXXXXXXXXXXXXXXXXXXXXX@@XXXXXXXXXXXXXXXXXX@@XXXXXXXXXXXXXXXXX&&#######&&XXXXX@@XXXXXXXXXXXXXXXX&&#######&&XXX@@XXXXXX                    .........     ",
"XXXXXXXXXXXXXXXXXXXXXXXXXXXXXXXXXXXXXXXXXXXXXXXXXXXXXXXXXXXXXXXXXXXXXXX@@XXXXXXXX&&#####&&XXXXXXXXXXXXXXXXXX@@XXXXX&&#####&&XXXXXXXXXXXX                    .........     ",
"XXXXXXXXXXXXXXXXXXXXXXXXXXXXXXXXXXXXXXXXXXXXXXXXXXXXXXXXXXXXXXXXXXXXXXXXXXXXXXXXXX&&&&&&&XXXXXXXXXXXXXXXXXXXXXXXXXXX&&&&&&&XXXXXXXXXXXXX                     .......      ",
"XXXXXXXXXXXXXXXXXXXXXXXXXXXXXXXXXXXXXXXXXXXXXXXXXXXXXXXXXXXXXXXXXXXXXXXXXXXXXXXXXXXXXXXXXXXXXXXXXXXXXXXXXXXXXXXXXXXXXXXXXXXXXXXXXXXXXXXX                                  "
};
