/* XPM */
static char *A01652357851[] = {
/* columns rows colors chars-per-pixel */
"68 62 6 1 ",
"  c None",
". c #300000",
"X c #3F48CC",
"o c #EA3680",
"O c #FFAEC9",
"+ c #99D9EA",
/* pixels */
"                                                                    ",
"                                                                    ",
"                                                                    ",
"                                                                    ",
"                    ....    ................                        ",
"                    ....    ................                        ",
"                  ..OOoo....OOOOOOOOOOOOOOOO..                      ",
"                  ..OOoo....OOOOOOOOOOOOOOOO..                      ",
"                  ..ooOOOOooOOOOOOOOOOOOOOOOOO..                    ",
"                  ..ooOOOOooOOOOOOOOOOOOOOOOOO..                    ",
"                    ..ooOOOOOOOOOOOOOOOOOOOOOOOO..                  ",
"                    ..ooOOOOOOOOOOOOOOOOOOOOOOOO..                  ",
"                    ..OOOOOOOOOOOOOOOOOOOOOOOOOO..                  ",
"                    ..OOOOOOOOOOOOOOOOOOOOOOOOOO..                  ",
"                    ..OOOOOOOOOO..OOOOOOOOOO..OOOO..                ",
"                    ..OOOOOOOOOO..OOOOOOOOOO..OOOO..                ",
"                  ..OOOOOOOOOOOO..OOOOOOOOOOOO..OO..                ",
"                  ..OOOOOOOOOOOO..OOOOOOOOOOOO..OO..                ",
"                  ..OOOOOOOOOOOO..OOOOOOOOOOOO..OO..                ",
"                  ..OOOOOOOOOOOO..OOOOOOOOOOOO..OO..                ",
"                  ..OOOO....OOOO..OOOOOOOOOOOO..OO..                ",
"                  ..OOOO....OOOO..OOOOOOOOOOOO..OO..                ",
"                  ..OO..++....OO..OOOOOOOOOOOO..OO..                ",
"                  ..OO..++....OO..OOOOOOOOOOOO..OO..                ",
"                ....OO....XX..OO..OOOOOOOOOOOO..OO..                ",
"                ....OO....XX..OO..OOOOOOOOOOOO..OO..                ",
"                ..OOOOOO....OOOO..OOOOOOOOOOOO....                  ",
"                ..OOOOOO....OOOO..OOOOOOOOOOOO....                  ",
"                ..OOOOOOOOOOOO..OOOOOOOOOOOOOO....                  ",
"                ..OOOOOOOOOOOO..OOOOOOOOOOOOOO....                  ",
"                  ..OOOOOOOOOO..OOOOOOOOOOOOOO..                    ",
"                  ..OOOOOOOOOO..OOOOOOOOOOOOOO..                    ",
"                    ..ooOOOOOO..OOooooooOOOOOOOO..                  ",
"                    ..ooOOOOOO..OOooooooOOOOOOOO..                  ",
"                      ..oooooo..oooooooooooooooo..                  ",
"                      ..oooooo..oooooooooooooooo..                  ",
"                      ..........ooooooooooooooOO..                  ",
"                      ..........ooooooooooooooOO..                  ",
"                      ..oooooo..OOOOOOOOOOOOOOOOOO..                ",
"                      ..oooooo..OOOOOOOOOOOOOOOOOO..                ",
"                      ..oo......OOOOOOOOOOOOoooooo..                ",
"                      ..oo......OOOOOOOOOOOOoooooo..                ",
"                    ..oo..OOOO..oooooooooooooooooo..                ",
"                    ..oo..OOOO..oooooooooooooooooo..                ",
"                    ....OOOO..oooooooooooooooooooooo..              ",
"                    ....OOOO..oooooooooooooooooooooo..              ",
"                    ..OOOOOO..ooooooooooooooooOOOOOOOO..            ",
"                    ..OOOOOO..ooooooooooooooooOOOOOOOO..            ",
"                    ..ooOOOO..OOOOOO..OOOOOOOOOO..OOOOOO......      ",
"                    ..ooOOOO..OOOOOO..OOOOOOOOOO..OOOOOO......      ",
"                      ..OOOO..OOOOoooo..OOOOOOoooo..OOOOOOoooo..    ",
"                      ..OOOO..OOOOoooo..OOOOOOoooo..OOOOOOoooo..    ",
"                      ..ooOO..OOoooooooo..OOoooooooo..OOoooooooo..  ",
"                      ..ooOO..OOoooooooo..OOoooooooo..OOoooooooo..  ",
"                        ..oo..OOoooooooo..oooooooooooo..oooooooo..  ",
"                        ..oo..OOoooooooo..oooooooooooo..oooooooo..  ",
"                        ..oooo..oooooooo..oooooooooooo..oooooooo..  ",
"                        ..oooo..oooooooo..oooooooooooo..oooooooo..  ",
"                        ........................................    ",
"                        ........................................    ",
"                                                                    ",
"                                                                    "
};
