/* XPM */
static char *A21652186560[] = {
/* columns rows colors chars-per-pixel */
"34 31 7 1 ",
"  c None",
". c black",
"X c #300000",
"o c #3F48CC",
"O c #EA3680",
"+ c #FFAEC9",
"@ c #99D9EA",
/* pixels */
"                                  ",
"                                  ",
"         XX  XXXXXXXX             ",
"        X+OXX++++++++X            ",
"        XO++O+++++++++X           ",
"         XO++++++++++++X          ",
"         X+++++++++++++X          ",
"         X+++++X+++++X++X         ",
"        X++++++X++++++X+X         ",
"        X++++++X++++++X+X         ",
"        X++XX++X++++++X+X         ",
"        X+X@XX+X++++++X+X         ",
"       XX+XXoX+X++++++X+X         ",
"       X+++XX++X++++++XX          ",
"       X++++++X+++++++XX          ",
"        X+++++X+++++++X           ",
"         XO+++X+OOO++++X          ",
"          XOOOXOOOOOOOOX          ",
"          XXXXXOOOOOOO+X          ",
"           XOO.+++++++++.         ",
"           XOX.+++++++OOOX        ",
"          XOX+.OOOOOOOOOOX        ",
"          XX++XOOOOOOOOOOOX       ",
"          X+++XOOOOOOOO++++X      ",
"          X+++X+++X+++++X+++XXX   ",
"          .O++X++OOX+++OOX+++OOX  ",
"          .OO.X+OOOOX+OOOOX+OOOOX ",
"         .OO..X+OOOOXOOOOOOXOOOOX ",
"        .OO..O.XOOOOXOOOOOOXOOOOX ",
"        ... XXXXXXXXXXXXXXXXXXXX  ",
"                                  "
};
