/* XPM */
static char *D01652186562[] = {
/* columns rows colors chars-per-pixel */
"34 31 6 1 ",
"  c None",
". c #300000",
"X c #3F48CC",
"o c #EA3680",
"O c #FFAEC9",
"+ c #99D9EA",
/* pixels */
"                                  ",
"                                  ",
"            ........  ..          ",
"           .OOOOOOOO..oO.         ",
"          .OOOOOOOOOoOOo.         ",
"         .OOOOOOOOOOOOo.          ",
"         .OOOOOOOOOOOOO.          ",
"        .OO.OOOOO.OOOOO.          ",
"        .O.OOOOOO.OOOOOO.         ",
"        .O.OOOOOO.OOOOOO.         ",
"        .O.OOOOOO.OO..OO.         ",
"        .O.OOOOOO.O..+.O.         ",
"        .O.OOOOOO.O.X..O..        ",
"         ..OOOOOO.OO..OOO.        ",
"         ..OOOOOOO.OOOOOO.        ",
"          .OOOOOOO.OOOOO.         ",
"         .OOOOoooO.OOOo.          ",
"         .oooooooo.ooo.           ",
"         .Oooooooo.....           ",
"        .OOOOOOOOO.ooo.           ",
"        .oooOOOOOO...o.           ",
"        .ooooooooo.OO.o.          ",
"       .ooooooooooo.OO..          ",
"      .OOOOoooooooo.OOO.          ",
"   ...OOO.OOOOO.OOO.OOo.          ",
"  .ooOOO.ooOOO.ooOO.OO.           ",
" .ooooO.ooooO.ooooO.Oo.           ",
" .oooo.oooooo.ooooO.o.            ",
" .oooo.oooooo.oooo.oo.            ",
"  ....................            ",
"                                  "
};
