/* XPM */
static char *D01652357852[] = {
/* columns rows colors chars-per-pixel */
"68 62 6 1 ",
"  c None",
". c #300000",
"X c #3F48CC",
"o c #EA3680",
"O c #FFAEC9",
"+ c #99D9EA",
/* pixels */
"                                                                    ",
"                                                                    ",
"                                                                    ",
"                                                                    ",
"                        ................    ....                    ",
"                        ................    ....                    ",
"                      ..OOOOOOOOOOOOOOOO....ooOO..                  ",
"                      ..OOOOOOOOOOOOOOOO....ooOO..                  ",
"                    ..OOOOOOOOOOOOOOOOOOooOOOOoo..                  ",
"                    ..OOOOOOOOOOOOOOOOOOooOOOOoo..                  ",
"                  ..OOOOOOOOOOOOOOOOOOOOOOOOoo..                    ",
"                  ..OOOOOOOOOOOOOOOOOOOOOOOOoo..                    ",
"                  ..OOOOOOOOOOOOOOOOOOOOOOOOOO..                    ",
"                  ..OOOOOOOOOOOOOOOOOOOOOOOOOO..                    ",
"                ..OOOO..OOOOOOOOOO..OOOOOOOOOO..                    ",
"                ..OOOO..OOOOOOOOOO..OOOOOOOOOO..                    ",
"                ..OO..OOOOOOOOOOOO..OOOOOOOOOOOO..                  ",
"                ..OO..OOOOOOOOOOOO..OOOOOOOOOOOO..                  ",
"                ..OO..OOOOOOOOOOOO..OOOOOOOOOOOO..                  ",
"                ..OO..OOOOOOOOOOOO..OOOOOOOOOOOO..                  ",
"                ..OO..OOOOOOOOOOOO..OOOO....OOOO..                  ",
"                ..OO..OOOOOOOOOOOO..OOOO....OOOO..                  ",
"                ..OO..OOOOOOOOOOOO..OO....++..OO..                  ",
"                ..OO..OOOOOOOOOOOO..OO....++..OO..                  ",
"                ..OO..OOOOOOOOOOOO..OO..XX....OO....                ",
"                ..OO..OOOOOOOOOOOO..OO..XX....OO....                ",
"                  ....OOOOOOOOOOOO..OOOO....OOOOOO..                ",
"                  ....OOOOOOOOOOOO..OOOO....OOOOOO..                ",
"                  ....OOOOOOOOOOOOOO..OOOOOOOOOOOO..                ",
"                  ....OOOOOOOOOOOOOO..OOOOOOOOOOOO..                ",
"                    ..OOOOOOOOOOOOOO..OOOOOOOOOO..                  ",
"                    ..OOOOOOOOOOOOOO..OOOOOOOOOO..                  ",
"                  ..OOOOOOOOooooooOO..OOOOOOoo..                    ",
"                  ..OOOOOOOOooooooOO..OOOOOOoo..                    ",
"                  ..oooooooooooooooo..oooooo..                      ",
"                  ..oooooooooooooooo..oooooo..                      ",
"                  ..OOoooooooooooooo..........                      ",
"                  ..OOoooooooooooooo..........                      ",
"                ..OOOOOOOOOOOOOOOOOO..oooooo..                      ",
"                ..OOOOOOOOOOOOOOOOOO..oooooo..                      ",
"                ..ooooooOOOOOOOOOOOO......oo..                      ",
"                ..ooooooOOOOOOOOOOOO......oo..                      ",
"                ..oooooooooooooooooo..OOOO..oo..                    ",
"                ..oooooooooooooooooo..OOOO..oo..                    ",
"              ..oooooooooooooooooooooo..OOOO....                    ",
"              ..oooooooooooooooooooooo..OOOO....                    ",
"            ..OOOOOOOOoooooooooooooooo..OOOOOO..                    ",
"            ..OOOOOOOOoooooooooooooooo..OOOOOO..                    ",
"      ......OOOOOO..OOOOOOOOOO..OOOOOO..OOOOoo..                    ",
"      ......OOOOOO..OOOOOOOOOO..OOOOOO..OOOOoo..                    ",
"    ..ooooOOOOOO..ooooOOOOOO..ooooOOOO..OOOO..                      ",
"    ..ooooOOOOOO..ooooOOOOOO..ooooOOOO..OOOO..                      ",
"  ..ooooooooOO..ooooooooOO..ooooooooOO..OOoo..                      ",
"  ..ooooooooOO..ooooooooOO..ooooooooOO..OOoo..                      ",
"  ..oooooooo..oooooooooooo..ooooooooOO..oo..                        ",
"  ..oooooooo..oooooooooooo..ooooooooOO..oo..                        ",
"  ..oooooooo..oooooooooooo..oooooooo..oooo..                        ",
"  ..oooooooo..oooooooooooo..oooooooo..oooo..                        ",
"    ........................................                        ",
"    ........................................                        ",
"                                                                    ",
"                                                                    "
};
