/* XPM */
static char *D11652357852[] = {
/* columns rows colors chars-per-pixel */
"68 62 4 1 ",
"  c None",
". c #300000",
"X c #EA3680",
"o c #FFAEC9",
/* pixels */
"                                                                    ",
"                                                                    ",
"                                                                    ",
"                                                                    ",
"                                                                    ",
"                                                                    ",
"                        ................    ....                    ",
"                        ................    ....                    ",
"                      ..oooooooooooooooo....XXoo..                  ",
"                      ..oooooooooooooooo....XXoo..                  ",
"                    ..ooooooooooooooooooXXooooXX..                  ",
"                    ..ooooooooooooooooooXXooooXX..                  ",
"                  ..ooooooooooooooooooooooooXX..                    ",
"                  ..ooooooooooooooooooooooooXX..                    ",
"                  ..oooooooooooooooooooooooooo..                    ",
"                  ..oooooooooooooooooooooooooo..                    ",
"                ..oooo..oooooooooo..oooooooooo..                    ",
"                ..oooo..oooooooooo..oooooooooo..                    ",
"                ..oo..oooooooooooo..oooooooooooo..                  ",
"                ..oo..oooooooooooo..oooooooooooo..                  ",
"                ..oo..oooooooooooo..oooooooooooo..                  ",
"                ..oo..oooooooooooo..oooooooooooo..                  ",
"                ..oo..oooooooooooo..oooooooooooo..                  ",
"                ..oo..oooooooooooo..oooooooooooo..                  ",
"                ..oo..oooooooooooo..oooo....oooo..                  ",
"                ..oo..oooooooooooo..oooo....oooo..                  ",
"                ..oo..oooooooooooo..oo....oo..oo....                ",
"                ..oo..oooooooooooo..oo....oo..oo....                ",
"                  ....oooooooooooo..oooooooooooooo..                ",
"                  ....oooooooooooo..oooooooooooooo..                ",
"                  ....oooooooooooooo..oooooooooooo..                ",
"                  ....oooooooooooooo..oooooooooooo..                ",
"                    ..oooooooooooooo..oooooooooo..                  ",
"                    ..oooooooooooooo..oooooooooo..                  ",
"                  ..ooooooooXXXXXXoo..ooooooXX..                    ",
"                  ..ooooooooXXXXXXoo..ooooooXX..                    ",
"                  ..XXXXXXXXXXXXXXXX..XXXXXX..                      ",
"                  ..XXXXXXXXXXXXXXXX..XXXXXX..                      ",
"                  ..ooXXXXXXXXXXXXXX..........                      ",
"                  ..ooXXXXXXXXXXXXXX..........                      ",
"                ..oooooooooooooooooo..XXXXXX..                      ",
"                ..oooooooooooooooooo..XXXXXX..                      ",
"                ..XXXXXXoooooooooooo......XX..                      ",
"                ..XXXXXXoooooooooooo......XX..                      ",
"                ..XXXXXXXXXXXXXXXXXX..oooo..XX..                    ",
"                ..XXXXXXXXXXXXXXXXXX..oooo..XX..                    ",
"            ....XXXXXXXXXXXXXXXXXXXXXX..oooo....                    ",
"            ....XXXXXXXXXXXXXXXXXXXXXX..oooo....                    ",
"      ......oooooo..oooooooooo..oooooo..ooooXX..                    ",
"      ......oooooo..oooooooooo..oooooo..ooooXX..                    ",
"    ..XXXXoooooo..XXXXoooooo..XXXXoooo..oooo..                      ",
"    ..XXXXoooooo..XXXXoooooo..XXXXoooo..oooo..                      ",
"  ..XXXXXXXXoo..XXXXXXXXoo..XXXXXXXXoo..ooXX..                      ",
"  ..XXXXXXXXoo..XXXXXXXXoo..XXXXXXXXoo..ooXX..                      ",
"  ..XXXXXXXX..XXXXXXXXXXXX..XXXXXXXXoo..XX..                        ",
"  ..XXXXXXXX..XXXXXXXXXXXX..XXXXXXXXoo..XX..                        ",
"  ..XXXXXXXX..XXXXXXXXXXXX..XXXXXXXX..XXXX..                        ",
"  ..XXXXXXXX..XXXXXXXXXXXX..XXXXXXXX..XXXX..                        ",
"    ........................................                        ",
"    ........................................                        ",
"                                                                    ",
"                                                                    "
};
