/* XPM */
static char *D21652186562[] = {
/* columns rows colors chars-per-pixel */
"34 31 7 1 ",
"  c None",
". c black",
"X c #300000",
"o c #3F48CC",
"O c #EA3680",
"+ c #FFAEC9",
"@ c #99D9EA",
/* pixels */
"                                  ",
"                                  ",
"             XXXXXXXX  XX         ",
"            X++++++++XXO+X        ",
"           X+++++++++O++OX        ",
"          X++++++++++++OX         ",
"          X+++++++++++++X         ",
"         X++X+++++X+++++X         ",
"         X+X++++++X++++++X        ",
"         X+X++++++X++++++X        ",
"         X+X++++++X++XX++X        ",
"         X+X++++++X+XX@X+X        ",
"         X+X++++++X+XoXX+XX       ",
"          XX++++++X++XX+++X       ",
"          XX+++++++X++++++X       ",
"           X+++++++X+++++X        ",
"          X++++OOO+X+++OX         ",
"          XOOOOOOOOXOOOX          ",
"          X+OOOOOOOXXXXX          ",
"         .+++++++++.OOX           ",
"        XOOO+++++++.XOX           ",
"        XOOOOOOOOOO.+XOX          ",
"       XOOOOOOOOOOOX++XX          ",
"      X++++OOOOOOOOX+++X          ",
"   XXX+++X+++++X+++X+++X          ",
"  XOO+++XOO+++XOO++X++O.          ",
" XOOOO+XOOOO+XOOOO+X.OO.          ",
" XOOOOXOOOOOOXOOOO+X..OO.         ",
" XOOOOXOOOOOOXOOOOX.O..OO.        ",
"  XXXXXXXXXXXXXXXXXXXX ...        ",
"                                  "
};
