/* XPM */
static char *D21652357852[] = {
/* columns rows colors chars-per-pixel */
"68 62 7 1 ",
"  c None",
". c black",
"X c #300000",
"o c #3F48CC",
"O c #EA3680",
"+ c #FFAEC9",
"@ c #99D9EA",
/* pixels */
"                                                                    ",
"                                                                    ",
"                                                                    ",
"                                                                    ",
"                          XXXXXXXXXXXXXXXX    XXXX                  ",
"                          XXXXXXXXXXXXXXXX    XXXX                  ",
"                        XX++++++++++++++++XXXXOO++XX                ",
"                        XX++++++++++++++++XXXXOO++XX                ",
"                      XX++++++++++++++++++OO++++OOXX                ",
"                      XX++++++++++++++++++OO++++OOXX                ",
"                    XX++++++++++++++++++++++++OOXX                  ",
"                    XX++++++++++++++++++++++++OOXX                  ",
"                    XX++++++++++++++++++++++++++XX                  ",
"                    XX++++++++++++++++++++++++++XX                  ",
"                  XX++++XX++++++++++XX++++++++++XX                  ",
"                  XX++++XX++++++++++XX++++++++++XX                  ",
"                  XX++XX++++++++++++XX++++++++++++XX                ",
"                  XX++XX++++++++++++XX++++++++++++XX                ",
"                  XX++XX++++++++++++XX++++++++++++XX                ",
"                  XX++XX++++++++++++XX++++++++++++XX                ",
"                  XX++XX++++++++++++XX++++XXXX++++XX                ",
"                  XX++XX++++++++++++XX++++XXXX++++XX                ",
"                  XX++XX++++++++++++XX++XXXX@@XX++XX                ",
"                  XX++XX++++++++++++XX++XXXX@@XX++XX                ",
"                  XX++XX++++++++++++XX++XXooXXXX++XXXX              ",
"                  XX++XX++++++++++++XX++XXooXXXX++XXXX              ",
"                    XXXX++++++++++++XX++++XXXX++++++XX              ",
"                    XXXX++++++++++++XX++++XXXX++++++XX              ",
"                    XXXX++++++++++++++XX++++++++++++XX              ",
"                    XXXX++++++++++++++XX++++++++++++XX              ",
"                      XX++++++++++++++XX++++++++++XX                ",
"                      XX++++++++++++++XX++++++++++XX                ",
"                    XX++++++++OOOOOO++XX++++++OOXX                  ",
"                    XX++++++++OOOOOO++XX++++++OOXX                  ",
"                    XXOOOOOOOOOOOOOOOOXXOOOOOOXX                    ",
"                    XXOOOOOOOOOOOOOOOOXXOOOOOOXX                    ",
"                    XX++OOOOOOOOOOOOOOXXXXXXXXXX                    ",
"                    XX++OOOOOOOOOOOOOOXXXXXXXXXX                    ",
"                  ..++++++++++++++++++..OOOOXX                      ",
"                  ..++++++++++++++++++..OOOOXX                      ",
"                XXOOOOOO++++++++++++++..XXOOXX                      ",
"                XXOOOOOO++++++++++++++..XXOOXX                      ",
"                XXOOOOOOOOOOOOOOOOOOOO..++XXOOXX                    ",
"                XXOOOOOOOOOOOOOOOOOOOO..++XXOOXX                    ",
"              XXOOOOOOOOOOOOOOOOOOOOOOXX++++XXXX                    ",
"              XXOOOOOOOOOOOOOOOOOOOOOOXX++++XXXX                    ",
"            XX++++++++OOOOOOOOOOOOOOOOXX++++++XX                    ",
"            XX++++++++OOOOOOOOOOOOOOOOXX++++++XX                    ",
"      XXXXXX++++++XX++++++++++XX++++++XX++++++XX                    ",
"      XXXXXX++++++XX++++++++++XX++++++XX++++++XX                    ",
"    XXOOOO++++++XXOOOO++++++XXOOOO++++XX++++OO..                    ",
"    XXOOOO++++++XXOOOO++++++XXOOOO++++XX++++OO..                    ",
"  XXOOOOOOOO++XXOOOOOOOO++XXOOOOOOOO++XX..OOOO..                    ",
"  XXOOOOOOOO++XXOOOOOOOO++XXOOOOOOOO++XX..OOOO..                    ",
"  XXOOOOOOOOXXOOOOOOOOOOOOXXOOOOOOOO++XX....OOOO..                  ",
"  XXOOOOOOOOXXOOOOOOOOOOOOXXOOOOOOOO++XX....OOOO..                  ",
"  XXOOOOOOOOXXOOOOOOOOOOOOXXOOOOOOOOXX..OO....OOOO..                ",
"  XXOOOOOOOOXXOOOOOOOOOOOOXXOOOOOOOOXX..OO....OOOO..                ",
"    XXXXXXXXXXXXXXXXXXXXXXXXXXXXXXXXXXXXXXXX  ......                ",
"    XXXXXXXXXXXXXXXXXXXXXXXXXXXXXXXXXXXXXXXX  ......                ",
"                                                                    ",
"                                                                    "
};
