/* XPM */
static char *eg31652358162[] = {
/* columns rows colors chars-per-pixel */
"68 62 5 1 ",
"  c None",
". c black",
"X c #EA3680",
"o c #FFAEC9",
"O c gray99",
/* pixels */
"                                                                    ",
"                                                                    ",
"                                                                    ",
"                                                                    ",
"                                                                    ",
"                                                                    ",
"                            ....                                    ",
"                            ....                                    ",
"                        ....oo..                                    ",
"                        ....oo..                                    ",
"                      ..oooooo..                                    ",
"                      ..oooooo..                                    ",
"                        ....oo..                                    ",
"                        ....oo..                                    ",
"                            ..                                      ",
"                            ..                                      ",
"                  ..                                ....            ",
"                  ..                                ....            ",
"                ..oo..                            ..oo..            ",
"                ..oo..                            ..oo..            ",
"                ..oo......      ........        ..oooooo..          ",
"                ..oo......      ........        ..oooooo..          ",
"                ..XXoooooo..  ............  ....oooooooo..          ",
"                ..XXoooooo..  ............  ....oooooooo..          ",
"                ..XXXXXXXX..  ..OO....OO......ooooXXXXXX..          ",
"                ..XXXXXXXX..  ..OO....OO......ooooXXXXXX..          ",
"                  ..........  ................XXXXXXXXXX..          ",
"                  ..........  ................XXXXXXXXXX..          ",
"                              ....OOOO..........ooXXXX..            ",
"                              ....OOOO..........ooXXXX..            ",
"                      ....  ......OOOO......    ......              ",
"                      ....  ......OOOO......    ......              ",
"                      ............................                  ",
"                      ............................                  ",
"                    ..oooooooo............oo..ooXX..                ",
"                    ..oooooooo............oo..ooXX..                ",
"                    ..ooooooooXX..XXXXoooooo..XXXX..                ",
"                    ..ooooooooXX..XXXXoooooo..XXXX..                ",
"                    ....ooXX..XXXXoooooooooo....oo..                ",
"                    ....ooXX..XXXXoooooooooo....oo..                ",
"                    ..XX....XXoooo..ooooooXX..oooo..                ",
"                    ..XX....XXoooo..ooooooXX..oooo..                ",
"                    ..XXXXXX..oooo..ooooXX..XXoooo..                ",
"                    ..XXXXXX..oooo..ooooXX..XXoooo..                ",
"                    ..XXoooo..oooo....XXXX..oooooo..                ",
"                    ..XXoooo..oooo....XXXX..oooooo..                ",
"                    ..ooooooooooXX..XXXXoooooooooo..                ",
"                    ..ooooooooooXX..XXXXoooooooooo..                ",
"                      ..ooooooXXXXXXXXooooooooXX..                  ",
"                      ..ooooooXXXXXXXXooooooooXX..                  ",
"                      ..ooXXXXXXXXooooooooooXXXX..                  ",
"                      ..ooXXXXXXXXooooooooooXXXX..                  ",
"                      ..XXXXXXooooooooooooXXXXXX..                  ",
"                      ..XXXXXXooooooooooooXXXXXX..                  ",
"                        ....ooooooooooooXXXX....                    ",
"                        ....ooooooooooooXXXX....                    ",
"                            ..ooooooooXXXX..                        ",
"                            ..ooooooooXXXX..                        ",
"                              ............                          ",
"                              ............                          ",
"                                                                    ",
"                                                                    "
};
