/* XPM */
static char *egg21652186560[] = {
/* columns rows colors chars-per-pixel */
"34 31 4 1 ",
"  c None",
". c black",
"X c #EA3680",
"o c #FFAEC9",
/* pixels */
"                                  ",
"                                  ",
"                                  ",
"                                  ",
"                                  ",
"                                  ",
"                                  ",
"                                  ",
"                                  ",
"                                  ",
"                                  ",
"                                  ",
"                ....              ",
"              ..XXoo..            ",
"             .XXoooooX.           ",
"            .XXooooooXX.          ",
"           .XXoooooXXXo.          ",
"           .XoooooXXXooo.         ",
"          .oooooXXXXoooo.         ",
"          .oooXXXXoooooX.         ",
"          .oXXXXooooooXX.         ",
"          .XXXXooooooXXo.         ",
"          .XooooooooXXoo.         ",
"          .ooooooXXXXooo.         ",
"          .oooooXXXXoooo.         ",
"          .oooXXXXooooo.          ",
"           .oXXXooooooX.          ",
"           .XXXooooooX.           ",
"            ..oooooXX..           ",
"              .......             ",
"                                  "
};
