/* XPM */
static char *egg31652186560[] = {
/* columns rows colors chars-per-pixel */
"34 31 5 1 ",
"  c None",
". c black",
"X c #EA3680",
"o c #FFAEC9",
"O c gray99",
/* pixels */
"                                  ",
"                                  ",
"                                  ",
"              ..                  ",
"            ..o.                  ",
"           .ooo.                  ",
"            ..o.                  ",
"              .                   ",
"         .                ..      ",
"        .o.              .o.      ",
"        .o...   ....    .ooo.     ",
"        .Xooo. ...... ..oooo.     ",
"        .XXXX. .O..O...ooXXX.     ",
"         ..... ........XXXXX.     ",
"               ..OO.....oXX.      ",
"           .. ...OO...  ...       ",
"           ..............         ",
"          .oooo......o.oX.        ",
"          .ooooX.XXooo.XX.        ",
"          ..oX.XXooooo..o.        ",
"          .X..Xoo.oooX.oo.        ",
"          .XXX.oo.ooX.Xoo.        ",
"          .Xoo.oo..XX.ooo.        ",
"          .oooooX.XXooooo.        ",
"           .oooXXXXooooX.         ",
"           .oXXXXoooooXX.         ",
"           .XXXooooooXXX.         ",
"            ..ooooooXX..          ",
"              .ooooXX.            ",
"               ......             ",
"                                  "
};
