/* XPM */
static char *S01652357850[] = {
/* columns rows colors chars-per-pixel */
"68 62 6 1 ",
"  c None",
". c #300000",
"X c #3F48CC",
"o c #EA3680",
"O c #FFAEC9",
"+ c #99D9EA",
/* pixels */
"                                                                    ",
"                                                                    ",
"                                ....                                ",
"                                ....                                ",
"                            ....oooo....                            ",
"                            ....oooo....                            ",
"                        ....oo..OOOO..oo....                        ",
"                        ....oo..OOOO..oo....                        ",
"                    ....OOOOooooOOOOooooOOOO....                    ",
"                    ....OOOOooooOOOOooooOOOO....                    ",
"                  ..ooOOOOOOooOOOOOOOOooOOOOOOoo..                  ",
"                  ..ooOOOOOOooOOOOOOOOooOOOOOOoo..                  ",
"                ..OOOOOOOOOOOOOOOOOOOOOOOOOOOOOOOO..                ",
"                ..OOOOOOOOOOOOOOOOOOOOOOOOOOOOOOOO..                ",
"                ..OOooOOOOOOOOOOOOOOOOOOOOOOOOooOO..                ",
"                ..OOooOOOOOOOOOOOOOOOOOOOOOOOOooOO..                ",
"              ..OOooooOOOOOOOOOOOOOOOOOOOOOOOOooooOO..              ",
"              ..OOooooOOOOOOOOOOOOOOOOOOOOOOOOooooOO..              ",
"              ..OO..OOOOOOOOOOOOOOOOOOOOOOOOOOOO..OO..              ",
"              ..OO..OOOOOOOOOOOOOOOOOOOOOOOOOOOO..OO..              ",
"              ..OO..OOOO....OOOOOOOOOOOO....OOOO..OO..              ",
"              ..OO..OOOO....OOOOOOOOOOOO....OOOO..OO..              ",
"              ..OO..OO....++..OOOOOOOO..++....OO..OO..              ",
"              ..OO..OO....++..OOOOOOOO..++....OO..OO..              ",
"              ..OO..OO..XX....OOOOOOOO....XX..OO..OO..              ",
"              ..OO..OO..XX....OOOOOOOO....XX..OO..OO..              ",
"            ..OOOO..OOOO....OOOOOOOOOOOO....OOOO..OOOO..            ",
"            ..OOOO..OOOO....OOOOOOOOOOOO....OOOO..OOOO..            ",
"            ..OOOO..OOOOOOOOOOOO....OOOOOOOOOOOO..OOOO..            ",
"            ..OOOO..OOOOOOOOOOOO....OOOOOOOOOOOO..OOOO..            ",
"            ..OOOO..ooOOOOOOOOOOOOOOOOOOOOOOOOoo..OOOO..            ",
"            ..OOOO..ooOOOOOOOOOOOOOOOOOOOOOOOOoo..OOOO..            ",
"            ..OOOOOO..ooOOOOOOOOOOOOOOOOOOOOoo..OOOOOO..            ",
"            ..OOOOOO..ooOOOOOOOOOOOOOOOOOOOOoo..OOOOOO..            ",
"            ..ooOOOO....ooooOOOOOOOOOOOOoooo....OOOOoo..            ",
"            ..ooOOOO....ooooOOOOOOOOOOOOoooo....OOOOoo..            ",
"            ..ooooOO............................OOoooo..            ",
"            ..ooooOO............................OOoooo..            ",
"          ..OOoooooo....ooOOooooooooooooOOoo....ooooooOO..          ",
"          ..OOoooooo....ooOOooooooooooooOOoo....ooooooOO..          ",
"          ..OOOOOOOO..ooOOOOOOooooooooOOOOOOoo..OOOOOOOO..          ",
"          ..OOOOOOOO..ooOOOOOOooooooooOOOOOOoo..OOOOOOOO..          ",
"          ..ooooOOOO..OOOOOOOOOOooooOOOOOOOOOO..OOOOoooo..          ",
"          ..ooooOOOO..OOOOOOOOOOooooOOOOOOOOOO..OOOOoooo..          ",
"          ..ooooooOO..OOooOOOOOOooooOOOOOOooOO..OOoooooo..          ",
"          ..ooooooOO..OOooOOOOOOooooOOOOOOooOO..OOoooooo..          ",
"        ..oooooooooo..OOooOOOOOOOOOOOOOOOOooOO..oooooooooo..        ",
"        ..oooooooooo..OOooOOOOOOOOOOOOOOOOooOO..oooooooooo..        ",
"        ..OOOOOOOOOO..oo..OOOOOOOOOOOOOOOO..oo..OOOOOOOOOO..        ",
"        ..OOOOOOOOOO..oo..OOOOOOOOOOOOOOOO..oo..OOOOOOOOOO..        ",
"      ..oooo..ooooOO....OOOOOOOOOOOOOOOOOOOO....OOoooo..oooo..      ",
"      ..oooo..ooooOO....OOOOOOOOOOOOOOOOOOOO....OOoooo..oooo..      ",
"    ..oooooo..oooooo....ooOOOOooOOOOooOOOOoo....oooooo..oooooo..    ",
"    ..oooooo..oooooo....ooOOOOooOOOOooOOOOoo....oooooo..oooooo..    ",
"  ..oooooo..oooooo........oooooo....oooooo........oooooo..oooooo..  ",
"  ..oooooo..oooooo........oooooo....oooooo........oooooo..oooooo..  ",
"  ..oooo..oooooooo..  ....oooo........oooo....  ..oooooooo..oooo..  ",
"  ..oooo..oooooooo..  ....oooo........oooo....  ..oooooooo..oooo..  ",
"    ..............      ........    ........      ..............    ",
"    ..............      ........    ........      ..............    ",
"                                                                    ",
"                                                                    "
};
