/* XPM */
static char *S11652357850[] = {
/* columns rows colors chars-per-pixel */
"68 62 5 1 ",
"  c None",
". c #001000",
"X c #300000",
"o c #EA3680",
"O c #FFAEC9",
/* pixels */
"                                                                    ",
"                                                                    ",
"                                                                    ",
"                                                                    ",
"                                XXXX                                ",
"                                XXXX                                ",
"                            XXXXooooXXXX                            ",
"                            XXXXooooXXXX                            ",
"                        XXXXooXXOOOOXXooXXXX                        ",
"                        XXXXooXXOOOOXXooXXXX                        ",
"                    XXXXOOOOooooOOOOooooOOOOXXXX                    ",
"                    XXXXOOOOooooOOOOooooOOOOXXXX                    ",
"                  XXooOOOOOOooOOOOOOOOooOOOOOOooXX                  ",
"                  XXooOOOOOOooOOOOOOOOooOOOOOOooXX                  ",
"                XXOOOOOOOOOOOOOOOOOOOOOOOOOOOOOOOOXX                ",
"                XXOOOOOOOOOOOOOOOOOOOOOOOOOOOOOOOOXX                ",
"                XXOOooOOOOOOOOOOOOOOOOOOOOOOOOooOOXX                ",
"                XXOOooOOOOOOOOOOOOOOOOOOOOOOOOooOOXX                ",
"              XXOOooooOOOOOOOOOOOOOOOOOOOOOOOOooooOOXX              ",
"              XXOOooooOOOOOOOOOOOOOOOOOOOOOOOOooooOOXX              ",
"              XXOOXXOOOOOOOOooOOOOOOOOooOOOOOOOOXXOOXX              ",
"              XXOOXXOOOOOOOOooOOOOOOOOooOOOOOOOOXXOOXX              ",
"              XXOOXXOOOOOOOOOOOOOOOOOOOOOOOOOOOOXXOOXX              ",
"              XXOOXXOOOOOOOOOOOOOOOOOOOOOOOOOOOOXXOOXX              ",
"              XXOOXXOOOO....OOOOOOOOOOOO....OOOOXXOOXX              ",
"              XXOOXXOOOO....OOOOOOOOOOOO....OOOOXXOOXX              ",
"              XXOOXXOO..OOOO..OOOOOOOO..OOOO..OOXXOOXX              ",
"              XXOOXXOO..OOOO..OOOOOOOO..OOOO..OOXXOOXX              ",
"            XXOOOOXXOOOOOOOOOOOOOOOOOOOOOOOOOOOOXXOOOOXX            ",
"            XXOOOOXXOOOOOOOOOOOOOOOOOOOOOOOOOOOOXXOOOOXX            ",
"            XXOOOOXXOOOOOOOOOOOOXXXXOOOOOOOOOOOOXXOOOOXX            ",
"            XXOOOOXXOOOOOOOOOOOOXXXXOOOOOOOOOOOOXXOOOOXX            ",
"            XXOOOOXXooOOOOOOOOOOOOOOOOOOOOOOOOooXXOOOOXX            ",
"            XXOOOOXXooOOOOOOOOOOOOOOOOOOOOOOOOooXXOOOOXX            ",
"            XXOOOOOOXXooOOOOOOOOOOOOOOOOOOOOooXXOOOOOOXX            ",
"            XXOOOOOOXXooOOOOOOOOOOOOOOOOOOOOooXXOOOOOOXX            ",
"            XXooOOOOXXXXooooOOOOOOOOOOOOooooXXXXOOOOooXX            ",
"            XXooOOOOXXXXooooOOOOOOOOOOOOooooXXXXOOOOooXX            ",
"            XXooooOOXXXXXXXXXXXXXXXXXXXXXXXXXXXXOOooooXX            ",
"            XXooooOOXXXXXXXXXXXXXXXXXXXXXXXXXXXXOOooooXX            ",
"          XXOOooooooXXXXooOOooooooooooooOOooXXXXooooooOOXX          ",
"          XXOOooooooXXXXooOOooooooooooooOOooXXXXooooooOOXX          ",
"          XXOOOOOOOOXXooOOOOOOooooooooOOOOOOooXXOOOOOOOOXX          ",
"          XXOOOOOOOOXXooOOOOOOooooooooOOOOOOooXXOOOOOOOOXX          ",
"          XXooooOOOOXXOOOOOOOOOOooooOOOOOOOOOOXXOOOOooooXX          ",
"          XXooooOOOOXXOOOOOOOOOOooooOOOOOOOOOOXXOOOOooooXX          ",
"        XXooooooooooXXOOooOOOOOOOOOOOOOOOOooOOXXooooooooooXX        ",
"        XXooooooooooXXOOooOOOOOOOOOOOOOOOOooOOXXooooooooooXX        ",
"        XXOOOOOOOOOOXXooXXOOOOOOOOOOOOOOOOXXooXXOOOOOOOOOOXX        ",
"        XXOOOOOOOOOOXXooXXOOOOOOOOOOOOOOOOXXooXXOOOOOOOOOOXX        ",
"      XXooooXXooooOOXXXXOOOOOOOOOOOOOOOOOOOOXXXXOOooooXXooooXX      ",
"      XXooooXXooooOOXXXXOOOOOOOOOOOOOOOOOOOOXXXXOOooooXXooooXX      ",
"    XXooooooXXooooooXXXXooOOOOooOOOOooOOOOooXXXXooooooXXooooooXX    ",
"    XXooooooXXooooooXXXXooOOOOooOOOOooOOOOooXXXXooooooXXooooooXX    ",
"  XXooooooXXooooooXXXXXXXXooooooXXXXooooooXXXXXXXXooooooXXooooooXX  ",
"  XXooooooXXooooooXXXXXXXXooooooXXXXooooooXXXXXXXXooooooXXooooooXX  ",
"  XXooooXXooooooooXX  XXXXooooXXXXXXXXooooXXXX  XXooooooooXXooooXX  ",
"  XXooooXXooooooooXX  XXXXooooXXXXXXXXooooXXXX  XXooooooooXXooooXX  ",
"    XXXXXXXXXXXXXX      XXXXXXXX    XXXXXXXX      XXXXXXXXXXXXXX    ",
"    XXXXXXXXXXXXXX      XXXXXXXX    XXXXXXXX      XXXXXXXXXXXXXX    ",
"                                                                    ",
"                                                                    "
};
