/* XPM */
static char *W01652186561[] = {
/* columns rows colors chars-per-pixel */
"34 31 4 1 ",
"  c None",
". c #300000",
"X c #EA3680",
"o c #FFAEC9",
/* pixels */
"                                  ",
"                                  ",
"                ..                ",
"             ...oo...             ",
"           ..oooooooo..           ",
"         ..oooooooooooo..         ",
"        .oooooooooooooooo.        ",
"        .ooXooooooooooXoo.        ",
"       .ooo.oooooooooo.ooo.       ",
"       .ooX.oooooooooo.Xoo.       ",
"       .oo.XooooooooooX.oo.       ",
"       .oo.oooooooooooo.oo.       ",
"       .oo.oooooooooooo.oo.       ",
"      .ooo.oooooooooooo.ooo.      ",
"      .ooo.oooooooooooo.ooo.      ",
"      .ooo.oooooooooooo.ooo.      ",
"      .ooo.XooooooooooX.ooo.      ",
"      .Xoo..XooooooooX..ooX.      ",
"      .ooo..............ooo.      ",
"     .oooo..X.XXXXXX.X..oooo.     ",
"     .XXoo..Xo......oX..ooXX.     ",
"     .XXXo.XooooooooooX.oXXX.     ",
"     .Xooo.XooooooooooX.oooX.     ",
"     .ooooX.oooooooooo.Xoooo.     ",
"    .XooXoo.oooo..oooo.ooXooX.    ",
"   .XooXXoo.ooo.oo.ooo.ooXXooX.   ",
"  .XXX..XXX..ooXXXXoo..XXX..XXX.  ",
" .XXX.XXXXX..XXX..XXX..XXXXX.XXX. ",
" .XX.XXXXX...XX....XX...XXXXX.XX. ",
"  ..............................  ",
"                                  "
};
