/* XPM */
static char *W01652357851[] = {
/* columns rows colors chars-per-pixel */
"68 62 4 1 ",
"  c None",
". c #300000",
"X c #EA3680",
"o c #FFAEC9",
/* pixels */
"                                                                    ",
"                                                                    ",
"                                                                    ",
"                                                                    ",
"                                ....                                ",
"                                ....                                ",
"                          ......oooo......                          ",
"                          ......oooo......                          ",
"                      ....oooooooooooooooo....                      ",
"                      ....oooooooooooooooo....                      ",
"                  ....oooooooooooooooooooooooo....                  ",
"                  ....oooooooooooooooooooooooo....                  ",
"                ..oooooooooooooooooooooooooooooooo..                ",
"                ..oooooooooooooooooooooooooooooooo..                ",
"                ..ooooXXooooooooooooooooooooXXoooo..                ",
"                ..ooooXXooooooooooooooooooooXXoooo..                ",
"              ..oooooo..oooooooooooooooooooo..oooooo..              ",
"              ..oooooo..oooooooooooooooooooo..oooooo..              ",
"              ..ooooXX..oooooooooooooooooooo..XXoooo..              ",
"              ..ooooXX..oooooooooooooooooooo..XXoooo..              ",
"              ..oooo..XXooooooooooooooooooooXX..oooo..              ",
"              ..oooo..XXooooooooooooooooooooXX..oooo..              ",
"              ..oooo..oooooooooooooooooooooooo..oooo..              ",
"              ..oooo..oooooooooooooooooooooooo..oooo..              ",
"              ..oooo..oooooooooooooooooooooooo..oooo..              ",
"              ..oooo..oooooooooooooooooooooooo..oooo..              ",
"            ..oooooo..oooooooooooooooooooooooo..oooooo..            ",
"            ..oooooo..oooooooooooooooooooooooo..oooooo..            ",
"            ..oooooo..oooooooooooooooooooooooo..oooooo..            ",
"            ..oooooo..oooooooooooooooooooooooo..oooooo..            ",
"            ..oooooo..oooooooooooooooooooooooo..oooooo..            ",
"            ..oooooo..oooooooooooooooooooooooo..oooooo..            ",
"            ..oooooo..XXooooooooooooooooooooXX..oooooo..            ",
"            ..oooooo..XXooooooooooooooooooooXX..oooooo..            ",
"            ..XXoooo....XXooooooooooooooooXX....ooooXX..            ",
"            ..XXoooo....XXooooooooooooooooXX....ooooXX..            ",
"            ..oooooo............................oooooo..            ",
"            ..oooooo............................oooooo..            ",
"          ..oooooooo....XX..XXXXXXXXXXXX..XX....oooooooo..          ",
"          ..oooooooo....XX..XXXXXXXXXXXX..XX....oooooooo..          ",
"          ..XXXXoooo....XXoo............ooXX....ooooXXXX..          ",
"          ..XXXXoooo....XXoo............ooXX....ooooXXXX..          ",
"          ..XXXXXXoo..XXooooooooooooooooooooXX..ooXXXXXX..          ",
"          ..XXXXXXoo..XXooooooooooooooooooooXX..ooXXXXXX..          ",
"          ..XXoooooo..XXooooooooooooooooooooXX..ooooooXX..          ",
"          ..XXoooooo..XXooooooooooooooooooooXX..ooooooXX..          ",
"          ..ooooooooXX..oooooooooooooooooooo..XXoooooooo..          ",
"          ..ooooooooXX..oooooooooooooooooooo..XXoooooooo..          ",
"        ..XXooooXXoooo..oooooooo....oooooooo..ooooXXooooXX..        ",
"        ..XXooooXXoooo..oooooooo....oooooooo..ooooXXooooXX..        ",
"      ..XXooooXXXXoooo..oooooo..oooo..oooooo..ooooXXXXooooXX..      ",
"      ..XXooooXXXXoooo..oooooo..oooo..oooooo..ooooXXXXooooXX..      ",
"    ..XXXXXX....XXXXXX....ooooXXXXXXXXoooo....XXXXXX....XXXXXX..    ",
"    ..XXXXXX....XXXXXX....ooooXXXXXXXXoooo....XXXXXX....XXXXXX..    ",
"  ..XXXXXX..XXXXXXXXXX....XXXXXX....XXXXXX....XXXXXXXXXX..XXXXXX..  ",
"  ..XXXXXX..XXXXXXXXXX....XXXXXX....XXXXXX....XXXXXXXXXX..XXXXXX..  ",
"  ..XXXX..XXXXXXXXXX......XXXX........XXXX......XXXXXXXXXX..XXXX..  ",
"  ..XXXX..XXXXXXXXXX......XXXX........XXXX......XXXXXXXXXX..XXXX..  ",
"    ............................................................    ",
"    ............................................................    ",
"                                                                    ",
"                                                                    "
};
