/* XPM */
static char *W31652357851[] = {
/* columns rows colors chars-per-pixel */
"68 62 5 1 ",
"  c None",
". c black",
"X c #300000",
"o c #EA3680",
"O c #FFAEC9",
/* pixels */
"                                                                    ",
"                                                                    ",
"                                                                    ",
"                                                                    ",
"                                                                    ",
"                                                                    ",
"                                XXXX                                ",
"                                XXXX                                ",
"                          XXXXXXOOOOXXXXXX                          ",
"                          XXXXXXOOOOXXXXXX                          ",
"                      XXXXOOOOOOOOOOOOOOOOXXXX                      ",
"                      XXXXOOOOOOOOOOOOOOOOXXXX                      ",
"                  XXXXOOOOOOOOOOOOOOOOOOOOOOOOXXXX                  ",
"                  XXXXOOOOOOOOOOOOOOOOOOOOOOOOXXXX                  ",
"                XXOOOOOOOOOOOOOOOOOOOOOOOOOOOOOOOOXX                ",
"                XXOOOOOOOOOOOOOOOOOOOOOOOOOOOOOOOOXX                ",
"                XXOOOOooOOOOOOOOOOOOOOOOOOOOooOOOOXX                ",
"                XXOOOOooOOOOOOOOOOOOOOOOOOOOooOOOOXX                ",
"              XXOOOOOOXXOOOOOOOOOOOOOOOOOOOOXXOOOOOOXX              ",
"              XXOOOOOOXXOOOOOOOOOOOOOOOOOOOOXXOOOOOOXX              ",
"              XXOOOOooXXOOOOOOOOOOOOOOOOOOOOXXooOOOOXX              ",
"              XXOOOOooXXOOOOOOOOOOOOOOOOOOOOXXooOOOOXX              ",
"              XXOOOOXXooOOOOOOOOOOOOOOOOOOOOooXXOOOOXX              ",
"              XXOOOOXXooOOOOOOOOOOOOOOOOOOOOooXXOOOOXX              ",
"              XXOOOOXXOOOOOOOOOOOOOOOOOOOOOOOOXXOOOOXX              ",
"              XXOOOOXXOOOOOOOOOOOOOOOOOOOOOOOOXXOOOOXX              ",
"              XXOOOOXXOOOOOOOOOOOOOOOOOOOOOOOOXXOOOOXX              ",
"              XXOOOOXXOOOOOOOOOOOOOOOOOOOOOOOOXXOOOOXX              ",
"            XXOOOOOOXXOOOOOOOOOOOOOOOOOOOOOOOOXXOOOOOOXX            ",
"            XXOOOOOOXXOOOOOOOOOOOOOOOOOOOOOOOOXXOOOOOOXX            ",
"            XXOOOOOOXXOOOOOOOOOOOOOOOOOOOOOOOOXXOOOOOOXX            ",
"            XXOOOOOOXXOOOOOOOOOOOOOOOOOOOOOOOOXXOOOOOOXX            ",
"            XXOOOOOOXXOOOOOOOOOOOOOOOOOOOOOOOOXXOOOOOOXX            ",
"            XXOOOOOOXXOOOOOOOOOOOOOOOOOOOOOOOOXXOOOOOOXX            ",
"            XXOOOOOOXXooOOOOOOOOOOOOOOOOOOOOooXXOOOOOOXX            ",
"            XXOOOOOOXXooOOOOOOOOOOOOOOOOOOOOooXXOOOOOOXX            ",
"            XXooOOOOXXXXooOOOOOOOOOOOOOOOOooXXXXOOOOooXX            ",
"            XXooOOOOXXXXooOOOOOOOOOOOOOOOOooXXXXOOOOooXX            ",
"            XXOOOOOOXXXXXXXXXXXXXXXXXXXXXXXXXXXXOOOOOOXX            ",
"            XXOOOOOOXXXXXXXXXXXXXXXXXXXXXXXXXXXXOOOOOOXX            ",
"          XXOOOOOOOOXXXXooXXooooooooooooXXooXXXXOOOOOOOOXX          ",
"          XXOOOOOOOOXXXXooXXooooooooooooXXooXXXXOOOOOOOOXX          ",
"          XXooooOOOOXXXXooOOXXXXXXXXXXXXOOooXXXXOOOOooooXX          ",
"          XXooooOOOOXXXXooOOXXXXXXXXXXXXOOooXXXXOOOOooooXX          ",
"          XXooooooOOXXooOOOOOOOOOOOOOOOOOOOOooXXOOooooooXX          ",
"          XXooooooOOXXooOOOOOOOOOOOOOOOOOOOOooXXOOooooooXX          ",
"          XXOOOOOOOOooXXOOOOOOOOOOOOOOOOOOOOXXooOOOOOOOOXX          ",
"          XXOOOOOOOOooXXOOOOOOOOOOOOOOOOOOOOXXooOOOOOOOOXX          ",
"        XXooOOOOooOOOOXXOOOOOOOOXXXXOOOOOOOOXXOOOOooOOOOooXX        ",
"        XXooOOOOooOOOOXXOOOOOOOOXXXXOOOOOOOOXXOOOOooOOOOooXX        ",
"      XXooOOOOooooOOOOXXOOOOOOXXOOOOXXOOOOOOXXOOOOooooOOOOooXX      ",
"      XXooOOOOooooOOOOXXOOOOOOXXOOOOXXOOOOOOXXOOOOooooOOOOooXX      ",
"    XXooooooXXXXooooooXXXXOOOOooooooooOOOOXXXXooooooXXXXooooooXX    ",
"    XXooooooXXXXooooooXXXXOOOOooooooooOOOOXXXXooooooXXXXooooooXX    ",
"  XXooooooXXooooooooooXXXXooooooXXXXooooooXXXXooooooooooXXooooooXX  ",
"  XXooooooXXooooooooooXXXXooooooXXXXooooooXXXXooooooooooXXooooooXX  ",
"  XXooooXXooooooooooXXXXXXooooXXXXXX......XXXXXXooooooooooXXooooXX  ",
"  XXooooXXooooooooooXXXXXXooooXXXXXX......XXXXXXooooooooooXXooooXX  ",
"    XXXXXXXXXXXXXXXXXXXXXXXXXXXX            XXXXXXXXXXXXXXXXXXXX    ",
"    XXXXXXXXXXXXXXXXXXXXXXXXXXXX            XXXXXXXXXXXXXXXXXXXX    ",
"                                                                    ",
"                                                                    "
};
