/* XPM */
static char *X1652186560[] = {
/* columns rows colors chars-per-pixel */
"34 31 8 1 ",
"  c None",
". c black",
"X c #300000",
"o c gray50",
"O c #EA3680",
"+ c #FFAEC9",
"@ c #C3C3C3",
"# c gray99",
/* pixels */
"                XX                ",
"              XXOOXX .....        ",
"            XXOX++XOX#####.       ",
"          XX++OO++O.#######.      ",
"         XO+++O+++.#o#o#o#o#X     ",
"        XX++++++++.##o###o##X     ",
"        X++O++++++.#o#o#o#o#.     ",
"       X++OO++++++.#########.     ",
"       X++X++++++++.###o####.     ",
"       X++X+++++++++.##o###.      ",
"       X++X+++O+++++.#####X       ",
"       X++X+OOX++++.#####.X       ",
"      X+++X+XX+++++.##...++X      ",
"      X+++X+++++XX+.#.+X+++X      ",
"      X+++XO++++++++.+OX+++X      ",
"      XO++OXO++++++++OXO++OX      ",
"       XO+OXXXOOOOOOXXXO+OX       ",
"      XXXXXXXXXXXXXXXXXXXXXX      ",
"      X@oo@X@oo@XX@oo@X@oo@X      ",
"     XooXXoooXXooooXXoooXXooX     ",
"      X@oo@X@oo@XX@oo@X@oo@X      ",
"      XXXXXOXXXXOOXXXXOXXXXX      ",
"       X++OXOOOO++OOOOXO++X       ",
"      XX+++X++++++++++X+++XX      ",
"      X++++X++++++++++X++++X      ",
"      XOOOOXX++++++++XXOOOOX      ",
"      XOOOOXXOOOXXOOOXXOOOOX      ",
"       XOOXXXOOOXXOOOXXXOOX       ",
"       XOOXXXOOXXXXOOXXXOOX       ",
"       XOOX  XX    XX  XOOX       ",
"        XX              XX        "
};
