/* XPM */
static char *dgi1652357462[] = {
/* columns rows colors chars-per-pixel */
"68 62 3 1 ",
"  c None",
". c #FFF200",
"X c #373FB3",
/* pixels */
"                                                                    ",
"                                                                    ",
"                                                                    ",
"                                                                    ",
"                                                                    ",
"                                                                    ",
"                                        XXXXXXXXXXXXXXXXXXXXXX      ",
"                                        XXXXXXXXXXXXXXXXXXXXXX      ",
"                                  XXXXXXXXXXXXXXXXXXXXXXXXXXXX      ",
"                                  XXXXXXXXXXXXXXXXXXXXXXXXXXXX      ",
"                                  XXXXXXXXXXXXXXXXXXXXXXXXXXXXXXXXXX",
"                                  XXXXXXXXXXXXXXXXXXXXXXXXXXXXXXXXXX",
"                                  XXXXXX  XXXXXXXXXXXXXXXXXXXXXXXXXX",
"                                  XXXXXX  XXXXXXXXXXXXXXXXXXXXXXXXXX",
"                              XXXXXXXXXX    XXXXXXXXXXXXXXXXXXXXXXXX",
"                              XXXXXXXXXX    XXXXXXXXXXXXXXXXXXXXXXXX",
"                              XXXXXXXXXXXXXXXXXXXX  XXXX  XXXX  XXXX",
"                              XXXXXXXXXXXXXXXXXXXX  XXXX  XXXX  XXXX",
"                              XXXXXXXXXXXXXXXXXXXX                  ",
"                              XXXXXXXXXXXXXXXXXXXX                  ",
"  ..  ....  ......  ......  ..XXXXXXXXXXXXXXXXXXXX                  ",
"  ..  ....  ......  ......  ..XXXXXXXXXXXXXXXXXXXX                  ",
"                            XX  XXXXXXXXXXXXXXXXXX  XXXX  XXXX  XXXX",
"                            XX  XXXXXXXXXXXXXXXXXX  XXXX  XXXX  XXXX",
"  ..  ....  ......  ......  ..XXXXXXXXXXXXXXXXXXXXXXXXXXXXXXXXXXXXXX",
"  ..  ....  ......  ......  ..XXXXXXXXXXXXXXXXXXXXXXXXXXXXXXXXXXXXXX",
"                            ..XXXXXXXXXXXXXXXXXXXXXXXXXXXXXXXXXXXXXX",
"                            ..XXXXXXXXXXXXXXXXXXXXXXXXXXXXXXXXXXXXXX",
"  ..  ....  ......  ........XX  XXXXXXXXXXXXXXXXXXXXXXXXXXXX        ",
"  ..  ....  ......  ........XX  XXXXXXXXXXXXXXXXXXXXXXXXXXXX        ",
"                          XX  XXXXXXXXXXXX........                  ",
"                          XX  XXXXXXXXXXXX........                  ",
"  ..  ....  ......  ..  XX  XX  XXXXXXXXXXXXXXXXXXXXXXXX            ",
"  ..  ....  ......  ..  XX  XX  XXXXXXXXXXXXXXXXXXXXXXXX            ",
"                          XX  XX  XXXXXXXXXXXXXXXXXXXXXXXXXX        ",
"                          XX  XX  XXXXXXXXXXXXXXXXXXXXXXXXXX        ",
"  ..  ....  ......  ..  XX  XX  XXXXXXXXXX..........XXXXXXXXXXXX    ",
"  ..  ....  ......  ..  XX  XX  XXXXXXXXXX..........XXXXXXXXXXXX    ",
"                          XX  XXXXXXXXXX............XXXXXXXXXXXX    ",
"                          XX  XXXXXXXXXX............XXXXXXXXXXXX    ",
"  ..  ....  ......  ..  XX  XX  XX  XX  ............  XXXX  XXXX    ",
"  ..  ....  ......  ..  XX  XX  XX  XX  ............  XXXX  XXXX    ",
"                          XX  XXXXXXXX  ............                ",
"                          XX  XXXXXXXX  ............                ",
"  ..  ....  ......  ..      XX  XXXX    ............                ",
"  ..  ....  ......  ..      XX  XXXX    ............                ",
"                          XX  XXXXXX  ..............                ",
"                          XX  XXXXXX  ..............                ",
"  ..  ....  ......  ..  XX  XX        ..............                ",
"  ..  ....  ......  ..  XX  XX        ..............                ",
"                                    ..............                  ",
"                                    ..............                  ",
"  ..  ....  ......  ..............................                  ",
"  ..  ....  ......  ..............................                  ",
"                            ......................                  ",
"                            ......................                  ",
"  ..  ....  ......  ............................                    ",
"  ..  ....  ......  ............................                    ",
"                        ......................                      ",
"                        ......................                      ",
"  ..  ....  ......  ........................                        ",
"  ..  ....  ......  ........................                        "
};
