/* XPM */
static char *digi1650738477[] = {
/* columns rows colors chars-per-pixel */
"34 31 3 1 ",
"  c None",
". c #FFF200",
"X c #373FB3",
/* pixels */
"                                  ",
"                                  ",
"                                  ",
"                    XXXXXXXXXXX   ",
"                 XXXXXXXXXXXXXX   ",
"                 XXXXXXXXXXXXXXXXX",
"                 XXX XXXXXXXXXXXXX",
"               XXXXX  XXXXXXXXXXXX",
"               XXXXXXXXXX XX XX XX",
"               XXXXXXXXXX         ",
" . .. ... ... .XXXXXXXXXX         ",
"              X XXXXXXXXX XX XX XX",
" . .. ... ... .XXXXXXXXXXXXXXXXXXX",
"              .XXXXXXXXXXXXXXXXXXX",
" . .. ... ....X XXXXXXXXXXXXXX    ",
"             X XXXXXX....         ",
" . .. ... . X X XXXXXXXXXXXX      ",
"             X X XXXXXXXXXXXXX    ",
" . .. ... . X X XXXXX.....XXXXXX  ",
"             X XXXXX......XXXXXX  ",
" . .. ... . X X X X ...... XX XX  ",
"             X XXXX ......        ",
" . .. ... .   X XX  ......        ",
"             X XXX .......        ",
" . .. ... . X X    .......        ",
"                  .......         ",
" . .. ... ...............         ",
"              ...........         ",
" . .. ... ..............          ",
"            ...........           ",
" . .. ... ............            "
};
