/* XPM */
static char *Egg01650738375[] = {
/* columns rows colors chars-per-pixel */
"34 31 4 1 ",
"  c None",
". c black",
"X c #60B050",
"o c #E0E0C0",
/* pixels */
"                                  ",
"                                  ",
"                                  ",
"                                  ",
"                                  ",
"                                  ",
"                                  ",
"                                  ",
"                                  ",
"                                  ",
"                                  ",
"                                  ",
"               ....               ",
"             ..XXoo..             ",
"            .XXoooooX.            ",
"           .XXooooooX..           ",
"           .ooooooXXXoo.          ",
"          .ooooooXXXooo.          ",
"          .ooooXXXXooooX.         ",
"          .ooXXXXoooooXX.         ",
"          .XXXXooooooXXo.         ",
"          .XXXooooooXXXo.         ",
"          .XoooooooXXooo.         ",
"          .oooooXXXXoooo.         ",
"          .ooooXXXXooooX.         ",
"           .oXXXXoooooXX.         ",
"           .XXXooooooXX.          ",
"            .XooooooXXX.          ",
"            ..oooooXX..           ",
"              .......             ",
"                                  "
};
