/* XPM */
static char *eg31652357462[] = {
/* columns rows colors chars-per-pixel */
"68 62 8 1 ",
"  c None",
". c black",
"X c #60B050",
"o c #75B357",
"O c #CEDDAD",
"+ c #D8E8B5",
"@ c #E0E0C0",
"# c gray99",
/* pixels */
"                                                                    ",
"                                                                    ",
"                                                                    ",
"                                                                    ",
"                                                                    ",
"                                                                    ",
"                            ....                                    ",
"                            ....                                    ",
"                        ....@@..                                    ",
"                        ....@@..                                    ",
"                      ..@@@@@@..                                    ",
"                      ..@@@@@@..                                    ",
"                        ....@@..                                    ",
"                        ....@@..                                    ",
"                            ..                                      ",
"                            ..                                      ",
"                  ..                                ....            ",
"                  ..                                ....            ",
"                ..@@..                            ..@@..            ",
"                ..@@..                            ..@@..            ",
"                ..OO......      ........        ..@@@@@@..          ",
"                ..OO......      ........        ..@@@@@@..          ",
"                ..XX@@@@@@..  ............  ....@@@@@@@@..          ",
"                ..XX@@@@@@..  ............  ....@@@@@@@@..          ",
"                ..XXXXXXXX..  ..##....##......++@@XXXXXX..          ",
"                ..XXXXXXXX..  ..##....##......++@@XXXXXX..          ",
"                  ..........  ................XXXXXXXXXX..          ",
"                  ..........  ................XXXXXXXXXX..          ",
"                              ....####..........ooXXXX..            ",
"                              ....####..........ooXXXX..            ",
"                      ....  ......####......    ......              ",
"                      ....  ......####......    ......              ",
"                      ............................                  ",
"                      ............................                  ",
"                    ..@@@@@@@@............@@..@@XX..                ",
"                    ..@@@@@@@@............@@..@@XX..                ",
"                    ..@@@@@@@@XX..XXXX@@@@@@..XXXX..                ",
"                    ..@@@@@@@@XX..XXXX@@@@@@..XXXX..                ",
"                    ....@@XX..XXXX@@@@@@@@@@....@@..                ",
"                    ....@@XX..XXXX@@@@@@@@@@....@@..                ",
"                    ..XX....XX@@@@..@@@@@@XX..@@@@..                ",
"                    ..XX....XX@@@@..@@@@@@XX..@@@@..                ",
"                    ..XXXXXX..@@@@..@@@@XX..XX@@@@..                ",
"                    ..XXXXXX..@@@@..@@@@XX..XX@@@@..                ",
"                    ..XX@@@@..@@@@....XXXX..@@@@@@..                ",
"                    ..XX@@@@..@@@@....XXXX..@@@@@@..                ",
"                    ..@@@@@@@@@@XX..XXXX@@@@@@@@@@..                ",
"                    ..@@@@@@@@@@XX..XXXX@@@@@@@@@@..                ",
"                      ..@@@@@@XXXXXXXX@@@@@@@@XX..                  ",
"                      ..@@@@@@XXXXXXXX@@@@@@@@XX..                  ",
"                      ..@@XXXXXXXX@@@@@@@@@@XXXX..                  ",
"                      ..@@XXXXXXXX@@@@@@@@@@XXXX..                  ",
"                      ..XXXXXX@@@@@@@@@@@@XXXXXX..                  ",
"                      ..XXXXXX@@@@@@@@@@@@XXXXXX..                  ",
"                        ....@@@@@@@@@@@@XXXX....                    ",
"                        ....@@@@@@@@@@@@XXXX....                    ",
"                            ..@@@@@@@@XXXX..                        ",
"                            ..@@@@@@@@XXXX..                        ",
"                              ............                          ",
"                              ............                          ",
"                                                                    ",
"                                                                    "
};
