/* XPM */
static char *liv1652357463[] = {
/* columns rows colors chars-per-pixel */
"68 62 4 1 ",
"  c None",
". c black",
"X c #ED1C24",
"o c gray99",
/* pixels */
"                                                                    ",
"                                                                    ",
"                                                                    ",
"                                                                    ",
"                                                                    ",
"                                                                    ",
"              ................            ................          ",
"              ................            ................          ",
"              ................            ................          ",
"              ................            ................          ",
"          ....XXXXXXXXXXXXXXXX....    ....XXXXXXXXXXXXXXXX....      ",
"          ....XXXXXXXXXXXXXXXX....    ....XXXXXXXXXXXXXXXX....      ",
"          ....XXXXXXXXXXXXXXXX....    ....XXXXXXXXXXXXXXXX....      ",
"          ....XXXXXXXXXXXXXXXX....    ....XXXXXXXXXXXXXXXX....      ",
"      ....XXXXXXXXXXXXXXXXXXXXXXXX....XXXXXXXXooooooooXXXXXXXX....  ",
"      ....XXXXXXXXXXXXXXXXXXXXXXXX....XXXXXXXXooooooooXXXXXXXX....  ",
"      ....XXXXXXXXXXXXXXXXXXXXXXXX....XXXXXXXXooooooooXXXXXXXX....  ",
"      ....XXXXXXXXXXXXXXXXXXXXXXXX....XXXXXXXXooooooooXXXXXXXX....  ",
"      ....XXXXXXXXXXXXXXXXXXXXXXXXXXXXXXXXXXXXXXXXXXXXXXXXXXXX....  ",
"      ....XXXXXXXXXXXXXXXXXXXXXXXXXXXXXXXXXXXXXXXXXXXXXXXXXXXX....  ",
"      ....XXXXXXXXXXXXXXXXXXXXXXXXXXXXXXXXXXXXXXXXXXXXXXXXXXXX....  ",
"      ....XXXXXXXXXXXXXXXXXXXXXXXXXXXXXXXXXXXXXXXXXXXXXXXXXXXX....  ",
"      ....XXXXXXXXXXXXXXXXXXXXXXXXXXXXXXXXXXXXXXXXXXXXXXXXXXXX....  ",
"      ....XXXXXXXXXXXXXXXXXXXXXXXXXXXXXXXXXXXXXXXXXXXXXXXXXXXX....  ",
"      ....XXXXXXXXXXXXXXXXXXXXXXXXXXXXXXXXXXXXXXXXXXXXXXXXXXXX....  ",
"      ....XXXXXXXXXXXXXXXXXXXXXXXXXXXXXXXXXXXXXXXXXXXXXXXXXXXX....  ",
"      ....XXXXXXXXXXXXXXXXXXXXXXXXXXXXXXXXXXXXXXXXXXXXXXXXXXXX....  ",
"      ....XXXXXXXXXXXXXXXXXXXXXXXXXXXXXXXXXXXXXXXXXXXXXXXXXXXX....  ",
"      ....XXXXXXXXXXXXXXXXXXXXXXXXXXXXXXXXXXXXXXXXXXXXXXXXXXXX....  ",
"      ....XXXXXXXXXXXXXXXXXXXXXXXXXXXXXXXXXXXXXXXXXXXXXXXXXXXX....  ",
"          ....XXXXXXXXXXXXXXXXXXXXXXXXXXXXXXXXXXXXXXXXXXXX....      ",
"          ....XXXXXXXXXXXXXXXXXXXXXXXXXXXXXXXXXXXXXXXXXXXX....      ",
"          ....XXXXXXXXXXXXXXXXXXXXXXXXXXXXXXXXXXXXXXXXXXXX....      ",
"          ....XXXXXXXXXXXXXXXXXXXXXXXXXXXXXXXXXXXXXXXXXXXX....      ",
"              ....XXXXXXXXXXXXXXXXXXXXXXXXXXXXXXXXXXXX....          ",
"              ....XXXXXXXXXXXXXXXXXXXXXXXXXXXXXXXXXXXX....          ",
"              ....XXXXXXXXXXXXXXXXXXXXXXXXXXXXXXXXXXXX....          ",
"              ....XXXXXXXXXXXXXXXXXXXXXXXXXXXXXXXXXXXX....          ",
"                  ....XXXXXXXXXXXXXXXXXXXXXXXXXXXX....              ",
"                  ....XXXXXXXXXXXXXXXXXXXXXXXXXXXX....              ",
"                  ....XXXXXXXXXXXXXXXXXXXXXXXXXXXX....              ",
"                  ....XXXXXXXXXXXXXXXXXXXXXXXXXXXX....              ",
"                      ....XXXXXXXXXXXXXXXXXXXX....                  ",
"                      ....XXXXXXXXXXXXXXXXXXXX....                  ",
"                      ....XXXXXXXXXXXXXXXXXXXX....                  ",
"                      ....XXXXXXXXXXXXXXXXXXXX....                  ",
"                          ....XXXXXXXXXXXX....                      ",
"                          ....XXXXXXXXXXXX....                      ",
"                          ....XXXXXXXXXXXX....                      ",
"                          ....XXXXXXXXXXXX....                      ",
"                              ....XXXX....                          ",
"                              ....XXXX....                          ",
"                              ....XXXX....                          ",
"                              ....XXXX....                          ",
"                                  ....                              ",
"                                  ....                              ",
"                                  ....                              ",
"                                  ....                              ",
"                                                                    ",
"                                                                    ",
"                                                                    ",
"                                                                    "
};
