/* XPM */
static char *p11650738268[] = {
/* columns rows colors chars-per-pixel */
"34 31 7 1 ",
"  c #2E6E62",
". c white",
"X c #A3EDFF",
"o c #8CFADE",
"O c #CEF3FF",
"+ c #E1FFFA",
"@ c white",
/* pixels */
"                                  ",
"                                  ",
"                                  ",
"              .......             ",
"             ..XXXXX..            ",
"            ..XXXXXXX..    o      ",
"           ..XXXXXXXXX..  o       ",
"       oo ..XXXXXXXXXXX..         ",
"          .XXXXXOOOXXXXX.         ",
"         ..XXXXOOOOOXXXX..        ",
"         .XXXXOOOOOOOXXXX.        ",
"        ..XXXOOOOOooOOXXX..       ",
"        .XXXXOOOO+OOOOXXX..       ",
"   o    .XXXOOOO+++OOOOXXX.       ",
"        .XXooOOO+++OOOOXXX.       ",
"        .XXXOOO+++++OOOXXX.       ",
"        .XXXOOO+++++OOOXXX.   oo  ",
"     oo .XXXOOOO+++OOOOXXX.       ",
"        .XXXOOOO+++OOOOXoo.       ",
"        .XXXXOOOO+OOOOXXXX.       ",
"        ..XXXOOooOOOOOXXX..       ",
"         .XXXXOOOOOOOXXXX.        ",
"         .XXXXXOOOOOXXXXX.        ",
"         ..XXXXXOOOXXXXX..        ",
"          .XXXXXXXXXXXXX.         ",
"   oo     ..XXXXXXXXXXX..         ",
"           ..XXXXXXXXX..   oo     ",
"            ..XXXXXXX..   oo      ",
"      oo     ..XXXXX..            ",
"              .......             ",
"                                  "
};
