/* XPM */
static char *p11652357464[] = {
/* columns rows colors chars-per-pixel */
"68 62 6 1 ",
"  c #2E6E62",
". c white",
"X c #A3EDFF",
"o c #8CFADE",
"O c #CEF3FF",
"+ c #E1FFFA",
/* pixels */
"                                                                    ",
"                                                                    ",
"                                                                    ",
"                                                                    ",
"                                                                    ",
"                                                                    ",
"                            ..............                          ",
"                            ..............                          ",
"                          ....XXXXXXXXXX....                        ",
"                          ....XXXXXXXXXX....                        ",
"                        ....XXXXXXXXXXXXXX....        oo            ",
"                        ....XXXXXXXXXXXXXX....        oo            ",
"                      ....XXXXXXXXXXXXXXXXXX....    oo              ",
"                      ....XXXXXXXXXXXXXXXXXX....    oo              ",
"              oooo  ....XXXXXXXXXXXXXXXXXXXXXX....                  ",
"              oooo  ....XXXXXXXXXXXXXXXXXXXXXX....                  ",
"                    ..XXXXXXXXXXOOOOOOXXXXXXXXXX..                  ",
"                    ..XXXXXXXXXXOOOOOOXXXXXXXXXX..                  ",
"                  ....XXXXXXXXOOOOOOOOOOXXXXXXXX....                ",
"                  ....XXXXXXXXOOOOOOOOOOXXXXXXXX....                ",
"                  ..XXXXXXXXOOOOOOOOOOOOOOXXXXXXXX..                ",
"                  ..XXXXXXXXOOOOOOOOOOOOOOXXXXXXXX..                ",
"                ....XXXXXXOOOOOOOOOOooooOOOOXXXXXX....              ",
"                ....XXXXXXOOOOOOOOOOooooOOOOXXXXXX....              ",
"                ..XXXXXXXXOOOOOOOO++OOOOOOOOXXXXXX....              ",
"                ..XXXXXXXXOOOOOOOO++OOOOOOOOXXXXXX....              ",
"      oo        ..XXXXXXOOOOOOOO++++++OOOOOOOOXXXXXX..              ",
"      oo        ..XXXXXXOOOOOOOO++++++OOOOOOOOXXXXXX..              ",
"                ..XXXXooooOOOOOO++++++OOOOOOOOXXXXXX..              ",
"                ..XXXXooooOOOOOO++++++OOOOOOOOXXXXXX..              ",
"                ..XXXXXXOOOOOO++++++++++OOOOOOXXXXXX..              ",
"                ..XXXXXXOOOOOO++++++++++OOOOOOXXXXXX..              ",
"                ..XXXXXXOOOOOO++++++++++OOOOOOXXXXXX..      oooo    ",
"                ..XXXXXXOOOOOO++++++++++OOOOOOXXXXXX..      oooo    ",
"          oooo  ..XXXXXXOOOOOOOO++++++OOOOOOOOXXXXXX..              ",
"          oooo  ..XXXXXXOOOOOOOO++++++OOOOOOOOXXXXXX..              ",
"                ..XXXXXXOOOOOOOO++++++OOOOOOOOXXoooo..              ",
"                ..XXXXXXOOOOOOOO++++++OOOOOOOOXXoooo..              ",
"                ..XXXXXXXXOOOOOOOO++OOOOOOOOXXXXXXXX..              ",
"                ..XXXXXXXXOOOOOOOO++OOOOOOOOXXXXXXXX..              ",
"                ....XXXXXXOOOOooooOOOOOOOOOOXXXXXX....              ",
"                ....XXXXXXOOOOooooOOOOOOOOOOXXXXXX....              ",
"                  ..XXXXXXXXOOOOOOOOOOOOOOXXXXXXXX..                ",
"                  ..XXXXXXXXOOOOOOOOOOOOOOXXXXXXXX..                ",
"                  ..XXXXXXXXXXOOOOOOOOOOXXXXXXXXXX..                ",
"                  ..XXXXXXXXXXOOOOOOOOOOXXXXXXXXXX..                ",
"                  ....XXXXXXXXXXOOOOOOXXXXXXXXXX....                ",
"                  ....XXXXXXXXXXOOOOOOXXXXXXXXXX....                ",
"                    ..XXXXXXXXXXXXXXXXXXXXXXXXXX..                  ",
"                    ..XXXXXXXXXXXXXXXXXXXXXXXXXX..                  ",
"      oooo          ....XXXXXXXXXXXXXXXXXXXXXX....                  ",
"      oooo          ....XXXXXXXXXXXXXXXXXXXXXX....                  ",
"                      ....XXXXXXXXXXXXXXXXXX....      oooo          ",
"                      ....XXXXXXXXXXXXXXXXXX....      oooo          ",
"                        ....XXXXXXXXXXXXXX....      oooo            ",
"                        ....XXXXXXXXXXXXXX....      oooo            ",
"            oooo          ....XXXXXXXXXX....                        ",
"            oooo          ....XXXXXXXXXX....                        ",
"                            ..............                          ",
"                            ..............                          ",
"                                                                    ",
"                                                                    "
};
