/* XPM */
static char *pws1652357464[] = {
/* columns rows colors chars-per-pixel */
"68 62 2 1 ",
"  c None",
". c #E0E0C0",
/* pixels */
"                                                                    ",
"                                                                    ",
"                                                                    ",
"                                                                    ",
"                                                                    ",
"                                                                    ",
"                                                                    ",
"                                                                    ",
"                  ..                                                ",
"                  ..                                                ",
"                ......                                              ",
"                ......                                              ",
"      ..      ..........      ..                                    ",
"      ..      ..........      ..                                    ",
"    ......    ..........    ......                                  ",
"    ......    ..........    ......                                  ",
"  ..........  ..........  ..........                                ",
"  ..........  ..........  ..........                                ",
"  ..........    ......    ..........                                ",
"  ..........    ......    ..........                                ",
"  ..........              ..........                                ",
"  ..........              ..........                                ",
"    ......    ..........    ......                                  ",
"    ......    ..........    ......                                  ",
"            ..............                                          ",
"            ..............                                          ",
"          ..................                                        ",
"          ..................                                        ",
"          ..................                                        ",
"          ..................                                        ",
"          ..................                                        ",
"          ..................                                        ",
"          ..................                    ..                  ",
"          ..................                    ..                  ",
"            ..............                    ......                ",
"            ..............                    ......                ",
"                                    ..      ..........      ..      ",
"                                    ..      ..........      ..      ",
"                                  ......    ..........    ......    ",
"                                  ......    ..........    ......    ",
"                                ..........  ..........  ..........  ",
"                                ..........  ..........  ..........  ",
"                                ..........    ......    ..........  ",
"                                ..........    ......    ..........  ",
"                                ..........              ..........  ",
"                                ..........              ..........  ",
"                                  ......    ..........    ......    ",
"                                  ......    ..........    ......    ",
"                                          ..............            ",
"                                          ..............            ",
"                                        ..................          ",
"                                        ..................          ",
"                                        ..................          ",
"                                        ..................          ",
"                                        ..................          ",
"                                        ..................          ",
"                                        ..................          ",
"                                        ..................          ",
"                                          ..............            ",
"                                          ..............            ",
"                                                                    ",
"                                                                    "
};
