/* XPM */
static char *Paws1650738477[] = {
/* columns rows colors chars-per-pixel */
"34 31 2 1 ",
"  c None",
". c black",
/* pixels */
"                                  ",
"                                  ",
"                                  ",
"                                  ",
"         .                        ",
"        ...                       ",
"   .   .....   .                  ",
"  ...  .....  ...                 ",
" ..... ..... .....                ",
" .....  ...  .....                ",
" .....       .....                ",
"  ...  .....  ...                 ",
"      .......                     ",
"     .........                    ",
"     .........                    ",
"     .........                    ",
"     .........          .         ",
"      .......          ...        ",
"                  .   .....   .   ",
"                 ...  .....  ...  ",
"                ..... ..... ..... ",
"                .....  ...  ..... ",
"                .....       ..... ",
"                 ...  .....  ...  ",
"                     .......      ",
"                    .........     ",
"                    .........     ",
"                    .........     ",
"                    .........     ",
"                     .......      ",
"                                  "
};
