/* XPM */
static char *time1651824816[] = {
/* columns rows colors chars-per-pixel */
"34 31 4 1 ",
"  c None",
". c black",
"X c #FF7F27",
"o c gray94",
/* pixels */
"                                  ",
"                                  ",
"                                  ",
"                 .                ",
"                .o.               ",
"            ...........           ",
"           .XXXXXXXXXXX.          ",
"          .XX.........XX.         ",
"         .XX.ooooooooo.XX.        ",
"        .XX.ooooooooooo.XX.       ",
"       .XX.oooooo.oooooo.XX.      ",
"       .X.ooooooo.ooooooo.X.      ",
"       .X.ooooooo.ooooooo.X.      ",
"       .X.ooooooo.ooooooo.X.      ",
"       .X.ooooooo.ooooooo.X.      ",
"       .X.ooooooo....oooo.X.      ",
"       .X.ooooooooooooooo.X.      ",
"       .X.ooooooooooooooo.X.      ",
"       .X.ooooooooooooooo.X.      ",
"       .X.ooooooooooooooo.X.      ",
"       .XX.ooooooooooooo.XX.      ",
"        .XX.ooooooooooo.XX.       ",
"         .XX.ooooooooo.XX.        ",
"          .XX.........XX.         ",
"           .XXXXXXXXXXX.          ",
"            ...........           ",
"                                  ",
"                                  ",
"                                  ",
"                                  ",
"                                  "
};
