/* XPM */
static char *tim1652357464[] = {
/* columns rows colors chars-per-pixel */
"68 62 4 1 ",
"  c None",
". c black",
"X c #FF7F27",
"o c gray94",
/* pixels */
"                                                                    ",
"                                                                    ",
"                                                                    ",
"                                                                    ",
"                                                                    ",
"                                                                    ",
"                                  ..                                ",
"                                  ..                                ",
"                                ..oo..                              ",
"                                ..oo..                              ",
"                        ......................                      ",
"                        ......................                      ",
"                      ..XXXXXXXXXXXXXXXXXXXXXX..                    ",
"                      ..XXXXXXXXXXXXXXXXXXXXXX..                    ",
"                    ..XXXX..................XXXX..                  ",
"                    ..XXXX..................XXXX..                  ",
"                  ..XXXX..oooooooooooooooooo..XXXX..                ",
"                  ..XXXX..oooooooooooooooooo..XXXX..                ",
"                ..XXXX..oooooooooooooooooooooo..XXXX..              ",
"                ..XXXX..oooooooooooooooooooooo..XXXX..              ",
"              ..XXXX..oooooooooooo..oooooooooooo..XXXX..            ",
"              ..XXXX..oooooooooooo..oooooooooooo..XXXX..            ",
"              ..XX..oooooooooooooo..oooooooooooooo..XX..            ",
"              ..XX..oooooooooooooo..oooooooooooooo..XX..            ",
"              ..XX..oooooooooooooo..oooooooooooooo..XX..            ",
"              ..XX..oooooooooooooo..oooooooooooooo..XX..            ",
"              ..XX..oooooooooooooo..oooooooooooooo..XX..            ",
"              ..XX..oooooooooooooo..oooooooooooooo..XX..            ",
"              ..XX..oooooooooooooo..oooooooooooooo..XX..            ",
"              ..XX..oooooooooooooo..oooooooooooooo..XX..            ",
"              ..XX..oooooooooooooo........oooooooo..XX..            ",
"              ..XX..oooooooooooooo........oooooooo..XX..            ",
"              ..XX..oooooooooooooooooooooooooooooo..XX..            ",
"              ..XX..oooooooooooooooooooooooooooooo..XX..            ",
"              ..XX..oooooooooooooooooooooooooooooo..XX..            ",
"              ..XX..oooooooooooooooooooooooooooooo..XX..            ",
"              ..XX..oooooooooooooooooooooooooooooo..XX..            ",
"              ..XX..oooooooooooooooooooooooooooooo..XX..            ",
"              ..XX..oooooooooooooooooooooooooooooo..XX..            ",
"              ..XX..oooooooooooooooooooooooooooooo..XX..            ",
"              ..XXXX..oooooooooooooooooooooooooo..XXXX..            ",
"              ..XXXX..oooooooooooooooooooooooooo..XXXX..            ",
"                ..XXXX..oooooooooooooooooooooo..XXXX..              ",
"                ..XXXX..oooooooooooooooooooooo..XXXX..              ",
"                  ..XXXX..oooooooooooooooooo..XXXX..                ",
"                  ..XXXX..oooooooooooooooooo..XXXX..                ",
"                    ..XXXX..................XXXX..                  ",
"                    ..XXXX..................XXXX..                  ",
"                      ..XXXXXXXXXXXXXXXXXXXXXX..                    ",
"                      ..XXXXXXXXXXXXXXXXXXXXXX..                    ",
"                        ......................                      ",
"                        ......................                      ",
"                                                                    ",
"                                                                    ",
"                                                                    ",
"                                                                    ",
"                                                                    ",
"                                                                    ",
"                                                                    ",
"                                                                    ",
"                                                                    ",
"                                                                    "
};
