/* XPM */
static char *result[] = {
/* columns rows colors chars-per-pixel */
"25 29 14 1 ",
"  c #785838",
". c #382860",
"X c #606078",
"o c #D82038",
"O c #E8C000",
"+ c #B88848",
"@ c #604888",
"# c #5048A0",
"$ c #6868C8",
"% c #7888F0",
"& c #888888",
"* c #B0A8C8",
"= c gray94",
"- c None",
/* pixels */
"-------------------------",
"--###--###---------------",
"--.@$##$$%#--------------",
"---..@@$%%%$######-------",
"-----..@#$$$$%%%$$##-----",
"-------.##$%%%%%%%%$#----",
"-------##$$$%%%%%%%%#----",
"------#%%%%%%%%%%%%%+#---",
"--####$%%$$%%%%%%%$$O#---",
"-#$%%$$$$$@$$$%%$$$$O ---",
"-...@$@@.@@@$$$$$$$++&X--",
"----.......@@$$$$$.$$*+ -",
"--------.#.@@$$$$$.*&=*X-",
"--------..@$$$$$$@.@*=*X-",
"---------..@$$O$$@o*==X--",
"----------.$$@+O@*&**X---",
"----------...$@@X&*XX----",
"-----------#.@$@#X.------",
"------#####@@@#$&&X------",
"-----.#@$$$$#.%%@=X------",
"-------...@#@.$%#*.------",
"----------....$$.##XX----",
"------------.$$$%##&*X---",
"------------.%%%%%#.&.---",
"-----------#.$$$@$#*.----",
"-----------.@.@@.*..XX---",
"------------......@X&.---",
"--------------.......----",
"-------------------------"
};
