/* XPM */
static char *result[] = {
/* columns rows colors chars-per-pixel */
"22 29 13 1 ",
"  c #382860",
". c #606078",
"X c #D82038",
"o c #E8C000",
"O c #B88848",
"+ c #604888",
"@ c #5048A0",
"# c #6868C8",
"$ c #7888F0",
"% c #888888",
"& c #B0A8C8",
"* c gray94",
"= c None",
/* pixels */
"======================",
"==@================@==",
"==@@=@==========@=@@==",
"== #@#@========@#@# ==",
"== +#$#@=@@@@=@#$#+ ==",
"=== ++@@@#$$#@@@++ ===",
"=== +@#$$$$$$$$#@+ ===",
"==== +$$$$$$$$$$+ ====",
"==== #$$$$$$$$$$# ====",
"====@####$$$$####@====",
"===@@+##########+@@===",
"==@#@+##OO##OO##+@#@==",
"== #++&$#oOOo#$&++# ==",
"==@@+#$$+#oO#+$$#+@@==",
"==@ o+  +####+  +o @==",
"===.O%X+###$##+X%O.===",
"===.$&&*&*O**&*&&$.===",
"====.&*&**&***&*&.====",
"====@+.%&&*&&&%.+@====",
"===@##+++....+++##@===",
"=@@$$#++#*&*&#++#$$@@=",
"=@$$$$ +#&&&&#+ $$$$@=",
"=@$@$# #++%%++# #$@$@=",
"=@@#% #$$#..#$$# %#@@=",
"== .%.&##$++$##&.%. ==",
"===. &%*.*..*.*%& .===",
"====  *..&  &..*  ====",
"====== =  ==  = ======",
"======================"
};
