/* XPM */
static char *result[] = {
/* columns rows colors chars-per-pixel */
"22 27 6 1 ",
"  c #382860",
". c #604888",
"X c #5048A0",
"o c #6868C8",
"O c #7888F0",
"+ c None",
/* pixels */
"++++++++++++++++++++++",
"++++++++++XX++++++++++",
"+++++++XXoOOoXX+++++++",
"+++++XoOOOOOOOOoX+++++",
"++++XOOOOOOOOOOOOX++++",
"++++XooOOOOOOOOooX++++",
"+++XoOOOOoOOoOOOOoX+++",
"++XoOOOoXooooXoOOOoX++",
"++Xooo..XooooX..oooX++",
"++XOoX. .XooX. .XoOX++",
"+o.  ..oXooooo.  ..oX+",
"+XX  ..oooooooo..  XX+",
"+   ..oooooooooo..   +",
"++XX ..oooooooo.. XX++",
"++ oX X..oooo..X Xo ++",
"+++ + X X....X X + +++",
"++++XoX........XoX++++",
"+++XXoo.ooOOoo.ooXX+++",
"+XXOoOX.ooOOoo.XOoOXX+",
"+XOOOO ..OOOO.. OOOOX+",
"+Xoooo . oooo . ooooX+",
"+XoooX.  oOOo  .XoooX+",
"+X..X ....OO.... X..X+",
"++XXX oo. oo .oo XXX++",
"++++++    ..    ++++++",
"++++++++++  ++++++++++",
"++++++++++++++++++++++"
};
