/* XPM */
static char *result[] = {
/* columns rows colors chars-per-pixel */
"22 27 6 1 ",
"  c #382860",
". c #604888",
"X c #5048A0",
"o c #6868C8",
"O c #7888F0",
"+ c None",
/* pixels */
"++++++++++++++++++++++",
"++++++++++++++++++++++",
"++++++++XXXXXX++++++++",
"++++++XXooOOooXX++++++",
"+++++XoOOOOOOOOoX+++++",
"++++XOOOOOOOOOOOOX++++",
"+++XXooOOOOOOOOooXX+++",
"+++XOOOOooOOooOOOOX+++",
"+++.OOo.XooooX.oOO.+++",
"++XooX..XXooXX..XooX++",
"+XOOoX  .oooo.  XoOOX+",
"+Xo.  ..oooooo..  .oX+",
"+   ...oooooooo...   +",
"+++ ..oooooooooo.. +++",
"++ o ..oooooooo.. o ++",
"++    X........X    ++",
"+++++XX X....X XX+++++",
"++++XoX...oo...XoX++++",
"++XXXoo.ooOOoo.ooXXX++",
"+XoOoOX..OOOO..XOoOoX+",
"+XOOOo . oooo . oOOOX+",
"+XoooX   oOOo   XoooX+",
"+X.o. ....OO.... .o.X+",
"++ X  oo. oo .oo  X ++",
"++++++    ..    ++++++",
"++++++++++  ++++++++++",
"++++++++++++++++++++++"
};
