/* XPM */
static char *result[] = {
/* columns rows colors chars-per-pixel */
"22 27 6 1 ",
"  c #382860",
". c #604888",
"X c #5048A0",
"o c #6868C8",
"O c #7888F0",
"+ c None",
/* pixels */
"++++++++++++++++++++++",
"++++++++++XX++++++++++",
"+++++++XXXooXXX+++++++",
"+++++XXoOOOOOOoXX+++++",
"++++XoOOOOOOOOOOoX++++",
"++++XooOOOOOOOOooX++++",
"+++XoooOOoOOoOOoooX+++",
"+++XOOOoXooooXoOOOX+++",
"++XoOoo.XXooXX.ooOoX++",
"++XOoX.X.oooo.X.XoOX++",
"+XOOo  X.oooo.X  oOOX+",
"+ X  ...oooooo...  X +",
"++  ..oooooooooo..  ++",
"++XX...oooooooo...XX++",
"++ X ....oooo.... X ++",
"+++++ X........X +++++",
"+++++XX X....X XX+++++",
"+++XXoo..ooOo..ooXX+++",
"++Xo.oo.ooOOoo.oo.oX++",
"+XoOOoX..OOOO..XoOOoX+",
"+XOOOo . oooo . oOOOX+",
"+ oooX   oOOo   Xooo +",
"+XXXX ....OO.... XXXX+",
"+++XX oo. oo .oo XX+++",
"++++++    ..    ++++++",
"++++++++++  ++++++++++",
"++++++++++++++++++++++"
};
