/* XPM */
static char *D21652358282[] = {
/* columns rows colors chars-per-pixel */
"68 62 5 1 ",
"  c None",
". c black",
"X c #300000",
"o c #60B050",
"O c #E0E0C0",
/* pixels */
"                                                                    ",
"                                                                    ",
"                                                                    ",
"                                                                    ",
"                          XXXXXXXXXXXXXXXX    XXXX                  ",
"                          XXXXXXXXXXXXXXXX    XXXX                  ",
"                        XXOOOOOOOOOOOOOOOOXXXXooOOXX                ",
"                        XXOOOOOOOOOOOOOOOOXXXXooOOXX                ",
"                      XXOOOOOOOOOOOOOOOOOOooOOOOooXX                ",
"                      XXOOOOOOOOOOOOOOOOOOooOOOOooXX                ",
"                    XXOOOOOOOOOOOOOOOOOOOOOOOOooXX                  ",
"                    XXOOOOOOOOOOOOOOOOOOOOOOOOooXX                  ",
"                    XXOOOOOOOOOOOOOOOOOOOOOOOOOOXX                  ",
"                    XXOOOOOOOOOOOOOOOOOOOOOOOOOOXX                  ",
"                  XXOOOOXXOOOOOOOOOOXXOOOOOOOOOOXX                  ",
"                  XXOOOOXXOOOOOOOOOOXXOOOOOOOOOOXX                  ",
"                  XXOOXXOOOOOOOOOOOOXXOOOOOOOOOOOOXX                ",
"                  XXOOXXOOOOOOOOOOOOXXOOOOOOOOOOOOXX                ",
"                  XXOOXXOOOOOOOOOOOOXXOOOOOOOOOOOOXX                ",
"                  XXOOXXOOOOOOOOOOOOXXOOOOOOOOOOOOXX                ",
"                  XXOOXXOOOOOOOOOOOOXXOOOOXXXXOOOOXX                ",
"                  XXOOXXOOOOOOOOOOOOXXOOOOXXXXOOOOXX                ",
"                  XXOOXXOOOOOOOOOOOOXXOOXXXXOOXXOOXX                ",
"                  XXOOXXOOOOOOOOOOOOXXOOXXXXOOXXOOXX                ",
"                  XXOOXXOOOOOOOOOOOOXXOOXXooXXXXOOXXXX              ",
"                  XXOOXXOOOOOOOOOOOOXXOOXXooXXXXOOXXXX              ",
"                    XXXXOOOOOOOOOOOOXXOOOOXXXXOOOOOOXX              ",
"                    XXXXOOOOOOOOOOOOXXOOOOXXXXOOOOOOXX              ",
"                    XXXXOOOOOOOOOOOOOOXXOOOOOOOOOOOOXX              ",
"                    XXXXOOOOOOOOOOOOOOXXOOOOOOOOOOOOXX              ",
"                      XXOOOOOOOOOOOOOOXXOOOOOOOOOOXX                ",
"                      XXOOOOOOOOOOOOOOXXOOOOOOOOOOXX                ",
"                    XXOOOOOOOOooooooOOXXOOOOOOooXX                  ",
"                    XXOOOOOOOOooooooOOXXOOOOOOooXX                  ",
"                    XXooooooooooooooooXXooooooXX                    ",
"                    XXooooooooooooooooXXooooooXX                    ",
"                    XXOOooooooooooooooXXXXXXXXXX                    ",
"                    XXOOooooooooooooooXXXXXXXXXX                    ",
"                  ..OOOOOOOOOOOOOOOOOO..ooooXX                      ",
"                  ..OOOOOOOOOOOOOOOOOO..ooooXX                      ",
"                XXooooooOOOOOOOOOOOOOO..XXooXX                      ",
"                XXooooooOOOOOOOOOOOOOO..XXooXX                      ",
"                XXoooooooooooooooooooo..OOXXooXX                    ",
"                XXoooooooooooooooooooo..OOXXooXX                    ",
"              XXooooooooooooooooooooooXXOOOOXXXX                    ",
"              XXooooooooooooooooooooooXXOOOOXXXX                    ",
"            XXOOOOOOOOooooooooooooooooXXOOOOOOXX                    ",
"            XXOOOOOOOOooooooooooooooooXXOOOOOOXX                    ",
"      XXXXXXOOOOOOXXOOOOOOOOOOXXOOOOOOXXOOOOOOXX                    ",
"      XXXXXXOOOOOOXXOOOOOOOOOOXXOOOOOOXXOOOOOOXX                    ",
"    XXooooOOOOOOXXooooOOOOOOXXooooOOOOXXOOOOoo..                    ",
"    XXooooOOOOOOXXooooOOOOOOXXooooOOOOXXOOOOoo..                    ",
"  XXooooooooOOXXooooooooOOXXooooooooOOXX..oooo..                    ",
"  XXooooooooOOXXooooooooOOXXooooooooOOXX..oooo..                    ",
"  XXooooooooXXooooooooooooXXooooooooOOXX....oooo..                  ",
"  XXooooooooXXooooooooooooXXooooooooOOXX....oooo..                  ",
"  XXooooooooXXooooooooooooXXooooooooXX..oo....oooo..                ",
"  XXooooooooXXooooooooooooXXooooooooXX..oo....oooo..                ",
"    XXXXXXXXXXXXXXXXXXXXXXXXXXXXXXXXXXXXXXXX  ......                ",
"    XXXXXXXXXXXXXXXXXXXXXXXXXXXXXXXXXXXXXXXX  ......                ",
"                                                                    ",
"                                                                    "
};
