/* XPM */
static char *eg11652357463[] = {
/* columns rows colors chars-per-pixel */
"68 62 4 1 ",
"  c None",
". c black",
"X c #60B050",
"o c #E0E0C0",
/* pixels */
"                                                                    ",
"                                                                    ",
"                                                                    ",
"                                                                    ",
"                                                                    ",
"                                                                    ",
"                                                                    ",
"                                                                    ",
"                                                                    ",
"                                                                    ",
"                                                                    ",
"                                                                    ",
"                                                                    ",
"                                                                    ",
"                                                                    ",
"                                                                    ",
"                                                                    ",
"                                                                    ",
"                                                                    ",
"                                                                    ",
"                                                                    ",
"                                                                    ",
"                                                                    ",
"                                                                    ",
"                                ........                            ",
"                                ........                            ",
"                            ....XXXXoooo....                        ",
"                            ....XXXXoooo....                        ",
"                          ..XXXXooooooooooXX..                      ",
"                          ..XXXXooooooooooXX..                      ",
"                        ..XXXXooooooooooooXXXX..                    ",
"                        ..XXXXooooooooooooXXXX..                    ",
"                      ..XXXXooooooooooXXXXXXoo..                    ",
"                      ..XXXXooooooooooXXXXXXoo..                    ",
"                      ..XXooooooooooXXXXXXoooooo..                  ",
"                      ..XXooooooooooXXXXXXoooooo..                  ",
"                    ..ooooooooooXXXXXXXXoooooooo..                  ",
"                    ..ooooooooooXXXXXXXXoooooooo..                  ",
"                    ..ooooooXXXXXXXXooooooooooXX..                  ",
"                    ..ooooooXXXXXXXXooooooooooXX..                  ",
"                    ..ooXXXXXXXXooooooooooooXXXX..                  ",
"                    ..ooXXXXXXXXooooooooooooXXXX..                  ",
"                    ..XXXXXXXXooooooooooooXXXXoo..                  ",
"                    ..XXXXXXXXooooooooooooXXXXoo..                  ",
"                    ..XXooooooooooooooooXXXXoooo..                  ",
"                    ..XXooooooooooooooooXXXXoooo..                  ",
"                    ..ooooooooooooXXXXXXXXoooooo..                  ",
"                    ..ooooooooooooXXXXXXXXoooooo..                  ",
"                    ..ooooooooooXXXXXXXXoooooooo..                  ",
"                    ..ooooooooooXXXXXXXXoooooooo..                  ",
"                    ..ooooooXXXXXXXXoooooooooo..                    ",
"                    ..ooooooXXXXXXXXoooooooooo..                    ",
"                      ..ooXXXXXXooooooooooooXX..                    ",
"                      ..ooXXXXXXooooooooooooXX..                    ",
"                      ..XXXXXXooooooooooooXX..                      ",
"                      ..XXXXXXooooooooooooXX..                      ",
"                        ....ooooooooooXXXX....                      ",
"                        ....ooooooooooXXXX....                      ",
"                            ..............                          ",
"                            ..............                          ",
"                                                                    ",
"                                                                    "
};
