/* XPM */
static char *S01652358281[] = {
/* columns rows colors chars-per-pixel */
"68 62 4 1 ",
"  c None",
". c #300000",
"X c #60B050",
"o c #E0E0C0",
/* pixels */
"                                                                    ",
"                                                                    ",
"                                ....                                ",
"                                ....                                ",
"                            ....XXXX....                            ",
"                            ....XXXX....                            ",
"                        ....XX..oooo..XX....                        ",
"                        ....XX..oooo..XX....                        ",
"                    ....ooooXXXXooooXXXXoooo....                    ",
"                    ....ooooXXXXooooXXXXoooo....                    ",
"                  ..XXooooooXXooooooooXXooooooXX..                  ",
"                  ..XXooooooXXooooooooXXooooooXX..                  ",
"                ..oooooooooooooooooooooooooooooooo..                ",
"                ..oooooooooooooooooooooooooooooooo..                ",
"                ..ooXXooooooooooooooooooooooooXXoo..                ",
"                ..ooXXooooooooooooooooooooooooXXoo..                ",
"              ..ooXXXXooooooooooooooooooooooooXXXXoo..              ",
"              ..ooXXXXooooooooooooooooooooooooXXXXoo..              ",
"              ..oo..oooooooooooooooooooooooooooo..oo..              ",
"              ..oo..oooooooooooooooooooooooooooo..oo..              ",
"              ..oo..oooo....oooooooooooo....oooo..oo..              ",
"              ..oo..oooo....oooooooooooo....oooo..oo..              ",
"              ..oo..oo....oo..oooooooo..oo....oo..oo..              ",
"              ..oo..oo....oo..oooooooo..oo....oo..oo..              ",
"              ..oo..oo..XX....oooooooo....XX..oo..oo..              ",
"              ..oo..oo..XX....oooooooo....XX..oo..oo..              ",
"            ..oooo..oooo....oooooooooooo....oooo..oooo..            ",
"            ..oooo..oooo....oooooooooooo....oooo..oooo..            ",
"            ..oooo..oooooooooooo....oooooooooooo..oooo..            ",
"            ..oooo..oooooooooooo....oooooooooooo..oooo..            ",
"            ..oooo..XXooooooooooooooooooooooooXX..oooo..            ",
"            ..oooo..XXooooooooooooooooooooooooXX..oooo..            ",
"            ..oooooo..XXooooooooooooooooooooXX..oooooo..            ",
"            ..oooooo..XXooooooooooooooooooooXX..oooooo..            ",
"            ..XXoooo....XXXXooooooooooooXXXX....ooooXX..            ",
"            ..XXoooo....XXXXooooooooooooXXXX....ooooXX..            ",
"            ..XXXXoo............................ooXXXX..            ",
"            ..XXXXoo............................ooXXXX..            ",
"          ..ooXXXXXX....XXooXXXXXXXXXXXXooXX....XXXXXXoo..          ",
"          ..ooXXXXXX....XXooXXXXXXXXXXXXooXX....XXXXXXoo..          ",
"          ..oooooooo..XXooooooXXXXXXXXooooooXX..oooooooo..          ",
"          ..oooooooo..XXooooooXXXXXXXXooooooXX..oooooooo..          ",
"          ..XXXXoooo..ooooooooooXXXXoooooooooo..ooooXXXX..          ",
"          ..XXXXoooo..ooooooooooXXXXoooooooooo..ooooXXXX..          ",
"          ..XXXXXXoo..ooXXooooooXXXXooooooXXoo..ooXXXXXX..          ",
"          ..XXXXXXoo..ooXXooooooXXXXooooooXXoo..ooXXXXXX..          ",
"        ..XXXXXXXXXX..ooXXooooooooooooooooXXoo..XXXXXXXXXX..        ",
"        ..XXXXXXXXXX..ooXXooooooooooooooooXXoo..XXXXXXXXXX..        ",
"        ..oooooooooo..XX..oooooooooooooooo..XX..oooooooooo..        ",
"        ..oooooooooo..XX..oooooooooooooooo..XX..oooooooooo..        ",
"      ..XXXX..XXXXoo....oooooooooooooooooooo....ooXXXX..XXXX..      ",
"      ..XXXX..XXXXoo....oooooooooooooooooooo....ooXXXX..XXXX..      ",
"    ..XXXXXX..XXXXXX....XXooooXXooooXXooooXX....XXXXXX..XXXXXX..    ",
"    ..XXXXXX..XXXXXX....XXooooXXooooXXooooXX....XXXXXX..XXXXXX..    ",
"  ..XXXXXX..XXXXXX........XXXXXX....XXXXXX........XXXXXX..XXXXXX..  ",
"  ..XXXXXX..XXXXXX........XXXXXX....XXXXXX........XXXXXX..XXXXXX..  ",
"  ..XXXX..XXXXXXXX..  ....XXXX........XXXX....  ..XXXXXXXX..XXXX..  ",
"  ..XXXX..XXXXXXXX..  ....XXXX........XXXX....  ..XXXXXXXX..XXXX..  ",
"    ..............      ........    ........      ..............    ",
"    ..............      ........    ........      ..............    ",
"                                                                    ",
"                                                                    "
};
