/* XPM */
static char *S31652358281[] = {
/* columns rows colors chars-per-pixel */
"68 62 5 1 ",
"  c None",
". c black",
"X c #300000",
"o c #60B050",
"O c #E0E0C0",
/* pixels */
"                                                                    ",
"                                                                    ",
"                                                                    ",
"                                                                    ",
"                                XXXX                                ",
"                                XXXX                                ",
"                            XXXXooooXXXX                            ",
"                            XXXXooooXXXX                            ",
"                        XXXXooXXOOOOXXooXXXX                        ",
"                        XXXXooXXOOOOXXooXXXX                        ",
"                    XXXXOOOOooooOOOOooooOOOOXXXX                    ",
"                    XXXXOOOOooooOOOOooooOOOOXXXX                    ",
"                  XXooOOOOOOooOOOOOOOOooOOOOOOooXX                  ",
"                  XXooOOOOOOooOOOOOOOOooOOOOOOooXX                  ",
"                XXOOOOOOOOOOOOOOOOOOOOOOOOOOOOOOOOXX                ",
"                XXOOOOOOOOOOOOOOOOOOOOOOOOOOOOOOOOXX                ",
"                XXOOooOOOOOOOOOOOOOOOOOOOOOOOOooOOXX                ",
"                XXOOooOOOOOOOOOOOOOOOOOOOOOOOOooOOXX                ",
"              XXOOooooOOOOOOOOOOOOOOOOOOOOOOOOooooOOXX              ",
"              XXOOooooOOOOOOOOOOOOOOOOOOOOOOOOooooOOXX              ",
"              XXOOXXOOOOOOOOOOOOOOOOOOOOOOOOOOOOXXOOXX              ",
"              XXOOXXOOOOOOOOOOOOOOOOOOOOOOOOOOOOXXOOXX              ",
"              XXOOXXOOOOXXXXOOOOOOOOOOOOXXXXOOOOXXOOXX              ",
"              XXOOXXOOOOXXXXOOOOOOOOOOOOXXXXOOOOXXOOXX              ",
"              XXOOXXOOXXXXOOXXOOOOOOOOXXOOXXXXOOXXOOXX              ",
"              XXOOXXOOXXXXOOXXOOOOOOOOXXOOXXXXOOXXOOXX              ",
"              XXOOXXOOXXooXXXXOOOOOOOOXXXXooXXOOXXOOXX              ",
"              XXOOXXOOXXooXXXXOOOOOOOOXXXXooXXOOXXOOXX              ",
"            XXOOOOXXOOOOXXXXOOOOOOOOOOOOXXXXOOOOXXOOOOXX            ",
"            XXOOOOXXOOOOXXXXOOOOOOOOOOOOXXXXOOOOXXOOOOXX            ",
"            XXOOOOXXOOOOOOOOOOOOXXXXOOOOOOOOOOOOXXOOOOXX            ",
"            XXOOOOXXOOOOOOOOOOOOXXXXOOOOOOOOOOOOXXOOOOXX            ",
"            XXOOOOXXooOOOOOOOOOOOOOOOOOOOOOOOOooXXOOOOXX            ",
"            XXOOOOXXooOOOOOOOOOOOOOOOOOOOOOOOOooXXOOOOXX            ",
"            XXOOOOOOXXooOOOOOOOOOOOOOOOOOOOOooXXOOOOOOXX            ",
"            XXOOOOOOXXooOOOOOOOOOOOOOOOOOOOOooXXOOOOOOXX            ",
"            XXooOOOOXXXXooooOOOOOOOOOOOOooooXXXXOOOOooXX            ",
"            XXooOOOOXXXXooooOOOOOOOOOOOOooooXXXXOOOOooXX            ",
"            XXooooOOXXXXXXXXXXXXXXXXXXXXXXXXXXXXOOooooXX            ",
"            XXooooOOXXXXXXXXXXXXXXXXXXXXXXXXXXXXOOooooXX            ",
"          XXOOooooooXXXXooOOooooooooooooOOooXXXXooooooOOXX          ",
"          XXOOooooooXXXXooOOooooooooooooOOooXXXXooooooOOXX          ",
"          XXOOOOOOOOXXooOOOOOOooooooooOOOOOOooXXOOOOOOOOXX          ",
"          XXOOOOOOOOXXooOOOOOOooooooooOOOOOOooXXOOOOOOOOXX          ",
"          XXooooOOOOXXOOOOOOOOOOooooOOOOOOOOOOXXOOOOooooXX          ",
"          XXooooOOOOXXOOOOOOOOOOooooOOOOOOOOOOXXOOOOooooXX          ",
"        XXooooooooooXXOOooOOOOOOOOOOOOOOOOooOOXXooooooooooXX        ",
"        XXooooooooooXXOOooOOOOOOOOOOOOOOOOooOOXXooooooooooXX        ",
"        XXOOOOOOOOOOXXooXXOOOOOOOOOOOOOOOOXXooXXOOOOOOOOOOXX        ",
"        XXOOOOOOOOOOXXooXXOOOOOOOOOOOOOOOOXXooXXOOOOOOOOOOXX        ",
"      XXooooXXooooOOXXXX  ......OOOOOOOOOOOOXXXXOOooooXXooooXX      ",
"      XXooooXXooooOOXXXX  ......OOOOOOOOOOOOXXXXOOooooXXooooXX      ",
"    XXooooooXXooooooXX  ..oooooo..OOooOOOOooXXXXooooooXXooooooXX    ",
"    XXooooooXXooooooXX  ..oooooo..OOooOOOOooXXXXooooooXXooooooXX    ",
"  XXooooooXXooooooXXXX  XXooooooXXXXooooooXXXXXXXXooooooXXooooooXX  ",
"  XXooooooXXooooooXXXX  XXooooooXXXXooooooXXXXXXXXooooooXXooooooXX  ",
"  XXooooXXooooooooXX    XX....XX  XXXXooooXXXX  XXooooooooXXooooXX  ",
"  XXooooXXooooooooXX    XX....XX  XXXXooooXXXX  XXooooooooXXooooXX  ",
"    XXXXXXXXXXXXXX                  XXXXXXXX      XXXXXXXXXXXXXX    ",
"    XXXXXXXXXXXXXX                  XXXXXXXX      XXXXXXXXXXXXXX    ",
"                                                                    ",
"                                                                    "
};
