/* XPM */
static char *W21652358281[] = {
/* columns rows colors chars-per-pixel */
"68 62 5 1 ",
"  c None",
". c black",
"X c #300000",
"o c #60B050",
"O c #E0E0C0",
/* pixels */
"                                                                    ",
"                                                                    ",
"                                                                    ",
"                                                                    ",
"                                                                    ",
"                                                                    ",
"                                ....                                ",
"                                ....                                ",
"                          XXXXXXOOOOXXXXXX                          ",
"                          XXXXXXOOOOXXXXXX                          ",
"                      XXXXOOOOOOOOOOOOOOOOXXXX                      ",
"                      XXXXOOOOOOOOOOOOOOOOXXXX                      ",
"                  XXXXOOOOOOOOOOOOOOOOOOOOOOOOXXXX                  ",
"                  XXXXOOOOOOOOOOOOOOOOOOOOOOOOXXXX                  ",
"                XXOOOOOOOOOOOOOOOOOOOOOOOOOOOOOOOOXX                ",
"                XXOOOOOOOOOOOOOOOOOOOOOOOOOOOOOOOOXX                ",
"                XXOOOOooOOOOOOOOOOOOOOOOOOOOooOOOOXX                ",
"                XXOOOOooOOOOOOOOOOOOOOOOOOOOooOOOOXX                ",
"              XXOOOOOOXXOOOOOOOOOOOOOOOOOOOOXXOOOOOOXX              ",
"              XXOOOOOOXXOOOOOOOOOOOOOOOOOOOOXXOOOOOOXX              ",
"              XXOOOOooXXOOOOOOOOOOOOOOOOOOOOXXooOOOOXX              ",
"              XXOOOOooXXOOOOOOOOOOOOOOOOOOOOXXooOOOOXX              ",
"              XXOOOOXXooOOOOOOOOOOOOOOOOOOOOooXXOOOOXX              ",
"              XXOOOOXXooOOOOOOOOOOOOOOOOOOOOooXXOOOOXX              ",
"              XXOOOOXXOOOOOOOOOOOOOOOOOOOOOOOOXXOOOOXX              ",
"              XXOOOOXXOOOOOOOOOOOOOOOOOOOOOOOOXXOOOOXX              ",
"              XXOOOOXXOOOOOOOOOOOOOOOOOOOOOOOOXXOOOOXX              ",
"              XXOOOOXXOOOOOOOOOOOOOOOOOOOOOOOOXXOOOOXX              ",
"            XXOOOOOOXXOOOOOOOOOOOOOOOOOOOOOOOOXXOOOOOOXX            ",
"            XXOOOOOOXXOOOOOOOOOOOOOOOOOOOOOOOOXXOOOOOOXX            ",
"            XXOOOOOOXXOOOOOOOOOOOOOOOOOOOOOOOOXXOOOOOOXX            ",
"            XXOOOOOOXXOOOOOOOOOOOOOOOOOOOOOOOOXXOOOOOOXX            ",
"            XXOOOOOOXXOOOOOOOOOOOOOOOOOOOOOOOOXXOOOOOOXX            ",
"            XXOOOOOOXXOOOOOOOOOOOOOOOOOOOOOOOOXXOOOOOOXX            ",
"            XXOOOOOOXXooOOOOOOOOOOOOOOOOOOOOooXXOOOOOOXX            ",
"            XXOOOOOOXXooOOOOOOOOOOOOOOOOOOOOooXXOOOOOOXX            ",
"            XXooOOOOXXXXooOOOOOOOOOOOOOOOOooXXXXOOOOooXX            ",
"            XXooOOOOXXXXooOOOOOOOOOOOOOOOOooXXXXOOOOooXX            ",
"            XXOOOOOOXXXXXXXXXXXXXXXXXXXXXXXXXXXXOOOOOOXX            ",
"            XXOOOOOOXXXXXXXXXXXXXXXXXXXXXXXXXXXXOOOOOOXX            ",
"          XXooooOOOOXXXXooXXooooooooooooXXooXXXXOOOOooooXX          ",
"          XXooooOOOOXXXXooXXooooooooooooXXooXXXXOOOOooooXX          ",
"          XXooooooOOXXXXooOOXXXXXXXXXXXXOOooXXXXOOooooooXX          ",
"          XXooooooOOXXXXooOOXXXXXXXXXXXXOOooXXXXOOooooooXX          ",
"          XXooOOOOOOXXooOOOOOOOOOOOOOOOOOOOOooXXOOOOOOooXX          ",
"          XXooOOOOOOXXooOOOOOOOOOOOOOOOOOOOOooXXOOOOOOooXX          ",
"          XXOOOOOOOOooXXOOOOOOOOOOOOOOOOOOOOXXooOOOOOOOOXX          ",
"          XXOOOOOOOOooXXOOOOOOOOOOOOOOOOOOOOXXooOOOOOOOOXX          ",
"        XXooOOOOooOOOOXXOOOOOOOOXXXXOOOOOOOOXXOOOOooOOOOooXX        ",
"        XXooOOOOooOOOOXXOOOOOOOOXXXXOOOOOOOOXXOOOOooOOOOooXX        ",
"      XXooOOOOooooOOOOXXOOOOOOXXOOOOXXOOOOOOXXOOOOooooOOOOooXX      ",
"      XXooOOOOooooOOOOXXOOOOOOXXOOOOXXOOOOOOXXOOOOooooOOOOooXX      ",
"    XXooooooXXXXooooooXXXXOOOOooooooooOOOOXXXXooooooXXXXooooooXX    ",
"    XXooooooXXXXooooooXXXXOOOOooooooooOOOOXXXXooooooXXXXooooooXX    ",
"  XXooooooXXooooooooooXXXXooooooXXXXooooooXXXXooooooooooXXooooooXX  ",
"  XXooooooXXooooooooooXXXXooooooXXXXooooooXXXXooooooooooXXooooooXX  ",
"  XXooooXXooooooooooXXXXXX......XXXXXXooooXXXXXXooooooooooXXooooXX  ",
"  XXooooXXooooooooooXXXXXX......XXXXXXooooXXXXXXooooooooooXXooooXX  ",
"    XXXXXXXXXXXXXXXXXXXX            XXXXXXXXXXXXXXXXXXXXXXXXXXXX    ",
"    XXXXXXXXXXXXXXXXXXXX            XXXXXXXXXXXXXXXXXXXXXXXXXXXX    ",
"                                                                    ",
"                                                                    "
};
