/* XPM */
static char *X1652358282[] = {
/* columns rows colors chars-per-pixel */
"68 62 8 1 ",
"  c None",
". c black",
"X c #300000",
"o c gray50",
"O c #60B050",
"+ c #C3C3C3",
"@ c #E0E0C0",
"# c gray99",
/* pixels */
"                                XXXX                                ",
"                                XXXX                                ",
"                            XXXXOOOOXXXX  ..........                ",
"                            XXXXOOOOXXXX  ..........                ",
"                        XXXXOOXX@@@@XXOOXX##########..              ",
"                        XXXXOOXX@@@@XXOOXX##########..              ",
"                    XXXX@@@@OOOO@@@@OO..##############..            ",
"                    XXXX@@@@OOOO@@@@OO..##############..            ",
"                  XXOO@@@@@@OO@@@@@@..##oo##oo##oo##oo##XX          ",
"                  XXOO@@@@@@OO@@@@@@..##oo##oo##oo##oo##XX          ",
"                XXXX@@@@@@@@@@@@@@@@..####oo######oo####XX          ",
"                XXXX@@@@@@@@@@@@@@@@..####oo######oo####XX          ",
"                XX@@@@OO@@@@@@@@@@@@..##oo##oo##oo##oo##..          ",
"                XX@@@@OO@@@@@@@@@@@@..##oo##oo##oo##oo##..          ",
"              XX@@@@OOOO@@@@@@@@@@@@..##################..          ",
"              XX@@@@OOOO@@@@@@@@@@@@..##################..          ",
"              XX@@@@XX@@@@@@@@@@@@@@@@..######oo########..          ",
"              XX@@@@XX@@@@@@@@@@@@@@@@..######oo########..          ",
"              XX@@@@XX@@@@@@@@@@@@@@@@@@..####oo######..            ",
"              XX@@@@XX@@@@@@@@@@@@@@@@@@..####oo######..            ",
"              XX@@@@XX@@@@@@OO@@@@@@@@@@..##########XX              ",
"              XX@@@@XX@@@@@@OO@@@@@@@@@@..##########XX              ",
"              XX@@@@XX@@OOOOXX@@@@@@@@..##########..XX              ",
"              XX@@@@XX@@OOOOXX@@@@@@@@..##########..XX              ",
"            XX@@@@@@XX@@XXXX@@@@@@@@@@..####......@@@@XX            ",
"            XX@@@@@@XX@@XXXX@@@@@@@@@@..####......@@@@XX            ",
"            XX@@@@@@XX@@@@@@@@@@XXXX@@..##..@@XX@@@@@@XX            ",
"            XX@@@@@@XX@@@@@@@@@@XXXX@@..##..@@XX@@@@@@XX            ",
"            XX@@@@@@XXOO@@@@@@@@@@@@@@@@..@@OOXX@@@@@@XX            ",
"            XX@@@@@@XXOO@@@@@@@@@@@@@@@@..@@OOXX@@@@@@XX            ",
"            XXOO@@@@OOXXOO@@@@@@@@@@@@@@@@OOXXOO@@@@OOXX            ",
"            XXOO@@@@OOXXOO@@@@@@@@@@@@@@@@OOXXOO@@@@OOXX            ",
"              XXOO@@OOXXXXXXOOOOOOOOOOOOXXXXXXOO@@OOXX              ",
"              XXOO@@OOXXXXXXOOOOOOOOOOOOXXXXXXOO@@OOXX              ",
"            XXXXXXXXXXXXXXXXXXXXXXXXXXXXXXXXXXXXXXXXXXXX            ",
"            XXXXXXXXXXXXXXXXXXXXXXXXXXXXXXXXXXXXXXXXXXXX            ",
"            XX++oooo++XX++oooo++XXXX++oooo++XX++oooo++XX            ",
"            XX++oooo++XX++oooo++XXXX++oooo++XX++oooo++XX            ",
"          XXooooXXXXooooooXXXXooooooooXXXXooooooXXXXooooXX          ",
"          XXooooXXXXooooooXXXXooooooooXXXXooooooXXXXooooXX          ",
"            XX++oooo++XX++oooo++XXXX++oooo++XX++oooo++XX            ",
"            XX++oooo++XX++oooo++XXXX++oooo++XX++oooo++XX            ",
"            XXXXXXXXXXOOXXXXXXXXOOOOXXXXXXXXOOXXXXXXXXXX            ",
"            XXXXXXXXXXOOXXXXXXXXOOOOXXXXXXXXOOXXXXXXXXXX            ",
"              XX@@@@OOXXOOOOOOOO@@@@OOOOOOOOXXOO@@@@XX              ",
"              XX@@@@OOXXOOOOOOOO@@@@OOOOOOOOXXOO@@@@XX              ",
"            XXXX@@@@@@XX@@@@@@@@@@@@@@@@@@@@XX@@@@@@XXXX            ",
"            XXXX@@@@@@XX@@@@@@@@@@@@@@@@@@@@XX@@@@@@XXXX            ",
"            XX@@@@@@@@XX@@@@@@@@@@@@@@@@@@@@XX@@@@@@@@XX            ",
"            XX@@@@@@@@XX@@@@@@@@@@@@@@@@@@@@XX@@@@@@@@XX            ",
"            XXOOOOOOOOXXXX@@@@@@@@@@@@@@@@XXXXOOOOOOOOXX            ",
"            XXOOOOOOOOXXXX@@@@@@@@@@@@@@@@XXXXOOOOOOOOXX            ",
"            XXOOOOOOOOXXXXOOOOOOXXXXOOOOOOXXXXOOOOOOOOXX            ",
"            XXOOOOOOOOXXXXOOOOOOXXXXOOOOOOXXXXOOOOOOOOXX            ",
"              XXOOOOXXXXXXOOOOOOXXXXOOOOOOXXXXXXOOOOXX              ",
"              XXOOOOXXXXXXOOOOOOXXXXOOOOOOXXXXXXOOOOXX              ",
"              XXOOOOXXXXXXOOOOXXXXXXXXOOOOXXXXXXOOOOXX              ",
"              XXOOOOXXXXXXOOOOXXXXXXXXOOOOXXXXXXOOOOXX              ",
"              XXOOOOXX    XXXX        XXXX    XXOOOOXX              ",
"              XXOOOOXX    XXXX        XXXX    XXOOOOXX              ",
"                XXXX                            XXXX                ",
"                XXXX                            XXXX                "
};
