/* XPM */
static char *A01650738518[] = {
/* columns rows colors chars-per-pixel */
"34 31 4 1 ",
"  c None",
". c #300000",
"X c #60B050",
"o c #E0E0C0",
/* pixels */
"                                  ",
"                                  ",
"          ..  ........            ",
"         .oX..oooooooo.           ",
"         .XooXooooooooo.          ",
"          .Xoooooooooooo.         ",
"          .ooooooooooooo.         ",
"          .ooooo.ooooo.oo.        ",
"         .oooooo.oooooo.o.        ",
"         .oooooo.oooooo.o.        ",
"         .oo..oo.oooooo.o.        ",
"         .o.o..o.oooooo.o.        ",
"        ..o..X.o.oooooo.o.        ",
"        .ooo..oo.oooooo..         ",
"        .oooooo.ooooooo..         ",
"         .ooooo.ooooooo.          ",
"          .Xooo.oXXXoooo.         ",
"           .XXX.XXXXXXXX.         ",
"           .....XXXXXXXo.         ",
"           .XXX.ooooooooo.        ",
"           .X...ooooooXXX.        ",
"          .X.oo.XXXXXXXXX.        ",
"          ..oo.XXXXXXXXXXX.       ",
"          .ooo.XXXXXXXXoooo.      ",
"          .Xoo.ooo.ooooo.ooo...   ",
"           .oo.ooXX.oooXX.oooXX.  ",
"           .Xo.oXXXX.oXXXX.oXXXX. ",
"            .X.oXXXX.XXXXXX.XXXX. ",
"            .XX.XXXX.XXXXXX.XXXX. ",
"            ....................  ",
"                                  "
};
