/* XPM */
static char *W21650738517[] = {
/* columns rows colors chars-per-pixel */
"34 31 5 1 ",
"  c None",
". c black",
"X c #300000",
"o c #60B050",
"O c #E0E0C0",
/* pixels */
"                                  ",
"                                  ",
"                                  ",
"                ..                ",
"             XXXOOXXX             ",
"           XXOOOOOOOOXX           ",
"         XXOOOOOOOOOOOOXX         ",
"        XOOOOOOOOOOOOOOOOX        ",
"        XOOoOOOOOOOOOOoOOX        ",
"       XOOOXOOOOOOOOOOXOOOX       ",
"       XOOoXOOOOOOOOOOXoOOX       ",
"       XOOXoOOOOOOOOOOoXOOX       ",
"       XOOXOOOOOOOOOOOOXOOX       ",
"       XOOXOOOOOOOOOOOOXOOX       ",
"      XOOOXOOOOOOOOOOOOXOOOX      ",
"      XOOOXOOOOOOOOOOOOXOOOX      ",
"      XOOOXOOOOOOOOOOOOXOOOX      ",
"      XOOOXoOOOOOOOOOOoXOOOX      ",
"      XoOOXXoOOOOOOOOoXXOOoX      ",
"      XOOOXXXXXXXXXXXXXXOOOX      ",
"     XooOOXXoXooooooXoXXOOooX     ",
"     XoooOXXoOXXXXXXOoXXOoooX     ",
"     XoOOOXoOOOOOOOOOOoXOOOoX     ",
"     XOOOOoXOOOOOOOOOOXoOOOOX     ",
"    XoOOoOOXOOOOXXOOOOXOOoOOoX    ",
"   XoOOooOOXOOOXOOXOOOXOOooOOoX   ",
"  XoooXXoooXXOOooooOOXXoooXXoooX  ",
" XoooXoooooXXoooXXoooXXoooooXoooX ",
" XooXoooooXXX...XXXooXXXoooooXooX ",
"  XXXXXXXXXX      XXXXXXXXXXXXXX  ",
"                                  "
};
